<svg width="187" height="54" viewBox="0 0 187 54" fill="none" xmlns="http://www.w3.org/2000/svg">
<path d="M2.7 14.08L2.44 14.57L2.60001 15.3L2.3 15.91L1.66 16.14L1.24001 16.71L1.03 16.43L1.41 15.98L1.44 15.58L1.11 15.32L1.13 14.9L0.850006 14.94L0.309998 15.43L0.26001 15.74L0 15.58L0.279999 14.99L1.27 14.24L1.79001 14.36V14.1L2.28 14.12L2.54001 13.96L2.7 14.08ZM28.27 6.67L30.07 7.00999L30.8 6.59999L32.2 6.50999L32.14 8.48999L31.73 9.34999L31.09 9.51999L31.15 10.08L31.36 10.45L31.15 11.4L30.97 11.46L30.12 10.97L29.22 11.22L29.11 11.06L29.35 10.38L28.82 10.44L28.38 9.67999L28.22 8.95L27.83 8.87L27.85 8.20999L27.24 7.87999L27.27 6.75999L27.87 6.5L28.27 6.67Z" fill="black"/>
<path d="M27.88 6.49002L27.28 6.74002L27.24 7.86003L27.85 8.19002L27.83 8.86003L28.22 8.94002L28.38 9.67003L28.82 10.43L28.78 10.58L28.6 11.19L25.69 11.21L25.39 10.85L24.37 10.58L24.27 10.64L24.57 10.8L24.58 11.05L24.04 11.09L23.83 10.44L23.5 10.34L22.83 10.98L23.27 12.38L23.02 12.71L22.4 12.8L22.29 13.76L22.85 15L22.76 16.73L22.87 17.07H23.03L23.47 17.55L23.68 17.52L24.23 18.18L23.86 18.43L23.83 18.7L22.89 19.14L22.81 19.85L22.16 20.54L22.26 20.98L22.08 21.16L22.24 21.92L21.75 22.11L20.74 22.16L20.65 21.88L19.99 21.85L19.93 21.62L19.56 21.52L19.59 21.09L18.68 20.66L18.13 20.64L17.59 20.25L17.13 20.15L16.43 19.34L15.89 19.11L14.45 18.99L11.51 19.6L10.01 19.41L7.89 19.74L7.49001 20.03L6.79001 19.84L6.45 19.96L5.84001 19.41L5.53 19.36L5.38 19.67L5.19 19.68L5.26001 19.42L4.69 19.04L3.54001 18.8L3.22 18.87L3.02 19.3L2.69 19.58L2.28 19.48L2.13 18.48L1.92 18.2H1.76001L1.69 17.94L2.67 18.01L3 17.56L3.8 16.98L3.68001 16.55L4.51001 16.15L5.08 17.42L4.90001 17.47L4.83 17.7L5.33 18.03L5.65001 18.56L5.7 19L6.01001 19.25L6.22 19.21L6.74001 18.58L6.88 17.59L7.93001 16.73L8 16.33L8.36 16.19L8.68001 15.77L8.90001 15.06L8.81 14.26L9.35001 13.32L9.75 13.01L9.88 13.49L9.7 13.73L10.11 14.05L10.45 14.11L11.47 13.9L12.17 12.94L12.34 12.36L12.42 9.28003L13.03 7.03003L13.42 6.79002L13.39 6.18002L14.14 5.71002L14.41 5.31003L15.19 4.67003L15.37 3.80002L15.1 3.85002L15.97 3.01003L16.71 2.90002L17.27 3.55002L17.25 4.84003L18.27 5.39003L18.53 5.42003L19.29 5.07002L19.55 4.78003L19.67 4.29002L19.9 4.12003L20.77 4.41002L20.89 4.61003L21.18 4.70003L21.58 4.29002L21.85 4.55002L22.17 4.58002L22.08 4.73003L22.31 5.25003L22.8 5.51003L23.18 5.44002L23.91 5.67003L24.64 5.14003L25.13 5.45003L26.06 5.28003L26.27 5.12003L26.7 5.37003L27.19 5.22002L27.66 5.68002L27.57 5.80002L27.88 6.49002Z" fill="black"/>
<path d="M141.75 47.35L142.4 47.48L143.26 47.43L143.74 47.73L143.57 48.1L142.56 48.34L141.58 48.39L141.13 48.2L141.16 47.68L141.51 47.54L141.59 47.27L141.75 47.35ZM184.37 24.13L184.91 24.31L184.84 24.57L185.07 24.77L185.59 24.83L185.69 25.04H185.95L186.12 24.9V24.53L186.53 24.35L186.52 24.12L186.79 23.99L186.52 25.54L186.22 25.77L185.43 25.83L184.13 25.19L183.96 24.86L184.24 24.42L184.08 23.97L184.22 23.73L184.37 24.13ZM160.57 25.32L160.29 25.38L159.59 25.19L158.8 24.64L158.48 24.02L158.71 23.45L159.56 23.19L160.05 23.53L160.79 25.04L160.57 25.32ZM182.26 21.7L182.83 22.03L182.99 22.4L182.44 22.2L181.86 22.34L181.38 22.16L181.32 21.82L181.04 21.79L180.93 21.52L181.19 21.19L182.26 21.7ZM153.83 20.22L155.59 21.13L155.91 21.9L155.34 21.88L154.98 22.2L154.45 22.39L153.22 22.47L152.88 22.75L152.43 22.54L152.22 22.67L152.82 22.95L153.24 23.42L154.68 23.5L154.91 24.16L153.31 23.97L152.67 23.5L152.76 23.18L152.33 22.99L151.76 23.44L151.63 23.72L151.59 23.89L151.84 24L151.95 24.32L151.84 24.55L148.25 24.12L147.65 24.5L147.44 24.41L146.86 24.52L146.44 24.99L146.02 26.2L145.34 26.65L145.13 26.48L145.26 26.39L145.18 26.22L144.42 26.07L141.29 25.96L140.99 26.13L139.72 26.17L139.42 25.68L139.08 25.74L139.06 25.51L139.27 25.25L138.93 24.95L138.55 25.4L138.72 25.78L139.1 26.12L138.17 26.21L134.62 25.34L134.13 25.06L132.64 24.97L132.24 25.22L131.58 25.24L131.13 24.88L131.36 23.94H131.08L130.82 23.26L131.03 22.79L131.63 22.94L132.86 21.92L133.46 21.03L133.42 20.69L134.48 20.31L136.07 20.29L136.75 20.14L138.39 20.35L143.98 20.29L145.17 20.46L148.63 20.21L149.78 20.27L152.35 19.89L153.83 20.22ZM176.09 19.29L178.3 19.45L179.26 19.78L180.75 20.62L180.99 21.06L180.55 21.66L180.12 21.4L179.67 21.43L179.24 21L178.22 21.16L177.89 20.78L177.48 20.84L177.38 20.98L176.88 20.92L176.95 21.15L177.66 21.48L178.04 22.03L176.88 22.16L176.61 21.78L176.43 21.79L176.2 21.92L176.23 22.3L175.97 22.38L175.3 21.74L175.77 21.2L175.46 21.3L174.62 21.22L174.48 20.91L174.66 20.29L175.16 20.2L175.4 19.87L175.41 19.69L174.98 19.46L175.07 19.36L175.4 19.2L176.09 19.29ZM114.7 18.28L115.2 18.33L116.03 18.74L116.66 18.76L117.59 18.53L118.29 18.13L118.73 18.18L119.88 20.08L120.27 20.37L121.18 20.49L122.07 20.44L123.1 20.01L123.57 20.13L124.87 19.88L126.12 20.05L126.37 19.91L126.9 20.06L127.49 20.51L128.15 20.64L128.52 20.18L128.29 19.89L128.57 19.71L128.52 19.37L128.92 19.71L129.04 19.64L129.06 19.95L129.34 20.34L129.63 20.33L129.84 20.61L129.71 20.88L129.49 20.79L129.47 21.06L129.79 22.07L130.4 22.52L130.49 23.07L130.11 23.51L129.96 24.3L130.74 25.01L130.78 25.39L130.49 25.57V25.86L130.76 26.04L131.39 26.08L131.56 25.69L132.37 25.6L132.73 25.87L133.12 26.58L133.82 27.14L133.8 27.64L133.58 27.9L133.78 28L133.62 29.17L133.68 30.44L133.31 30.5L133.65 31.1L134.12 31.25L134.26 31.47L134.12 32.33L134.32 32.38L134.57 32.87L135.36 33.15L135.6 32.97L135.97 33.38L136.45 33.61L136.85 33.44L137.3 33.55L138.04 34.39L139.47 35.12L140.18 34.98L140.85 35.09L141.44 35.79L141.83 35.57L142.09 35.64L142.6 35.44L142.98 35.05L143.57 34.99L145.22 34.33L146.05 34.56L146.55 34.5L148.1 34.94L148.85 34.52L149.51 34.99L149.74 34.97L150.24 34.82L150.67 34.3L151.25 34.03L152.51 34.34L153.58 33.25L154.44 32.82L155 33.21L155.59 34.44L155.75 34.51L157.35 34.63L158 34.32L158.85 35.12L160.4 35.38L161.39 35.98L161.84 36.61V37.53L161.06 38.22L161.26 39.52L161.25 40.64L160.83 41.43L160.74 42.2L160.43 42.86L160.53 43.6L160.16 44.39L159.74 46.61L159.69 47.19L160.11 48.03L159.89 48.69L160.12 48.9L160.29 48.81L160.47 47.95L160.38 47.4L160.5 47.33L160.7 47.55L160.68 48.05L160.88 48.57L160.76 49.14L161.13 50.09L161.61 50.67L162.09 50.29L162.71 50.89L163.69 51.05L164.28 51.95L164.03 52.73L163.69 53L162.99 53.16L161.36 52.61L160.29 52.64L159.81 52.52L159.75 52.29L160.2 52.07L160.32 51.74L160.16 51.17L159.55 50.55L158.33 50L157.79 50.05L157.64 50.23L157.68 50.7L157.52 50.8L155.58 50.29L154.52 50.59L154.26 50.41V49.95L153.97 49.83L153.7 49.99L153.67 50.2L153.06 50.25L152.83 50L153.2 49.9L153.22 49.64L152.94 49.31H152.65L152.33 49.65L151.75 49.32L150.91 49.18L150.93 48.77L150.63 49.11L150.47 49.08L150.49 48.23L150.29 48.12L149.63 48.35L149.47 48.62L149.24 48.71L149.02 48.6L148.88 48.73L148.79 48.67L148.96 48.24L148.83 47.99L148.46 48.27L148.26 48.1L148.09 48.22L147.3 47.3L146.87 47.14L146.47 47.2L146.53 47.08L146.36 46.96L146.09 47.11L145.57 47.04L144.79 46.67L144.77 46.26L144.4 46.1L143.8 46.16L143.2 46.52L142.55 45.45L142.26 45.2L141.46 44.67L140.53 44.44L139.66 44.38L136.98 44.83L135.96 45.43L135.62 46.04L135.1 46.46L131.45 46.96L131.53 47.46L131.14 47.59L129.93 46.96L128.86 46.63L126.85 46.46L126.39 46.18H125.93L125.1 45.57L124.34 45.35L123.75 45.66L123.14 45.57L122.57 45.26L120.04 45.17L119.58 45.08L119.3 44.77L118.83 44.57L118.2 44.47L118.1 44.59L118.21 44.81H117.43L116.72 44.22L116.5 44.2L116.38 44.45L115.73 44.28L115.68 44.12L115.27 44.22L115.36 45.28L115.05 45.46L114.72 45.42L114.83 45.09L114.61 44.7L114.27 44.71L114.19 44.87L114.39 45.22L114.01 45.23L113.91 45.44L114.3 45.77L114.37 46.01L113.87 46.14L113.56 46.12L113.4 45.84L112.65 45.76L112.79 45.56L112.72 45.23H112.5L112.46 45.36L112.13 45.27L111.98 45.45L111.7 45.38L111.68 45.01L111.37 44.94L111.13 45.4L109.84 45.09L109.67 44.31L109.34 44.11L108.68 44.48L106.18 43.95L105.66 44.3L104.42 44.41L103.59 43.83L103.55 43.49L103.27 43.47L103.19 43.92L102.19 44.03L100.23 43.38L100.11 42.56L100.36 41.65L101.06 40.73L102.32 41.06L103.16 40.45L103.71 40.76L104.15 40.06L104.08 39L104.36 38.81L104.32 38.51L104.5 38.33L105.14 38.17L105.21 38.45L105.63 38.39L105.9 38.72L106.2 38.63L106.82 37.95L107 37.25L107.31 37.01L106.73 35.7L106.83 35.14L105.87 35.18L105.04 34.5L105.14 34.12L105.07 33.35L105.25 32.73L104.61 32.31L104.42 31.51L104.45 30.87L104.18 30.54L103.88 29.52L104.34 28.55L104.28 28.06L104.43 27.64L104.25 27.52L104.44 26.81L104.53 26.68L104.86 26.78L105.26 26.65L105.35 26.47L105.56 26.5L106.02 27.06L107.18 27.48L107.92 27.98L109.06 28.25L109.31 28.55L109.71 28.68L109.8 28.41L109.5 28.26L109.66 27.71H109.2L109.56 26.82L109.77 26.61L109.92 26.71L110.14 26.53L110.24 26.62L111.19 26.12L111.87 25.42L112.52 24.14L112.46 23.64L112.67 23.31L112.46 22.41L112.65 21.96L111.67 21.29L111.97 20.77L112.37 20.61L112.61 19.26L113.28 19.17L113.43 18.96L113.39 18.35L113.55 18.17L113.73 18.32L113.93 17.98L114.32 18.25L114.7 18.28ZM131.37 0.299988L131.76 0.399994L131.75 0.699997L132.02 1.23L131.84 2.04999L131.08 2.43999L130.45 2.39L130.28 2.25L129.92 2.42H129.45L129.16 1.89999L129.43 1.00999L129.75 0.959991L129.82 0.589996L130.17 0.369995L130.46 0.25L130.85 0.339996L131.07 0L131.37 0.299988Z" fill="black"/>
<path d="M34.38 3.83L35.15 4.63L35.57 4.71001L37.77 4.21001L38.68 4.47L39.56 5.41L40.78 7.47L42.39 8.09001L43.45 8.22L44.31 9.16L44.73 8.82001L44.95 8.96001L45.44 8.93001L46.75 8.14001L47.37 8.16L47.49 8.58L48.1 8.25002L48.25 8.52L47.97 8.51001L48.05 9.01001L49.13 9.39001L50.55 10.2L52.16 10.69L53.16 10.07L53.58 9.60001L53.51 9.22L53.16 8.88L53.53 8.94L53.8 9.22L55.14 9.19L55.77 9.64001L55.85 9.15001L55.99 9.08L56.28 9.48001L56.44 10.02L56.32 10.19L56.6 11.02L57.94 12.52L59.3 13.33L59.45 14.53L59.36 15.1L59.73 16.95L60.38 18.1L60.97 18.25L61.25 17.91L61.73 18.17L61.81 18.74L62.98 19.02L63.91 18.56L63.96 18.19L63.65 18.08L63.88 17.81L64.35 17.78L64.28 19.25L63.72 20.1L63.47 20.21L63.04 20.79L63.2 21.29L63.15 21.94L63.8 22.31L63.76 22.67L63.49 22.9L63.59 23.21L63.42 23.58L63.47 23.95L63.19 24.21L62.53 24.26L62.05 24.84L61.47 24.9L61.13 24.59L60.79 24.6L59.81 25.08L59.79 25.65L60.07 25.92V26.43L59.6 27.24L59.69 28.06L59.87 28.04L60.08 28.28L61.25 28.19L61.76 28.67L61.87 29.15L62.42 29.74L62.29 30.2L62.39 30.64L62.69 31.01L63.03 31.95L62.95 32.47L62.66 32.91L63.35 33.64L63.84 33.89L63.16 34.32L62.64 34.02L61.9 33.96L61.43 34.27L61.39 34.41L61.72 34.76L61.58 34.89L61.22 34.67L61.09 34.16L60.04 34.12L59.12 34.33L58.72 34.72L58.64 35.84L58.19 36.16L57.57 36.4H55.88L51.41 35.63L49.87 35.11L48.41 34.93L47.37 35L47.19 34.9L47.09 34.43L46.64 34.15L46.15 33.94L44.65 33.78L44.32 33.05L43.1 32.18L40.92 31.39L40.56 31.08L39.25 30.83L36.68 30.64L34.67 30.11L25.2 29.45L24.33 29.2L23.84 28.73L22.98 28.45L22.43 28.64L22.41 28.29L21.94 27.23L21.95 26.43L22.52 25.52L23.4 25.33L23.16 24.81L23.26 24.44L23.75 24.02L24.2 23.85L24.83 23L24.76 22.09L24.25 21.58L23.02 21.43L22.55 21.6L22.24 21.92L22.08 21.16L22.26 20.98L22.16 20.54L22.81 19.85L22.89 19.14L23.83 18.7L23.86 18.43L24.23 18.18L23.68 17.52L23.47 17.55L23.03 17.07H22.87L22.76 16.73L22.85 15L22.29 13.76L22.4 12.8L23.02 12.71L23.27 12.38L22.83 10.98L23.5 10.34L23.83 10.44L24.04 11.09L24.58 11.05L24.57 10.8L24.27 10.64L24.37 10.58L25.39 10.85L25.69 11.21L28.6 11.19L28.78 10.58L28.82 10.43L29.34 10.38L29.1 11.06L29.22 11.21L30.12 10.96L30.97 11.45L31.15 11.4L31.36 10.45L31.15 10.08L31.1 9.52L31.73 9.35001L32.14 8.49001L32.2 6.50002L32.57 6.44L32.75 6.19L32.5 5.78001L32.92 5.50002L32.76 5.28001L32.59 5.37001L32.54 5.03001L32.85 4.77L32.96 4.11002L32.79 3.88L32.5 3.95001V3.86002L33.1 3.45001L34.38 3.83Z" fill="black"/>
<path d="M113.92 17.98L113.72 18.32L113.54 18.17L113.38 18.35L113.42 18.96L113.27 19.17L112.61 19.26L112.37 20.61L111.97 20.77L111.67 21.29L112.65 21.96L112.46 22.4L112.67 23.31L112.46 23.63L112.52 24.14L111.87 25.41L111.18 26.12L110.23 26.62L110.13 26.53L109.91 26.71L109.76 26.61L109.55 26.81L109.2 27.7H109.66L109.49 28.25L109.79 28.4L109.7 28.67L109.3 28.54L109.05 28.24L107.91 27.97L107.17 27.47L106.01 27.05L105.55 26.49L105.34 26.46L105.25 26.64L104.85 26.77L104.53 26.67L104.44 26.8L104.25 27.51L104.42 27.63L104.27 28.05L104.33 28.54L103.87 29.5L104.17 30.53L104.44 30.85L104.41 31.49L104.6 32.29L105.24 32.71L105.06 33.33L105.13 34.11L105.03 34.48L105.86 35.17L106.82 35.12L106.72 35.69L107.3 36.99L106.99 37.23L106.81 37.93L106.19 38.62L105.89 38.7L105.62 38.38L105.21 38.44L105.13 38.15L104.5 38.32L104.32 38.5L104.36 38.79L104.08 38.99L104.16 40.04L103.71 40.74L103.16 40.43L102.32 41.04L101.05 40.71L100.36 41.63L100.11 42.54L100.23 43.36L99.04 43.07L99.08 42.57L98.96 42.52L98.78 42.7L98.7 42.59L98.94 41.98L98.72 41.97L98.4 42.35L98.17 42.17L98.22 41.42L97.65 39.81L97.88 39.26L97.86 38.16L98.15 37.32L98.2 36.43L97.91 36.26L97.67 36.53L97.3 36.07L96.98 35.94L96.81 36.16L96.4 36.21L96.21 35.88L95.97 36.11L95.83 35.97L94.73 36.2L94.52 35.86L94.29 35.77L93.93 36L93.5 35.6L93.18 35.54L92.37 31.65L89.98 33.53L89.41 34.3L89.15 34.16L89.18 33.57L88.98 33.4L88.69 33.52L87.43 33.39L86.82 33.55L86.64 33.98L86.96 34.26L86.84 35.14L86.5 35.65L86.24 35.75L86.04 36.17L85.64 36.41L85.33 37.69L84.75 37.66L83.06 37.04L79.44 36.05L76.1 35.52L75.64 35.34L74.45 35.6L73.99 35.26L74.16 34.76L72.29 34.34L69.21 34.11L68.44 34.23L67.85 34.58L67.69 34.88L67.6 35.26L67.79 35.5L68.07 35.41L68.19 35.57L68 35.81L64.29 35.01L63.79 35.1L63.62 34.8L63.8 34.53L63.55 34.45L63.85 34.14L64.31 34.07L64.49 33.83H64.89V33.68L64.67 33.59L63.84 33.89L63.35 33.64L62.66 32.91L62.95 32.47L63.03 31.95L62.69 31.01L62.39 30.64L62.29 30.2L62.42 29.74L61.87 29.15L61.76 28.67L61.25 28.19L60.08 28.28L59.87 28.04L59.69 28.06L59.6 27.24L60.07 26.43V25.92L59.79 25.65L59.81 25.08L60.79 24.6L61.13 24.59L61.47 24.9L62.05 24.84L62.53 24.26L63.19 24.21L63.47 23.95L63.42 23.58L63.59 23.21L63.49 22.9L63.76 22.67L63.8 22.31L63.15 21.94L63.2 21.29L63.04 20.79L63.47 20.21L63.72 20.1L64.28 19.25L64.35 17.78L64.45 18.02L64.35 18.28L64.64 18.33L64.89 18.78L66.52 19.25L66.76 18.85L67.11 18.83L67.8 18.36L68.1 18.43L68.44 18.04L68.58 18.93L69.24 19.55H70.11L70.57 19.83L71.79 20.01L72.55 20L73.17 19.8L73.59 19.88L74.58 19.62L75.61 19.05L76.3 18.4L77.26 19.42L78.74 19.59L82.49 20.8L83.37 20.71L84.01 20.88L84.77 20.82L87.1 20.05L87.49 19.78L87.58 19.53L88.34 19.77L88.84 20.59L89.71 20.91L90.04 21.18L91.05 21.49L92.18 21.24L92.3 21.47L92.91 21.24L92.9 20.81L93.37 20.13L93.6 19.39L94.19 18.91L94.57 18.14L94.02 18.1L93.87 17.87L94.27 17.94L94.02 17.48L94.38 17.4L94.64 17.56L95.05 17.26L95.68 16.42L95.61 15.6L95.85 15.52L95.94 14.74L95.83 14.57L96.38 13.95L96.09 13.63L96.37 13.52L97.07 12.67L98.14 12.3H98.63L98.98 12.02L100.22 11.89L101.08 12.1L101.55 11.94L102.64 12.29L103.67 15.38L104.32 16.24L105.35 16.47L106.05 16.84L108.36 17.07L109.76 16.46L109.94 15.97L110.43 15.7L110.72 15.91L111.1 15.82L111.8 16.11L113.92 17.98Z" fill="black"/>
<path d="M99.04 43.07L97 42.98L91.15 40.85L90.74 40.52L90.49 40.04L88.52 39.42L86.04 38.14L84.75 37.66L85.33 37.69L85.64 36.41L86.04 36.17L86.24 35.75L86.5 35.65L86.84 35.14L86.96 34.26L86.64 33.98L86.82 33.55L87.43 33.39L88.69 33.52L88.98 33.4L89.18 33.57L89.15 34.16L89.41 34.3L89.98 33.53L92.37 31.65L93.18 35.54L93.5 35.6L93.93 36L94.29 35.77L94.52 35.86L94.73 36.2L95.83 35.97L95.97 36.11L96.21 35.88L96.4 36.21L96.81 36.16L96.98 35.94L97.3 36.07L97.67 36.53L97.91 36.26L98.2 36.43L98.15 37.32L97.86 38.16L97.88 39.26L97.65 39.81L98.22 41.42L98.17 42.17L98.4 42.35L98.72 41.97L98.94 41.98L98.7 42.59L98.78 42.7L98.96 42.52L99.08 42.57L99.04 43.07Z" fill="black"/>
</svg>
