<svg width="236" height="199" viewBox="0 0 236 199" fill="none" xmlns="http://www.w3.org/2000/svg">
<path d="M99.08 85.85L98.33 86.14L98.03 85.93L97.22 84.59L97.36 83.78L97.04 79.72L97.22 79.13L97.66 78.91L98.1001 79.26L98.57 80.32L98.49 83.81L99.08 85.85ZM169.43 40.31L171.14 40.57L171.63 44.68L172.25 48.17V53.87L171.82 54.97L172.13 55.71L172.68 56.14L173.02 56.21L173.01 56.34L172.34 58.42L171.89 58.83L171.04 59.06L171.17 59.37L171.95 59.93L172 60.11L171.96 60.67L171.44 61.71L171.3 62.42L171.25 63.97L171.41 64.83L171.79 65.3L171.92 66.4L172.5 67.41L172.1 67.99L171.7 67.36L171.36 67.34L170.73 68.6L170.31 71.41L170.36 71.59L171.07 72.11V72.31L170.26 72.98L170.13 73.23V74.07L169.95 74.41L168.92 74.55L168.11 75.32L166.88 75.41L166.84 75L166.23 74.35L165.89 75.18L164.3 76.24L164.05 77.3L163.09 78.07L163.13 78.25L163.64 78.38L163.82 78.65L163.64 78.99V79.42L163.04 79.94V80.32L163.27 80.46V80.95L163.18 81.36L162.87 81.74L163.18 82.21L164.17 81.9L164.84 82.69L164.95 83.03L165.42 83.37L165.35 83.68L164.75 84.18L163.97 84.16L163.39 84.34L162.94 84.75L162.74 85.34H162.07L161.56 85.93L161.13 86.16L160.46 86.05L160.15 86.68L160.48 87.11L160.44 87.34L159.66 87.83L157.82 88.03L157.48 89.34L157.5 90.16L157.66 90.45L158.01 90.64L157.85 91.6L158.05 92.05L158.81 91.71L159.32 91.96L159.34 92.18L158.65 92.7L158.6 92.93L159 93.74L158.64 94.08L157.97 94.19L157.52 94.83L156.98 94.58L156.42 94.74L156.49 95.01L156 95.67L156.13 95.8L156.24 96.99L156.11 97.98L155.73 98.29L155.21 99.21L154.41 99.68L154.29 100.43L154.47 100.73L153.98 101.54L153.77 101.96L153.38 102.08L150.8 100.57L150.22 101.11L148.64 101.77L147.94 101.86L147.7 102.31L147.36 102.45L147.16 102.17L146.19 101.52L143.14 101.84L142.74 102.29L140.82 103.08L140.75 103.25L140.88 103.45L140.6 104.29L138.7 105.06L138.32 105.51L137.97 105.73H137.67L137.35 105.63L136.6 104.29L135.93 103.99L135.11 104.04L134.54 104.26L134.21 104.56L133.81 104.54L133.51 104.17L132.91 103.8L132.74 103.45L132.02 102.95L131.25 102.75L129.65 102.9L128.9 102.68L128.52 102.01L128.15 101.96L126.8 102.41L126.05 102.34L126.2 101.89L126.5 101.59L127 101.42L127.5 100.43L127.67 100.38L127.54 99.98L127.02 99.68L126.39 99.56L125.47 99.63L124.65 99.41L124.45 99.46L124.1 99.93L123.53 100.23L123.18 100.21L122.63 99.81L120.98 99.93L118.08 99.56L117.06 99.93L116.98 100.23L116.43 100.5L114.86 100.85L113.59 101.64H113.17L112.67 102.19L113.09 102.84L113.04 103.49L112.19 104.33L112.04 105.82L111.79 106.42L111.82 107.07L108.6 107.29L107.25 108.68L106.93 109.45L105.23 109.1L104.65 109.27L103.65 108.75L103.38 108.77L102.25 109.59L101.73 109.66L101.63 110.18L101.4 110.2L100.7 109.03L99.93 108.91L99.23 109.21L98.73 109.23L98.23 108.91L96.48 108.34L96.16 108.04L94.21 108.61L90.36 109.11L90.09 109.71L89.46 110.26L88.74 110.38L87.79 110.93L87.02 111.18L86.64 111.5L86.19 111.52L85.74 111.07L85.34 111.74L84.79 111.86L84.06 111.79L82.86 111.37L82.51 111.1L81.61 109.73L80.64 109.48H79.66L79.34 108.51L78.92 107.79L78.44 107.39L78.29 106.87L77.84 106.2L77.11 106.05L76.51 106.12L76.08 105.77L75.73 104.9L74.24 104.16L74.07 102.77L73.82 102.47L73.32 102.27L72.05 102.22L71.22 100.93L70.87 100.78L69.05 98.97L68.75 98.32L69.17 96.18L69.02 95.83L67.82 95.53L67.42 94.91L66.97 94.59L66.72 94L66.77 93.53L67.37 93.46L67.67 92.71L68.05 92.49L68.55 91.11L68.7 92.29L68.63 93.43L68.97 94.09L69.64 94.89L72.91 97.12L73.4 97.66L74.33 97.8L79.02 97.4L80.1301 95.88L80.36 95.75L80.56 95.82L82.9 98.47L82.95 98.8L86.8 99.96L87.33 100.25L87.45 100.57L87.3501 100.9L86.33 101.79L86.53 101.89L87.34 101.75L87.83 101.29L88.04 99.86L88.86 99.77L91.53 101L93.03 102.57L94.6301 103.28L97.47 103.81L98.49 103.59L96.91 102.44L96.1301 102.39L95.2 102.73L94.71 102.67L92.95 101.6L92.17 100.37L91.95 99.7L92.45 98.08L93.06 97.8L94.94 93.23L95.5 91.19L96.09 90.36L96.36 90.21L97.57 90.52L97.99 90.29L98.36 89.82L98.39 89.62L98.1001 89.54L95.28 89.92L94.95 89.84L95.1301 87.84L95.62 85.49L95.87 85.08L96.2 84.96L97.43 85.68L98.34 86.51L98.79 86.22L99.76 86.01L98.94 84.08L99.52 80.78L99.72 80.4L103.53 77.77L106.21 77.33L108.4 77.21L110.87 76.78L124.22 73.41L125.75 72.93L126.74 72.39L127.29 71.87L127.99 70.8L131.32 66.78L133.74 63.24L135.52 61.24L138.15 59.1L139.29 57.99L142.59 53.73L143.25 52.4L143.77 50.36L143.72 49.58L143.22 48.12L143.29 47.9L143.82 47.61L145.86 47.73L147.77 48.45L149.31 50.53L149.56 52.25L150.67 53.48L153.19 55.62L154.42 57.03L154.48 57.4L154.73 57.65L155.28 57.59L156.57 56.86L157.8 55.51L158.78 52.02L158.72 50.86L158.41 50.55L157.43 45.71L157.49 45.28L158.6 44.18L160.2 44L160.69 43.82L161.06 43.51L161.51 42.66L161.73 43.97L161.49 44.68L161.67 46.83L162.1 48.06L162.84 51.37L164.87 52.1L167.02 52.59L167.33 52.47L167.21 51.55L166.16 50.75L165.91 50.38L165.79 49.64V48.23L165.97 47.74L165.91 47L164.93 43.94L163.72 42.36L164.97 41.45L166.11 42.01L166.83 42.56L167.33 42.46L167.95 42.01L169.43 40.31Z" fill="black"/>
<path d="M203.25 12.54L202.89 12.58L201.82 12.32L201.55 12.01L201.68 11.77L202.65 11.69L203.33 11.42L203.45 11.19L203.35 10.98L202.74 10.9L202.68 10.66L202.86 10.48L203.85 10.23L204.27 10.53L204.67 11.2L204.63 11.67L204.42 11.93L203.25 12.54ZM192.01 13.31L192.29 13.44L192.71 13.38L193.37 13.1L196.58 9.13L196.69 8.82L196.26 7.65L196.28 7.23L196.93 6.46L197.29 6.22L198.25 6.07L198.82 6.26L200.05 7.04L200.11 8.02L199.98 8.48L200.12 10.1L200.72 12.31L203.81 14.05L205.4 14.08L206.95 14.48L207.44 14.88L208.27 16.06L208.53 16.69L208.24 18.94L208.02 19.07L207.36 18.97L206.85 19.17L206.34 19.57L206.13 20.05L206.16 20.3L207.21 21.84L207.42 23.68L206.64 24.41L204.44 25.17L209.27 24.84L211.08 24.19L212.81 22.4L213.16 22.31L213.88 23.03L215.2 25.72L214.43 26.65L213.74 26.77L211.85 26.59L211.45 26.87L211.62 27.61L212.27 28.82L215.21 28.74L215.74 27.06L216.09 26.77L217.51 26.36L219.5 26.71L221.25 27.56L223.05 28.76L224.26 29.64L225.01 30.44L229.21 33.23L231.55 33.67L232.11 33.52L232.61 33.13L233.62 33L234.47 33.69L235.11 34.7L235.05 36.79L234.21 38.08L233.3 38.71L231.55 39.44L228.84 40.17L225.18 41.63L222.55 41.36L220.77 40.66L220.19 40.12L219.17 40.03L216.63 41.31L215.47 42.58L215.33 43.18L217.92 46.16L220.25 47.67L220.47 47.36L220.65 47.33L221.42 47.68L221.45 48.16L221.11 48.62L221.84 49.27L222.44 48.84L223.32 48.91L224.19 50.35L223.93 50.74L222.54 51.85L220.05 51.9L216.23 52.61L215.22 52.91L212.99 54.05L211.43 53.67L210.69 52.96L207.75 51.45L206.65 51.81L207.04 53.3L206.16 54.46L206.01 54.96L205.77 54.79L204.88 55.05L203.67 54.71L203.43 54.56L203.03 53.7L200.01 51.55L199.48 51.76L199.39 51.95L198.75 52.11L198.16 52L197.51 52.17L196.4 52.02L196.06 52.41L195.78 52.11L195.13 52.05L194.84 51.82L194.11 51.64L193.58 52.05L192.89 52.25L192.4 51.97L192.14 52.08L191.76 51.6L191.35 51.35L191.09 51.85L190.81 52.01L190.5 52.11L189.97 51.95L189.2 52.19L188.95 51.58L188.57 51.46L188.16 51.01L187.62 51.68L187.67 52.3L187.2 52.38L186.83 52.22L186.6 52.76L186.05 52.9L185.86 52.27L184.69 51.3L183.17 51.65L182.87 51.47L181.46 51.26L181.31 51.37L181.18 52.01L180.33 52.34L179.94 53.1L179.74 53.23L179.09 52.73L178.98 52.24L178.71 52.04L177.2 51.74L176.87 51.17L176.34 51.36L176.22 52.4L176.36 52.82L175.64 53.42L175.51 53.99L175.1 54.1L174.96 53.77L174.56 53.71L173.77 54.62L173.4 54.59L173.07 55.26L173.03 56.19V56.22L172.69 56.15L172.14 55.72L171.83 54.98L172.26 53.88V48.18L171.64 44.69L171.15 40.58L169.44 40.32L170.32 39.96L170.82 39.5L171.1 37.59L170.84 37.19L170.33 37.23L169.56 36.88L167.39 35.35L167.75 33.77L170.31 31.76L174.36 31.71L175.31 31.47L175.85 30.95L176.65 29.55L177.06 27.78L179.35 26.17L179.39 25.14L180.03 23.8L180.37 21.21L184.15 17.14L187.13 14.89L187.24 14.01L189.6 11.3L189.59 10.05L189.83 8.78L190.85 6.68L191.51 5.81L191.72 5.72L192.86 6.72L192.98 7L193.32 9.52L193.18 10.32L192.46 11.25L191.96 12.28L191.89 13.01L192.01 13.31ZM200.65 0.58L200.54 1.98L200.09 3.01L198.34 3.19L197.45 3.73L197.12 4.29H196.9L196.65 3.15L196.83 1.4L196.97 1.19L198.26 0.32L199.6 0L200.4 0.15L200.65 0.58ZM193.59 2.27L193.28 2.93L193.2 2.85L193.66 1.36L195.77 0L196.06 0.77L196.07 1.49L195.03 1.92L193.59 2.27Z" fill="black"/>
<path d="M54.8 155.4L54.41 155.33L53.83 153.88L53.98 153.58L55.57 153.11L56.19 153.25L56.74 153.86L56.76 154.12L56.44 154.75L54.8 155.4ZM66.61 143.86L67.15 143.92L67.57 143.59L68.2 143.63L68.66 144.1L69.06 144.22L69.4 144.08L69.73 143.68L70.2 143.92L70.51 144.45L70.7 145.31L70.63 145.84L70.86 146.09V146.34L65.85 149.23L64.54 148.8L64.1 148.35L64.66 147.74L64.84 147.23L65.26 145.03L65.22 144.6L65.97 143.55L66.61 143.86ZM68.55 91.1L68.05 92.48L67.67 92.7L67.37 93.45L66.77 93.52L66.72 94L66.89 94.65L67.34 94.97L67.74 95.59L68.94 95.89L69.09 96.24L68.67 98.38L68.97 99.03L70.79 100.84L71.14 100.99L71.97 102.28L73.24 102.33L73.74 102.53L73.99 102.83L74.16 104.22L75.65 104.96L76 105.83L76.43 106.18L77.03 106.11L77.76 106.26L78.21 106.93L78.36 107.45L78.84 107.85L79.26 108.57L79.58 109.54H80.56L81.53 109.79L82.43 111.16L82.78 111.43L83.98 111.85L84.71 111.92L85.26 111.8L85.66 111.13L86.11 111.58L86.56 111.56L86.94 111.24L87.71 110.99L88.66 110.44L89.38 110.32L90.01 109.77L90.28 109.17L94.13 108.67L96.08 108.1L96.4 108.4L98.15 108.97L98.65 109.29L99.15 109.27L99.85 108.97L100.62 109.09L101.32 110.26L101.55 110.24L101.65 109.72L102.17 109.65L103.3 108.83L103.57 108.81L104.57 109.33L105.15 109.16L106.85 109.51L107.17 108.74L108.52 107.35L111.74 107.13L111.71 106.48L111.96 105.88L112.11 104.39L112.96 103.55L113.01 102.9L112.59 102.25L113.09 101.7H113.51L114.78 100.91L116.35 100.56L116.9 100.29L116.98 99.99L118 99.62L120.9 99.99L122.55 99.87L123.1 100.27L123.45 100.29L124.02 99.99L124.37 99.52L124.57 99.47L125.39 99.69L126.31 99.62L126.94 99.74L127.46 100.04L127.59 100.44L127.42 100.49L126.92 101.48L126.42 101.65L126.12 101.95L125.97 102.4L126.72 102.47L128.07 102.02L128.44 102.07L128.82 102.74L129.57 102.96L131.17 102.81L131.94 103.01L132.66 103.51L132.83 103.86L133.43 104.23L133.73 104.6L134.13 104.62L134.46 104.32L135.03 104.1L135.85 104.05L136.52 104.35L137.27 105.69L137.59 105.79H137.89L138.24 105.57L138.62 105.12L140.52 104.35L140.8 103.51L140.67 103.31L140.74 103.14L142.66 102.35L143.06 101.9L146.11 101.58L147.08 102.23L147.28 102.51L147.25 102.52L146.43 102.94L146.31 104.66L146.52 104.84L146.19 105.26V105.95L145.98 106.64L145.68 106.94L145.16 106.85L144.61 107.21L144.31 107.06L143.61 107.12L143.09 107.54L143 108.2L142.7 108.44L142.03 108.59L141.94 108.95L142.27 109.25L142.39 109.67L142.21 110.18L141.69 110.69L141.6 110.96L141.87 111.65L142.45 112.13V112.43L141.93 113.06L141.99 113.87L141.81 114.23L141.14 114.5L140.96 115.04L141.08 115.28L140.57 115.57L140.34 116.28L139.98 116.52L139.79 116.96L139.42 117.12L139.23 117.54H138.83L138.15 117.96L137.88 119.05L136.57 119.81L136.41 120.12L135.45 120.94L135.4 121.17L134.87 121.58L133.95 122.14L132.57 121.88L131.83 122.08L131.2 122.46L131.17 122.65L132.2 123.66L133.75 124.48L133.6 125.82L133.79 126.17L134.15 126.42L133.89 126.8L133.71 127.56L134.08 127.61L134.15 127.83L133.79 128.62L133.35 128.88L133.69 129.08L133.61 129.41L133.25 129.48L132.98 130.05L132.42 130.57L131.57 130.75L131.15 131.35L130.62 131.72L130.43 132.32L130.14 132.54L130.92 133.25L131.11 134.03L130.45 134.83L130.29 135.32L130.17 135.4L130.02 135.26L129.73 134.76L129.24 134.75L129.1 134.4L128.72 134.52L128.45 135.04H128.08L127.75 135.27L126.42 135.13L126.09 135.44L124.65 135.86L123.98 136.49L123.28 136.61L122.7 136.43L122.12 136.58L122.04 137.44L121.3 137.47L121.05 137.89L120.16 137.92L119.56 138.27V138.47L118.64 138.55L118.54 138.74L117.69 138.58L117.61 139.04L117.38 139.27L117.01 139.01L117 138.4L116.63 138.26L116.14 138.7L115.29 139.01L114.88 138.83L114.52 139.27L114.11 138.79L113.47 137.58L113.13 137.29L112.58 137.26L111.76 138.4L111.99 139.12L111.89 139.19H111.51L110.74 138.88L109.66 138.77L109.47 138.95L109.78 140.07L109.71 140.38L108.5 140.72L108.13 140.57L107.64 140.04L107.5 140.9L107.79 141.66L107.12 141.51L106.97 141.58L106.81 142.15L106.35 142.41L105.34 142.34L104.57 142.61L104.35 142.91L103.42 143.47L102.83 143.51L102.53 143.88L102.71 144.57L102.24 145.05L101.76 145.2L101.49 145.74L101.8 146.38L101.54 146.86L101.87 147.15L101.75 147.45L100.56 147.65L100.25 147.91L99.14 147.92L98.92 148.1L98.8 148.64H98.5L98.14 149.39L97.51 149.72L97.35 150.32L96.93 150.8L96.72 150.84L96.76 151.13L95.65 150.91L95.53 151.44L95.15 151.3L95.29 152.09L95.21 152.74L94.9 152.6L94.86 152.11L94.59 151.95L93.77 152.44L94.03 152.83L94.1 153.28L93.29 153.5L92.92 153.08L92.44 153.23L92.14 153.53L91.65 153.14L91.21 153.68L90.33 153.9L90.04 154.32L89.49 154.7L89.53 155.48L89.97 155.59L90.15 156.03L90.41 156.22L90.83 156.12L91.01 155.98L91.12 155.53L91.54 155.35L91.83 155.51L92.05 156.03L92.17 157.23L92.02 157.61L91.65 157.95L91.54 158.39L91.51 159.03L91.84 159.44L91.8 159.81L91.46 160.23L91.61 160.65L91.95 160.88L92.47 160.74L93.36 160.86L93.4 161.01L93.25 161.41L93.32 161.83L92.62 162.42L93.3 163.71L93.26 163.94L93.07 164.17L93.1 164.46L92.48 165.18L93.17 166.31L93.69 168.13L93.77 169.44L94.3 171.5L93.97 172.32L94.42 172.59L94.76 172.58L94.91 173.03L94.39 173.94L93.49 174.39L92.04 174.76L91.89 175.33L91.27 175.85L90.09 176.05L89.31 176.53L88.1 176.94L87.72 177.23L87.38 178.17L86.05 179L85.71 178.86L85.79 178.56L85.6 177.87L85.68 177.03L85.31 176.16L84.84 175.59L84.2 175.52L83.12 175.85L81.81 176.48L79.86 178.08L79.66 177.81L79.19 177.71L79.02 176.77L78.68 176.2L79.22 175.13L79.32 174.53L78.98 174.06L78.57 173.87L78.39 172.21L77.13 171.84L77.8 171.04L78.05 169.78L77.01 165.98L76.28 165.11L76.32 164L76.81 162.54L76.82 161.86L76.12 160.06L75.43 159.56L73.76 158.85L72.98 158.1L73.17 157.18L74.51 156.39L75.2 155.19L75.85 151.86L75.86 150.34L75.64 149.6L75.43 149.22L74.77 148.7L73.97 148.52L73.1 147.42L73.62 146.02L71.7 145.39L70.53 143.78L69.86 143.37L69.13 143.86L68 143.11L67.59 142.35L67.29 142.08L65.31 141.53L65.02 141.26L64.54 141.38L64.74 142.22L64.48 142.63L64.22 142.71L62.5 142.14L61.94 141.57L61.48 140.68L61.68 138.08L62.14 138.2L62.5 138.57L63.65 138.91L64.44 138.95L65.49 139.58L65.51 139.07L64.54 138.34L63.67 138.31L63.44 137.85L63.71 137.39L63.75 136.73L62.33 136.76L61.93 136.89L60.25 136.29L59.53 135.48L59.1 133.55L58.11 130.97L58.45 130.38L59.09 130.25L58.92 129.44L60.05 127.65L60.43 126.04L60.23 124.86L59.39 122.97L58.29 121.81L57.47 121.57L56.24 121.52L55.96 121.26L55.99 120.63L56.44 119.69V119.17L55.73 118.33L56.2 116.21L55.93 115.29L55.2 114.5L55.45 113.63L54.7 112.74L54.85 112.31L55.54 111.76L56.06 111.71L56.73 111.02L57.12 109.88L56.69 108.46L56.2 108.04L55.73 106.68L55.86 106.48L56.59 106.65V105.89L57.19 104.77L57.92 104.04L58.15 103.25L57.95 101.99L58.08 101.1L58.45 100.41L59.19 99.72L61.41 98.38L61.95 97.79V97.34L62.45 96.25L63.15 95.29L63.21 94.24L62.95 93.63L63.02 93.37L63.49 93.2L64.87 93.17L65.18 92.73L65.65 92.53L67.34 92.5L68.55 91.1ZM54.58 77.73L54.41 77.79L53.44 77.05L54.36 76.28L54.67 75.23L55.15 75.06L55.42 75.14L55.6 75.49L55.42 76.98L54.58 77.73ZM0.970001 77.95L0.590012 77.97L0.330002 77.7L0 75.01L0.12001 74.13L0.300003 74.09L2.85001 75.51L2.24001 76.85L1.37001 77.73L0.970001 77.95ZM45.45 63.5L43.16 63.98L41.7 63.17L42.3 62.33L43.55 61.42L42.92 61.05L41.13 60.46L40.15 58.61L39.92 57.49L40.51 56.78L41.25 56.57L43.21 54.52L44.42 54.8L44.53 55.64L44.75 56.13L46.95 58.3L47.11 60.09L46.89 60.87L45.45 63.5Z" fill="black"/>
<path d="M207.24 70.24L206.68 70.67L205.39 69.65L204.92 68.41L204.95 68L205.11 67.78L206.57 67.66L207.39 67.91L207.54 68.23L207.24 70.24ZM202.51 65.45L204.71 66.75L204.7 66.95L204.16 67.42L202.47 66.68L200.54 66.58L199.9 66.27L199.5 65.73L199.58 65.3L200.49 64.92L202.51 65.45ZM208.2 58.05L207.42 58.34L206.23 57.47L206.05 56.58L206.12 56.36L206.9 55.51L207.39 55.56L208.64 56.57L208.74 57.04L208.2 58.05ZM210.98 54.74L211.41 54.93L211.83 56.94L211.27 57.38L210.76 57.46L210.15 57.15L206.63 54.33L206.69 54.07L207.59 53.33L208.1 53.3L209.1 53.65L209.29 54.03L209.87 54.45L210.98 54.74ZM173.02 56.18L173.06 55.25L173.39 54.58L173.76 54.61L174.55 53.7L174.95 53.76L175.09 54.09L175.5 53.98L175.63 53.41L176.35 52.81L176.21 52.39L176.33 51.35L176.86 51.16L177.19 51.73L178.7 52.03L178.97 52.23L179.08 52.72L179.73 53.22L179.93 53.09L180.32 52.33L181.17 52L181.3 51.36L181.45 51.25L182.86 51.46L183.16 51.64L184.68 51.29L185.85 52.26L186.05 52.9L186.64 52.76L186.87 52.22L187.24 52.38L187.71 52.3L187.66 51.68L188.2 51.01L188.61 51.46L188.99 51.58L189.24 52.19L190.01 51.95L190.54 52.11L190.85 52.01L191.13 51.85L191.39 51.35L191.8 51.6L192.18 52.08L192.44 51.97L192.93 52.25L193.62 52.05L194.15 51.64L194.88 51.82L195.17 52.05L195.82 52.11L196.1 52.41L196.44 52.02L197.55 52.17L198.2 52L198.79 52.11L199.43 51.95L199.52 51.76L200.05 51.55L203.07 53.7L203.47 54.56L203.71 54.71L204.92 55.05L205.81 54.79L206.05 54.96L205.24 55.46L204.33 55.74L202.77 55.29L202.6 55.48V56.04L202.99 56.36L203.95 56.59L206.59 58.81L204.84 59.07L206.5 60.02L208.06 60.19L209.33 61.53L209.37 61.79L209.12 62.43L210.18 62.75L210.1 63L208.9 64.12L207.83 64.33L204.66 64.56L201.99 64.18L200.19 64.48L199.71 64.77L199.27 65.42L199.3 65.83L199.86 66.7L201.34 67.63L202.6 67.48L203.4 67.69L203.42 68.53L203.14 69.05L204.9 69.97L204.73 70.25L203.47 70.42L202.61 70.76L202.32 71.22L201.35 71.39L201.18 71.73L201.72 72.05L203.73 72.4L206.44 73.58L207.66 75.66L207.38 77.27L207.37 78.53L208.39 78.71L209.19 79.2L209.4 79.53L209.54 80.87L209.77 81.59L212.55 84.33L211.86 84.92L210.57 85.07L209.28 85.84L208.92 85.79L207.53 85.28L206.4 83.9L205.94 83.59L204.86 83.85L204.35 83.75L203.06 83.14L202.44 82.68L201.93 81.55H201.06L199.46 81.96L198.02 81.65L196.73 81.7L194.72 82.88L192.46 83.65L190.71 84.78L189.68 85.09L188.96 85.14L188.34 84.83V84.42L188.05 84.11L187.28 83.8L186.71 83.24L186.2 83.29L185.94 83.6L185.63 84.93L185.27 85.19L184.45 86.57L184.24 87.29L184.19 89.49L184.04 90.31L183.37 90.72L183.11 91.38L182.03 91.94L181.57 92.5L181.47 93.17L181.78 94.35L180.49 96.8L178.89 98.95L178.02 99.72L177.45 100.9L176.42 101.77L174.1 101.82L171.79 102.69L169.83 102.64L169.42 103.05L169.16 104.63L168.65 104.89L167.88 105.81L166.85 105.61L166.03 106.53L165.26 106.43L164.69 106.17H163.35L162.48 107.14L161.81 107.09L161.35 106.89L160.94 106.43L160.79 105.82L160.48 105.41L159.97 105.21L159.25 105.11L158.43 105.57L158.22 105.31L158.01 104.29L157.24 103.42L155.65 102.96L155.03 102.45L154.77 101.99L153.98 101.57L154.47 100.76L154.29 100.46L154.41 99.71L155.21 99.24L155.73 98.32L156.11 98.01L156.24 97.02L156.13 95.83L156 95.7L156.49 95.04L156.42 94.77L156.98 94.61L157.52 94.86L157.97 94.22L158.64 94.11L159 93.77L158.6 92.96L158.65 92.73L159.34 92.21L159.32 91.99L158.81 91.74L158.05 92.08L157.85 91.63L158.01 90.67L157.66 90.48L157.5 90.19L157.48 89.37L157.82 88.06L159.66 87.86L160.44 87.37L160.48 87.14L160.15 86.71L160.46 86.08L161.13 86.19L161.56 85.96L162.07 85.37H162.74L162.94 84.78L163.39 84.37L163.97 84.19L164.75 84.21L165.35 83.71L165.42 83.4L164.95 83.06L164.84 82.72L164.17 81.93L163.18 82.24L162.87 81.77L163.18 81.39L163.27 80.98V80.49L163.04 80.35V79.97L163.64 79.45V79.02L163.82 78.68L163.64 78.41L163.13 78.28L163.09 78.1L164.05 77.33L164.3 76.27L165.89 75.21L166.23 74.38L166.84 75.03L166.88 75.44L168.11 75.35L168.92 74.58L169.95 74.44L170.13 74.1V73.26L170.26 73.01L171.07 72.34V72.14L170.36 71.62L170.31 71.44L170.73 68.63L171.36 67.37L171.7 67.39L172.1 68.02L172.5 67.44L171.92 66.43L171.79 65.33L171.41 64.86L171.25 64L171.3 62.45L171.44 61.74L171.96 60.7L172 60.14L171.95 59.96L171.17 59.4L171.04 59.09L171.89 58.86L172.34 58.45L173.01 56.37L173.02 56.18Z" fill="black"/>
<path d="M185.21 189.16L185.04 189.36L183.94 187.58L184.59 185.93L185.45 184.84L185.68 184.78L185.88 185.23V185.82L185.21 189.16ZM180.5 196.11L179.94 196.27L179.41 196.22L179.34 196.01L179.4 195.24L179.79 193.96L179.73 192.17L178.83 190.92L178.58 190.11L178.6 189.45L180.5 183.89L182.95 182.14L183.18 182.2L183.24 182.55L182.88 184.84L183.15 187.49L183.97 191.47L183.73 193.9L181.22 195.78L180.5 196.11ZM174.16 149.23L173.91 150.22L172.85 151.49L172.6 151.42L172.74 150.64L172.42 150.57L171.6 151.28L171.17 151.95L170.53 152.51L170.46 152.86L170.64 153.21L171.24 152.96L171.84 153.07L172.12 153.46L171.98 154.17L172.12 154.49L172.83 155.05L172.69 155.37L172.8 155.86L173.3 156.42L173.65 157.16L173.79 159.03L173.72 159.74L173.4 160.45V160.87L173.68 161.19L173.47 161.79L173.65 161.75L174 162.03L174.5 161.89L175.1 162.14L175.24 162.39L174.89 162.95L174.71 164.47L175.42 166.2L175.38 167.22L175.66 167.75L176.19 167.57L176.58 167.22L176.69 166.9L177.47 166.62L178 166.13L178.53 166.62L178.92 166.69L181.65 166.83L182.93 167.25L185.63 167.29L186.73 167.57L188.06 168.19L187.67 170.06L187.15 170.72L186.75 170.74L186.59 170.58L186.47 169.97L185.71 169.57L183.73 169.97L183.68 171.59L184.69 172.5L184.89 175.61L184.56 176.46L183.17 178.26L182.66 178.52L182.43 178.47L182.19 178.12L181.98 176.92L181.03 175.27L180.83 175.08L180.7 175.22L180.32 176.94L180.51 177.83L181.49 179.23L182.06 179.73L182.16 180.71L181.39 181.1L180.14 182.81L178.62 185.68L178.24 188.13L178 188.6L177.62 188.82L175.64 189.11L174.49 190.21L173.84 190.63L170.6 192.01L166.07 193.64L159.87 196.23L156.08 198.51L154.84 198.67L154.48 198.28L154.35 197.71L154.34 190.39L154.23 189.55L153.88 188.85L152.86 187.51L152.15 186.85L151.42 186.93L149.88 186.05V185.14L150.66 182.77L152.12 180.48L152.51 178.22L154.04 175.22L155.03 174.94L155.38 174.66L155.56 174.45L155.42 174.2L155.63 173.81L155.99 173.92L156.84 173.6L157.3 173L157.62 171.2L158.32 170.65L158.82 169.87L158.78 169.23L158.99 168.91L159.56 168.95L165.46 164.68L165.85 164.96L166.17 164.92L166.38 163.61L166.77 162.8L166.06 161.25V160.86L167.02 160.12L167.27 159.31L166.6 158.39L166.49 157.61L167.2 155.39L168.09 151.51L168.23 151.33L170.08 151.19L171.89 150.52L172.28 150.2L172.78 150.31L173.77 149.53L174.16 149.23Z" fill="black"/>
<path d="M87.41 178.17L87.76 177.24L88.14 176.95L89.34 176.54L90.12 176.07L91.3 175.86L91.92 175.34L92.07 174.77L93.52 174.4L94.43 173.95L94.95 173.04L94.79 172.59L94.45 172.61L94 172.33L94.33 171.52L93.8 169.45L93.71 168.15L93.19 166.32L92.51 165.19L93.12 164.47L93.1 164.18L93.29 163.95L93.33 163.72L92.64 162.43L93.34 161.84L93.27 161.42L93.43 161.03L93.38 160.88L92.49 160.75L91.97 160.89L91.63 160.66L91.48 160.24L91.82 159.81L91.86 159.45L91.54 159.04L91.56 158.4L91.67 157.96L92.04 157.62L92.19 157.24L92.07 156.04L91.85 155.52L91.56 155.36L91.14 155.54L91.03 155.99L90.85 156.12L90.43 156.22L90.17 156.03L89.99 155.59L89.55 155.48L89.51 154.71L90.06 154.33L90.34 153.9L91.22 153.69L91.66 153.14L92.15 153.54L92.45 153.24L92.93 153.09L93.3 153.51L94.11 153.29L94.04 152.84L93.78 152.45L94.6 151.96L94.88 152.12L94.92 152.61L95.23 152.75L95.32 152.09L95.18 151.3L95.56 151.44L95.69 150.91L96.8 151.13L96.75 150.84L96.96 150.8L97.38 150.32L97.55 149.73L98.18 149.4L98.54 148.65H98.84L98.96 148.11L99.18 147.93L100.29 147.92L100.6 147.66L101.8 147.45L101.92 147.15L101.59 146.87L101.85 146.39L101.53 145.75L101.81 145.21L102.29 145.06L102.75 144.58L102.58 143.89L102.88 143.52L103.47 143.48L104.4 142.92L104.62 142.63L105.38 142.35L106.4 142.42L106.86 142.16L107.02 141.59L107.17 141.52L107.85 141.67L107.56 140.91L107.7 140.05L108.19 140.58L108.56 140.73L109.76 140.39L109.83 140.08L109.52 138.97L109.71 138.79L110.79 138.9L111.56 139.21H111.94L112.04 139.14L111.8 138.42L112.63 137.28L113.17 137.31L113.52 137.59L114.16 138.8L114.57 139.28L114.93 138.84L115.34 139.02L116.19 138.71L116.68 138.27L117.05 138.41L117.06 139.02L117.43 139.28L117.67 139.05L117.75 138.58L118.6 138.75L118.69 138.56L119.61 138.48V138.27L120.21 137.92L121.1 137.89L121.35 137.47L122.09 137.44L122.17 136.59L122.75 136.44L123.32 136.61L124.02 136.49L124.69 135.86L126.13 135.44L126.46 135.13L127.79 135.27L128.12 135.03H128.49L128.76 134.52L129.15 134.4L129.28 134.75L129.78 134.76L130.06 135.27L130.21 135.4L130.34 135.32L130.5 134.83L131.16 134.03L130.97 133.25L130.19 132.54L130.47 132.33L130.67 131.73L131.2 131.36L131.62 130.76L132.48 130.58L133.04 130.07L133.31 129.5L133.67 129.43L133.75 129.1L133.41 128.9L133.85 128.64L134.2 127.85L134.13 127.63L133.76 127.58L133.94 126.81L134.2 126.43L133.85 126.19L133.65 125.84L133.81 124.49L132.26 123.68L131.23 122.67L131.26 122.48L131.89 122.1L132.63 121.9L134.01 122.15L134.93 121.6L135.46 121.19L135.52 120.96L136.48 120.14L136.64 119.83L137.96 119.07L138.23 117.98L138.91 117.56H139.31L139.5 117.14L139.87 116.97L140.06 116.54L140.42 116.29L140.65 115.58L141.16 115.29H141.65L142.07 115.62L142.32 115.44L142.56 115.5L143.26 115.26L143.8 115.35L145.08 114.69L145.44 114.78L145.74 114.66L146.47 115.11L146.8 116.08L146.47 116.41V116.62L147.1 116.95L147.2 117.37L147.62 117.55L149.17 117.37L149.9 117.55L150.41 117.98L151.11 118.1L151.32 118.04L151.26 117.37L151.93 116.92L152.93 116.89L153.14 116.5V115.87L153.93 115.84L154.82 115.2L155.31 114.55L155.86 114.45L156.18 114.59L157 113.99L157.5 114.06L157.89 113.82L158.42 114.15L158.62 114.57L159.09 114.69L158.79 114.21L158.83 113.98L159.63 113.23L160.14 113.37L160.59 113.74L160.98 114.44L161.27 116.05L161.83 117.21L162.56 118.07L162.88 118.72L163.53 119.29L163.48 120L163.28 120.39L162.09 121.22L161.94 121.54L161.6 121.06L161.43 121.04L160.7 121.09L160.39 121.25L160.28 121.04L160.01 120.98L159.34 121.41L158.81 122.54L158.62 122.74L158.23 122.81L158.21 123.16L157.78 123.64L157.86 124.06L157.49 124.94L157.78 125.44L158.37 125.33L158.69 125.68L159.06 125.66L159.3 125.97L159.4 127.41L159.85 128.26L159.77 128.9L159.98 129.37V129.9L161 129.71L161.9 129.95L162.66 129.29L163.13 129.06L163.6 129.05L163.89 128.39L166.31 127.22L166.67 128.34L166.25 128.92L165.81 129.18V129.85L165.26 130.8L165.55 131.25L165.51 131.73L165.09 131.81L165.28 133.27L165.65 133.37L165.44 134.46L165.67 134.52L166.39 135.26L166.78 136.29L167.28 136.72L167.56 138.62L167.53 139.81L167.94 140.82L169.62 141.12L170.41 141.81L171.01 142.79L172.33 143.63L172.56 143.92L172.77 144.87L173.19 144.82L173.59 145.26L173.93 145.4L174.12 146.09L174.35 146.23L174.69 145.9L175.01 145.83L175.77 146.49L175.74 146.75L174.83 147.41L174.38 147.94L174.15 149.24L173.8 149.55L172.81 150.33L172.31 150.22L171.92 150.54L170.11 151.21L168.26 151.35L168.12 151.53L167.23 155.41L166.52 157.63L166.63 158.41L167.3 159.33L167.05 160.14L166.09 160.88V161.27L166.8 162.82L166.41 163.63L166.2 164.94L165.88 164.97L165.49 164.69L159.6 168.96L159.03 168.93L158.81 169.25L158.85 169.88L158.35 170.66L157.65 171.21L157.33 173.01L156.87 173.61L156.02 173.92L155.66 173.82L155.45 174.21L155.59 174.45L155.41 174.67L155.06 174.95L154.06 175.23L152.54 178.23L152.15 180.49L150.69 182.79L149.91 185.15V186.06L147.49 184.91L145.63 184.41L144.41 184.5L140.82 186.22L138.97 186.5L138.17 186.47L137.1 185.82L137.59 184.26L137.66 182.68L137.4 181.77L137.04 181.24L134.78 181.38L134.33 181.87L134.16 182.47L132.89 182.76L130.8 181.43L127.68 178.17L127.16 178.1L125.69 179.7L125.58 180.27L126.02 180.84L125.72 181.84L122.41 183.87L121.23 184.7L120.53 185.42L118.78 185.96L118.46 185.93L116.48 184.36L114.55 183.69L113.51 183.67L112.06 184.23L108.37 187.75L107.76 188.09L107.35 188.15L105.9 187.55L106.55 185.27L106.08 181.61V180.79L106.36 179.71L106.33 178.99L104.97 176.56L104.57 174.96L104.09 174.89L104.16 175.69L103.59 176.53L104.02 176.88L103.92 177.33L102.98 177.5L102.68 177.83L101.44 178.6L101.27 178.13L100.36 177.33L99.62 176.76L99.19 176.69H97.71L94.66 178.44L93.44 178.97L92.47 179.27L90.99 179.47L88.81 177.93L87.41 178.17Z" fill="black"/>
<path d="M212.56 84.34L214 85.91L214.74 87.14L214.72 87.57L214.11 88.49L211.4 90.94L210.4 90.52L210.1 90.53L210.57 90.97L210.78 91.68L210.69 93.85L210.84 94.45L211.64 95.36L213.94 96.95L215.39 98.41L220.32 101.31L220.85 102.66L222.17 103.27L222.76 103.18L223.36 103.36L226.46 106.02L226.81 106.94L227.57 107.83L228.74 108.3L229.01 108.27L230.26 108.68L230.44 108.84L230.51 109.79L229.95 110.59L229.22 111.28L226.8 112.95L224.76 112.18L221.79 112.46L219 112.21L215.92 111.63L214.29 110.89L213.59 110.17L212.92 108.37L212.25 107.8L211.44 107.4L211.2 107.49L211.17 107.93L213.57 112.03L213.66 112.77L213.43 113.14L213.05 113.21L212.71 113.11L211.96 112.41L211.38 112.31L209.79 112.82L208.59 113.99L208.23 114.76L208.22 115.67L206.51 119.2L205.6 119.86L204.79 121.59L204.08 123.69L203.84 124.92L204.28 126.15L204.75 126.57L204.9 127.26L204.71 127.69L204.08 128.36L203.29 130.83L203.3 131.3L203.9 132.58L203.45 135.7L206.02 134.03L206.47 133.89L206.68 133.98L206.75 134.25L205.69 137.84L206.51 139.61L206.54 140.05L206.4 140.27L203.61 141.51L201.47 141.39L200.77 140.56L200.35 140.82L200.21 141.62L198.26 143.97L196.21 147.31L195.83 147.64L194.43 148.26L192.59 148.59L191.27 145.62L191.58 144.5L191.5 144.3L191.26 144.36L190.78 145.65L190.79 146.19L191.49 146.89L192.08 148.2L191.53 150.2L189.28 150.98L187.78 152.03L187.65 152.19L187.74 152.95L188.23 153.74L188.12 154.22L187.79 154.62L185.42 155.56L183.76 156.37L182.33 157.27L182.45 157.58L182.98 157.85L183.68 157.7L184.27 157.23L185.09 157.05L185.81 157.13L186.16 157.34L186.42 159.58L186.38 161.85L185.99 162.34L184.9 162.72L184.65 163L185.97 163.28H186.78L187.19 162.88L187.53 163.62L187.48 163.96L188.9 164.34L188.79 165.73L188.09 168.2L186.76 167.59L185.66 167.3L182.96 167.27L181.68 166.85L178.95 166.7L178.56 166.63L178.03 166.14L177.49 166.63L176.71 166.92L176.61 167.23L176.22 167.59L175.68 167.76L175.4 167.23L175.43 166.21L174.72 164.48L174.9 162.96L175.26 162.4L175.11 162.15L174.51 161.9L174.01 162.04L173.66 161.76L173.48 161.8L173.69 161.2L173.41 160.88V160.46L173.73 159.75L173.8 159.04L173.66 157.17L173.3 156.43L172.81 155.87L172.7 155.37L172.84 155.06L172.13 154.49L171.99 154.17L172.13 153.47L171.85 153.08L171.24 152.97L170.64 153.22L170.46 152.87L170.53 152.52L171.17 151.95L171.6 151.28L172.42 150.58L172.74 150.65L172.59 151.42L172.84 151.49L173.91 150.22L174.16 149.23L174.15 149.24L174.38 147.94L174.83 147.41L175.74 146.75L175.77 146.49L175.01 145.83L174.69 145.9L174.35 146.23L174.12 146.09L173.93 145.4L173.59 145.26L173.19 144.82L172.77 144.87L172.56 143.92L172.33 143.63L171.01 142.79L170.41 141.81L169.62 141.12L167.94 140.82L167.53 139.81L167.56 138.62L167.28 136.72L166.78 136.29L166.39 135.26L165.67 134.52L165.44 134.46L165.65 133.37L165.28 133.27L165.09 131.81L165.51 131.73L165.55 131.25L165.26 130.8L165.81 129.85V129.18L166.25 128.92L166.67 128.34L166.31 127.22L163.89 128.39L163.6 129.05L163.13 129.06L162.66 129.29L161.9 129.95L161 129.71L159.98 129.9V129.37L159.77 128.9L159.85 128.26L159.4 127.41L159.3 125.97L159.06 125.66L158.69 125.68L158.37 125.33L157.78 125.44L157.49 124.94L157.86 124.06L157.78 123.64L158.21 123.16L158.23 122.81L158.62 122.74L158.81 122.54L159.34 121.41L160.01 120.98L160.28 121.04L160.39 121.25L160.7 121.09L161.43 121.04L161.6 121.06L161.94 121.54L162.09 121.22L163.28 120.39L163.48 120L163.53 119.29L162.88 118.72L162.56 118.07L161.83 117.21L161.27 116.05L160.98 114.44L160.59 113.74L160.14 113.37L159.63 113.23L158.83 113.98L158.79 114.21L159.09 114.69L158.62 114.57L158.42 114.15L157.89 113.82L157.5 114.06L157 113.99L156.18 114.59L155.86 114.45L155.31 114.55L154.82 115.2L153.93 115.84L153.14 115.87V116.5L152.93 116.89L151.93 116.92L151.26 117.37L151.32 118.04L151.11 118.1L150.41 117.98L149.9 117.55L149.17 117.37L147.62 117.55L147.2 117.37L147.1 116.95L146.47 116.62V116.41L146.8 116.08L146.47 115.11L145.74 114.66L145.44 114.78L145.08 114.69L143.8 115.35L143.26 115.26L142.56 115.5L142.32 115.44L142.07 115.62L141.65 115.29H141.16L141.04 115.05L141.22 114.51L141.89 114.24L142.07 113.88L142.01 113.06L142.53 112.43V112.13L141.95 111.65L141.68 110.95L141.77 110.68L142.29 110.17L142.47 109.66L142.35 109.23L142.01 108.93L142.1 108.57L142.77 108.42L143.07 108.18L143.17 107.52L143.68 107.09L144.38 107.03L144.68 107.18L145.23 106.82L145.74 106.91L146.05 106.61L146.26 105.92V105.23L146.59 104.8L146.38 104.62L146.5 102.9L147.32 102.48L147.69 102.33L147.93 101.88L148.63 101.79L150.21 101.12L150.78 100.58L153.36 102.09L153.76 101.97L153.97 101.54L154.76 101.96L155.01 102.42L155.63 102.93L157.22 103.39L158 104.26L158.2 105.28L158.41 105.54L159.23 105.08L159.95 105.18L160.47 105.39L160.78 105.79L160.93 106.41L161.34 106.87L161.8 107.07L162.47 107.12L163.35 106.15H164.69L165.25 106.41L166.02 106.51L166.85 105.59L167.88 105.79L168.65 104.87L169.16 104.62L169.42 103.03L169.83 102.62L171.79 102.68L174.1 101.81L176.42 101.76L177.45 100.89L178.01 99.71L178.89 98.94L180.48 96.8L181.77 94.34L181.46 93.17L181.56 92.5L182.03 91.94L183.11 91.38L183.36 90.71L184.03 90.3L184.19 89.48L184.24 87.28L184.44 86.57L185.27 85.19L185.63 84.93L185.94 83.6L186.19 83.29L186.71 83.24L187.27 83.81L188.05 84.11L188.35 84.42V84.83L188.97 85.14L189.69 85.08L190.72 84.78L192.47 83.65L194.73 82.88L196.74 81.71L198.03 81.66L199.47 81.96L201.06 81.55H201.94L202.45 82.68L203.07 83.14L204.36 83.75L204.87 83.86L205.95 83.6L206.41 83.91L207.55 85.29L208.93 85.8L209.3 85.85L210.58 85.08L211.87 84.93" fill="black"/>
</svg>
