<svg width="187" height="51" viewBox="0 0 187 51" fill="none" xmlns="http://www.w3.org/2000/svg">
<path d="M155.03 42.44L155.74 42.36L155.86 42.52L154.67 43.92L154.3 44.05L154.43 44.23L155.43 44.37L155.64 45.19L155.16 45.78L154.22 45.75L153.63 46.04L153.34 46.4L152.57 46.69L152.39 47.03L152.46 47.39L152.09 48.25L151.83 48.16L151.46 48.4L150.98 48.07L150.59 48.02L150.09 48.3L149.74 48.79L147.98 48.88L147.41 49.29L147.75 49.63L147.46 50.16L147.08 50.17L146.96 49.87L146.5 49.91L146.42 49.75L145.82 49.9L145.7 50.27L145.2 49.97L145.11 49.48L145.25 48.68L144.79 47.8L144.92 47.43L145.77 47.06L146.42 47.02L147.05 46.69L147.78 46.8L148.15 46.58L148.93 46.49L150.34 45.12L150.85 45.16L151.33 44.84L151.55 44.19L151.99 44.22L151.92 43.82L152.75 42.94L154.48 42.16L154.68 41.33L155.29 41.96L154.96 42.2L155.03 42.44ZM130.18 41.4L130.89 41.52L131.05 41.7L130.86 43.02L130.56 43.37L129.98 43.55L129.41 44.15L128.67 44.61L128.06 44.71L127.55 44.46L126.56 44.55L125.46 43.88L128.07 42.42L128.29 41.59L128.7 41.34L129.37 41.12L130.18 41.4ZM156.35 36.6L156.88 36.49L156.97 36.94L156.19 37.2L156.07 37.58L155.67 37.8L155.5 37.79L155.49 37.46L155.05 37.42L155.06 37.83L155.34 37.97L155.48 38.31L155.39 38.6L155.52 38.94L155.09 38.88L155.2 39.16L155.4 39.23L155.29 39.65L154.89 39.64L154.75 39.17L154.56 39.12L154.18 39.19L153.93 39.67L153.78 39.69L153.53 39.25L153.6 38.72L153.45 38.46L153.88 37.88L154.4 37.61L154.92 36.74L155.07 36.16L156.06 35.77L156.28 36.1L156.35 36.6ZM96.67 23.14L97.04 23.39L97.51 24.26L97.93 24.63L98.42 24.78L99.43 24.56L99.7 24.68L100.09 25.28L100.21 25.75L100.28 26.96L100.67 27.46L101.36 27.51L101.73 27.96H101.93L102.64 27.56L104.36 27.14L104.83 27.69L104.9 28.11L106.6 28.98L106.9 29.85L108.08 32.06L109.09 32.41L110.15 33.03L110.64 33.73L110.98 34.8L110.76 35.6L110.07 36.2L109.6 36.27L108.98 37.21L108.12 37.78L107.5 37.8L107.08 38.15L106.05 37.95L105.56 38.07L104.65 38.54L104.58 38.89L104.33 39.16L104.01 39.18L103.22 38.73L102.65 38.18L101.2 38.23L100.49 38.11L100.07 38.21L98.96 37.71L98.22 36.99L97.85 36.87L97.11 35.97L96.67 35.87L96.52 35.72L96.69 35.37L96.44 34.75L95.4 33.56L94.73 33.36L94.66 33.04H94.19L94.14 32.57L92.86 32.37L92.59 32.44L92.29 31.99L91.07 31.18L90.82 30.88L90.57 30.13H90.25L89.94 30.36L89.72 29.99L89.23 29.79L88.02 29.62L87.18 29.32L86.24 29.72L85.97 30.22L84.96 29.7L84.59 29.8L84.37 29.45L82.82 29.33L82.25 29.43L82.13 29.28L80.13 28.61L79.71 28.31L78.7 26.94L78.03 26.44L77.71 25.89L78.35 24.8L78.92 24.25L79.59 23.85L81.04 23.5L82.17 22.83L82.46 22.9L82.71 23.17L83.72 22.67L84.21 22.6L84.97 22.92H86.03L86.94 22.62L88.2 22.94L88.99 22.42L90.02 22.4L90.76 22.92L91.76 23.14L92.1 23.07L92.69 23.32L93.28 22.77L94.46 22.05L95.03 21.21L95.23 21.16L95.77 22.18L96.67 23.14ZM181.78 15.62L181.98 15.7L181.68 16.33L181.67 16.85L181.9 17.21L182.41 17.46L182.86 17.45L183.53 16.93L184.14 16.76L184.46 16.42L184.74 15.79L185.15 16.24L185.41 16.29L186.02 16.8L186.04 17.65L185.78 18.54L185.93 19.29L185.24 19.37L184.6 19.75L184.57 19.89L183.85 19.33L182.81 19.35L182.53 19.92L182.48 20.31L182.74 21.39L183.71 22.06L183.75 22.64L184.23 23.2L184.39 24.39L183.48 25.04L182.71 25.9L182.54 27.54L182.01 28.1L180.9 28.56L180.39 29.01L178.93 30.87L178.32 31.89L177.65 32.14L176.85 32.93L174.96 34.03L174.31 35.42L172.89 36.49L172.32 36.75L171.84 36.76L168.42 36.47L167.94 36.56L167.48 36.75L166.97 37.26L166.81 37.7L166.03 38.17L165.75 38.54L164.74 38.67L163.55 39.21L163.3 39.52L162.01 39.92H161.24L160.34 40.14L159.8 39.88L159.5 39.89L158.79 40.24L158.52 39.89L157.55 39.51L156.19 40.02L156.23 39.49L156.46 39.3L156.84 38.48L156.71 37.79L157.29 37.57L157.36 36.91L158.85 36.28L159.46 36.24L160.01 35.86L161.01 35.48L161.5 34.62L161.3 34.34L160.29 33.99L159.99 34.11L159.4 34.01L158.98 34.19L158.75 34.54L158.45 34.45L158.33 34.26L158.32 32.45L158.68 31.98L158.96 31.88L159.29 31.97L159.69 31.49L159.8 30.42L159.35 29.76L159.84 29.56L160.03 29.21L160.07 28.57L159.84 27.41L161.04 26.17L161.81 25.86L161.96 25.26L162.26 25L162.45 25.02L162.93 24.63L163.55 24.43L163.88 23.83L164.42 23.65L164.51 23.31L164.9 23.03L165.09 22.6L165.42 22.33L166.29 22.27L167.17 23.46L167.63 23.44L167.89 23.76L168.3 23.65L168.5 23.17L169.2 22.75L169.41 22.79L170.24 23.6L170.49 24.21L170.35 25.07L171.56 24.79L171.79 24.29L171.57 23.84L172.12 23.16L172 22.91L172.11 22.61L172.28 22.63L172.59 22.23L173.08 22.16L173.22 21.73L173.52 21.58L173.4 21.02L173.6 20.59L173.64 20L173.83 19.76L173.8 19.45L174.25 19.57L175.1 19.48L175.98 19.17L177.49 17.96L177.57 17.4L178.36 17.31L179.32 16.61L180.39 16.37L180.91 15.92L181.78 15.62ZM92.83 13.27L92.41 13.25L92.4 12.98L92.66 12.71L92.91 12.85L92.83 13.27ZM90.62 12.99L90.57 13.14L89.97 12.9L90.41 12.68L90.62 12.99ZM89.52 10.36L89.28 10.51L89.13 10.38L88.82 10.43L88.67 10.71L88.94 10.99L88.74 11L88.33 10.59L89.39 9.90997L89.54 9.97998L89.52 10.36ZM90.22 9.57999L90.51 9.58997L90.5 10.2L90.69 10.89L90.79 10.68L91.26 10.64L91.28 10.4L90.95 10.05L91.35 10.2L91.52 9.73999L91.89 9.85999L92.24 9.66998L92.75 9.65997L92.98 9.83997L92.86 10.42L92.16 10.55L92.04 10.93L91.82 11.1H91.63L91.59 10.87L91.39 10.88L91.16 11.25L91.08 11.62L91.56 11.8L91.71 12.1L91.66 12.38L91.06 13.05L90.79 13.04L90.75 12.7L90.49 12.44L89.75 12.75L89.54 12.08L89.81 11.22L90.05 11.1L90.46 11.21L90.31 10.71L90.08 10.92L89.93 10.84L90.11 10.73L90.15 10.37L89.72 9.56998L90.04 9.43997L90.22 9.57999ZM137.44 6.41998L138.02 6.74997L138.13 6.54999L138.24 6.72998L138.1 7.25998L137.67 7.61996L137.1 7.45996L136.74 7.01999L136.79 6.49997L137.44 6.41998ZM87.22 6.82999L87.21 7.29999L87.39 7.40997L88.54 7.61996L88.92 7.42996L88.88 8.07999L89.03 8.33997L88.89 8.35999L88.67 8.05997L88.58 8.24997L88.75 8.50998V9.19998L88.97 9.29999L88.06 9.42996V8.94998L87.69 8.86996L87.64 9.15997L87.3 9.48999L86.93 9.51999L87.11 9.86996L87.36 9.83997L87.56 9.60999L87.61 9.73999L87.45 9.98999L87.41 10.14L87.28 10.35L86.89 10.29L86.56 10.75L86.94 11.2L86.8 11.57L87.21 11.8L86.69 12.05L86.08 11.57L85.56 11.79L85.65 11.29L86.04 10.96L86.13 10.35L86.09 10.14L85.73 9.85999L85.53 9.94998L85.77 9.44998L85.52 9.19998L85.8 8.71997L86 8.76999L86.38 8.56998V8.17996L86.57 8.13998L86.55 7.90997L86.23 7.77997L86.65 7.47998L86.62 7.27997L86.42 7.17996L86.37 6.70996L86.87 6.82999L86.93 6.38998L87.22 6.82999ZM151.02 6.41998L151.1 6.73999L150.77 7.01999L149.44 7.51999L148.98 7.49997L148.62 7.28998L147.9 7.89996L147.12 9.34998L146.66 9.61996L146.25 9.57999L145.97 9.10999L146.22 8.08997L147.3 7.50998L147.36 7.00998L147.79 6.56998L148.18 6.53998L148.57 6.76999L148.89 6.53998H150.26L150.65 6.32999L151.02 6.41998ZM126.11 4.13998L126.31 4.16998L126.53 4.65997L126.43 4.99997L126.17 5.14996L125.4 4.89996L125.23 5.02997L125.15 4.92996L125.34 4.78998L125.56 4.18997L125.87 4.04999L126.11 4.13998ZM151.91 3.09998L152.04 3.18997L152.25 2.92996L152.47 2.88998L152.83 3.19998L153.45 3.24997L154.04 3.56998L153.75 4.03998L153.52 4.11996L153.58 5.13998L153.3 5.73999L152.34 5.85999L151.29 5.67996L149.42 6.11996L149.01 5.95996L148.24 6.10999L148.19 5.38998L148.8 4.32999L150 3.63998L150.68 3.04999L151.34 3.13998L151.77 2.87997L151.91 2.91998V3.09998ZM170.08 5.06998L169.24 6.11996L169.09 7.18997L167.75 8.42996L166.72 8.57999L166.49 8.41998L166.69 7.60999L166.14 6.30997L165.34 6.26999L164.66 6.76999L164.65 6.93997L164.09 6.77997L164.08 6.56998L164.56 6.02997L164.89 5.04999L166.52 4.11996L167.03 4.41998L167.07 5.08997L167.24 5.23999L167.63 5.12997L168.27 4.45996L168.46 3.99997L169.12 3.61996L169.84 2.39996L170.26 2.04999L170.9 2.03998L171.13 2.22998L171.22 2.61996L170.78 3.43997L170.86 4.41998L170.67 4.76999L170.08 5.06998ZM162.81 2.59998L163.81 2.71997L164.25 3.34998L162.78 3.89996L162.15 3.73999L161.43 4.01999L161.05 4.49997L160.98 4.96997L160.39 5.56998L160.32 5.88998L159.92 6.36996L159.56 6.32999L159.59 6.07999L159.44 5.99997L159.01 6.00998L158.47 6.58997L158 6.82999L157.85 7.20996L158.23 7.68997L158.34 8.18997L157.81 8.80997L157.23 8.76999L156.95 8.06998L156.74 7.97998L156.02 8.29999L155.55 9.02997L155.16 9.13998L154.38 8.82999L154.18 8.42996L153.66 8.14996L153.25 8.49997L152.37 8.36996L152.18 8.60999L151.83 8.30997L151.86 7.88998L152.24 7.87997L153.52 6.80997L153.95 5.95996L154.77 5.68997L154.98 5.45996L155.76 5.32999L156.35 4.90997L155.61 4.15997L155.19 4.08997L154.21 4.25998L154.81 3.52997L155.26 3.32999L155.54 3.56998L156.18 3.64996L156.66 3.16998L157.24 3.05997L157.87 3.14996L157.99 3.23999L157.75 3.48999L157.63 3.95996L156.88 4.81998L156.84 5.08997L157.78 5.40997L158.49 4.84998L158.48 4.52997L158.17 4.37997L158.16 3.94998H158.66L158.59 4.29999L158.67 4.45996L159.25 3.95996L159.08 3.25998L158.7 3.12997V2.80997L159.4 2.71997L159.63 2.83997L159.59 3.23999L160.3 3.38998L160.43 3.23999L160.31 2.77997L161.83 1.84998L162.81 2.59998ZM174.52 1.07999L175.96 1.17996L175.78 1.50998L175.76 2.19998L176.01 2.35999L176.84 1.85999L178.52 1.53998L179.85 1.79999L181.31 1.82999L182.08 1.46997L182.92 1.64996L183.56 1.49997L184.49 1.54999L185.19 2.93997L185.11 4.07999L185.23 4.58997L184.85 4.91998L183.93 5.16998L180.93 5.28998L179.36 5.89996L178.28 5.96997L176.92 5.80997L175.85 6.49997L174.97 6.69998L174.71 6.38998L174.15 6.25998L172.94 6.96997L172.78 6.93997L172.71 6.62997L171.83 6.72998L171.44 6.34998L171.47 5.99997L171.57 5.68997L172.52 4.54999L172.57 4.16998L172.98 4.03998L173.77 3.39996L174.41 3.31998L174.95 2.98999L174.79 2.85999L174.13 2.97998L172.54 3.76999L172.62 3.28998L172.45 2.90997L173.41 1.61996L173.76 1.24997L174.52 1.07999ZM146.99 0.819977L147.77 1.32999L147.8 1.76999L147.6 2.32999L147.88 2.65997L147.93 3.25998L148.61 3.94998L148.63 4.35999L147.92 5.03998L147.63 5.08997L146.96 4.70996L146.75 4.77997L146.17 5.62997L146.4 6.19998L146.28 6.79999L145.82 6.86996L145.3 6.50998L144.68 6.33997L144.52 6.48999L144.63 7.35999L145.51 8.28998L145.56 8.88998L145.35 9.25998L144.47 9.59998L143.63 9.58997L143.52 9.99997L143.31 9.83997H142.48L141.64 10.36L141.37 10.28L141.13 10.48L140.65 10.55L140.07 11.29L138.1 11.94L137.34 12.02L136.81 11.82L135.73 12.08L135.02 11.85L134.33 11.97L133.98 11.65L132.93 11.69L132.49 11.82L132.19 12.25L131.97 12.29L131.47 12.79L129.58 13.46L128.62 13.48L128.4 13.78L127.21 14.26L126.34 14.19L125.82 13.78L125.3 13.71L125.11 13.85L125.17 14.3L125.02 14.65L124.77 14.72L124.46 14.58L124.78 13.55L124.18 13.31L123.69 12.91L122.95 13.06L120.43 12.74L120.19 12.78L120.02 13.38L120.08 14.23L119.65 14.65L119.08 14.82L118.37 14.43L117.01 14.57L116.72 14.42L115.14 15.02L114.22 15.63L113.79 15.61L112.32 15.12L111.4 14.37L111.12 13.57L110.88 13.48L110.07 13.66L109.73 14.41L109.27 14.53L108.32 14.14L107.51 14.08L106.62 13.18L104.02 13.2L103.24 13.34L103 13.21L101.77 13.84L101.47 13.66L101.18 13.82L100.03 13.52L99.22 12.68L98.89 12.63L96.66 13.24L95.79 13.36L95.37 13.27L95.01 13.65V13.97L94.8 14.04L94.38 13.91L94.51 13.64L94.35 13.55L94.36 13.09L93.56 13.02L93.41 12.71L92.89 12.27L92.83 11.9L92.84 11.65L92.93 11.3L92.83 11.07L93.06 10.61L93.07 9.48999L92.85 9.38998L92.94 9.05997L93.42 8.53998L93.37 8.38998L93.87 8.21997L94.19 7.84998L94.27 7.29999L93.93 6.85999L93.86 6.46997L94.28 6.42996L94.32 7.00998L94.62 7.06998L94.73 7.23999L95.21 6.91998L95.45 6.92996L95.85 6.50998L96.35 6.97998L96.59 6.61996L96.34 6.47998L96.36 6.23999L96.71 5.67996L97.22 5.71997L97.46 5.54999L97.67 5.55997L97.81 5.98999L98.03 6.16998L97.85 6.52997L98.23 6.56998L98.44 6.17996L98.45 5.17996L99.08 5.46997L99.33 5.03998H99.48L99.81 4.29999L100.05 4.33997L100.54 4.18997L100.78 3.93997L101.27 3.89996L101.98 3.86996L102.76 4.06998L103.47 3.81998L103.54 3.34998L103.73 3.17996L104.19 3.55997L104.18 3.88998L104.58 4.12997L105.43 3.79999L105.94 4.08997L106.66 4.09998L106.83 3.87997L106.59 3.60999L106.7 3.40997L107.45 3.75998L108.18 4.64996L108.67 4.60999L109.1 4.98999L110.27 4.83997L111.17 5.12997L112.32 5.11996L112.85 4.93997L113.35 5.00998L113.32 5.35999L113.45 5.48999L113.95 5.45996V5.81998L114.16 6.20996L114.87 6.10999L115.52 6.38998L116.15 6.42996L116.53 6.68997L116.96 6.60999L117.71 7.06998L118.49 7.16998L118.98 7.37997L119.73 8.58997L120.95 9.14996L121.8 8.69998L122.05 9.00998L122.38 9.13998L122.59 9.66998L123.1 9.06998L123.71 8.86996L123.46 8.64996L123.45 8.29999L123.62 8.23999L124.27 8.65997L124.05 8.22998L124.15 7.40997L124.36 7.18997L124.8 7.29999L124.77 7.65997L125.17 7.54999L125.41 7.86996L126.27 7.55997L127.16 7.64996L127.44 7.83997L127.95 7.63998L128.24 7.32999L128.52 7.54999L129.41 7.58997L129.69 7.41998L130.23 6.67996L130.17 7.17996L130.68 6.73999L131.17 6.61996L131.4 6.67996L131.13 7.48999L131.22 8.15997L132.14 8.04999L132.43 8.40997L132.74 8.15997L133.7 8.60999L134.91 9.81998L136.06 10.1L136.66 9.71997L137.19 9.61996L138.69 9.45996L139.11 9.55997L139.87 8.50998L139.83 8.11996L139.22 7.57999L139.44 7.23999L140.56 6.91998L140.86 6.44998L141.18 6.35999L141.32 5.80997L141.59 5.87997L141.88 5.60999L142.41 5.75998L143.61 5.21997L144.16 5.31998L144.92 4.20996L146.03 4.08997L146.39 3.85999L146.75 2.73999L147.18 2.47998L146.57 2.13998L145.94 2.12997L145 2.43997L144.59 3.11996L143.61 2.92996L143.58 2.79999L144.05 2.39996L144.47 1.65997V0.889984L145.29 0.679962L145.91 0.149963L146.99 0.819977Z" fill="black"/>
<path d="M20.05 12.98L19.53 12.91L18.47 12.32L17.64 11.65L17.77 11.28L18.4 10.71L18.68 10.63H19.67L19.95 10.79L20.57 11.94L20.56 12.22L20.05 12.98ZM0.829987 0.540009L1.22 0.720001L1.54999 1.29001L1.88 1.39001L2.54999 1.02002L5.82999 1.95999L7.73999 2.29001L9.47998 2.12L10.15 1.89001L11.82 0.420013L12.74 0L13.08 0.0800171L17.64 1.78L19.51 2.95001L20.78 4.59L22.08 5.29001L22.22 5.64999L22.15 5.99002L21.85 6.39999L20.51 7.54001L18.56 8.53L17.59 8.86002L16.65 8.94L15.45 9.51001L14.45 10.45L14.49 11.2L13.15 11.99L13.68 12.66L13.8 12.28L14.02 12.99L13.66 13.5L12.59 13.8L11.63 13.68L11.44 13.34L12.24 12.7L12.85 12.44L12.61 11.99L12.89 11.36L12.54 10.86L11.14 9.39001L8.57001 7.14999L7.85001 6.74002L6.25 6.12L4.82999 5.85001L2.69998 5.97L0.269989 2.89001L0 1.02002L0.130005 0.589996L0.829987 0.540009Z" fill="black"/>
<path d="M83.82 5.93997L83.94 6.25998L84.61 5.95996L84.57 6.11996L84.86 6.45996L84.59 6.86996L84.26 6.63998L84.12 6.95996L83.93 7.02997L83.78 6.86996L83.63 5.91998L83.82 5.80997V5.93997ZM39.66 5.32999L39.71 5.72998L39.53 6.02997L39.46 6.72998L38.89 7.23999L38.47 8.94998L36.87 11.33L36.65 11.91L35.88 12.89L35.78 13.47L36.43 13.49L36.93 13.84L37.3 13.92L36.83 14.55L36.21 14.75L36.11 14.57L35.88 14.6L35.43 14.9L34.81 14.88L35.28 13.4L34.43 13.58L34.03 13.96L34.13 14.49L34.03 15.52L33.63 15.49L33.46 15.14L32.29 14.74L31.92 14.87L30.8 14.69L30.53 14.92L30.13 14.82L29.98 14.07L29.68 14.02L28.81 14.2L28.56 14.43L28.16 14.35L27.89 14.12L27.67 14.17L27.54 14.55L27.24 14.63L26.64 14.2L26.09 13.55L25.71 13.63L25.26 13.43H24.64L24.29 13.03L24.09 12.4L24.49 11.65L24.84 11.57L24.91 11.95L25.68 12.38H25.98L26.55 11.8L26.97 11.75L27.42 12L27.69 11.8V11.62L28.01 11.64L28.26 11.39L28.41 9.77997L28.36 8.19998L27.81 7.65997L27.64 6.87997L28.09 6.22998L28.91 5.74997L29.01 5.24997L29.31 5.34998L29.36 5.19998L30.33 4.76999L30.83 3.98999L31.73 3.28998L33.38 2.68997L34.5 2.78998L35.3 3.03998L35.75 3.33997L38.15 3.88998L39.55 5.01999L39.66 5.32999ZM54.71 1.64996L55.86 1.57999L56.3 1.82999L56.39 2.03998L55.13 2.95996L54.29 4.79999L53.59 5.74997L52.59 5.11996L53.2 3.87997L53.01 3.49997L52.77 3.48999L52.87 2.91998L52.78 2.25998L53.36 1.78998L54.1 1.46997L54.71 1.64996ZM80.24 3.43997H79.55L79.06 3.03998L79.02 2.13998L79.34 1.58997L79.85 1.21997L80.64 1.29999L81.03 1.69998L81.18 2.22998L80.92 2.92996L80.51 3.38998L80.24 3.43997ZM60.99 0.779968L62.11 0.649963L62.51 0.849976L62.96 0.769989L64.26 1.26999L64.31 2.11996L64.63 3.14996L65.15 3.69998L65.37 3.74997L65.75 4.69998L66.95 5.32999L67.27 5.34998L67.65 4.99997L68.32 4.79999L68.62 4.14996L69.69 3.26999H70.39L70.67 3.54999L71.54 3.57999L73.09 4.05997L73.61 4.90997L73.69 5.43997L73.56 6.99997L73.16 7.59998L73.24 8.02997L73.86 7.82999L74.08 7.42996L74.21 6.62997L73.94 6.22998L73.99 5.79999L74.44 4.94998L74.77 4.54999L75.79 3.81998H76.21L76.38 4.04999L77.4 3.96997L79 4.36996L78.83 5.04999L78.91 5.49997L79.86 6.92996L79.91 7.87997L79.37 8.12997L79.43 8.49997L79.27 8.70996L79.66 9.32999L79.63 10.12L79.91 10.3H80.32L80.72 10.02L81.26 9.91998L80.9 9.35999L81.29 9.40997L81.54 9.25998L81.62 8.90997L81.94 8.70996L82.27 9.20996L82.14 9.88998L81.81 10.34L81.96 11.47L81.31 12L80.96 11.9L80.63 12.03L79.73 11.73L78.53 11.96L78.01 11.31L77.41 10.91L76.94 11.11L76.79 11.46L76.54 11.51L75.74 11.26L75.12 11.31L74.95 11.13L74.57 11.33L74.37 11.71L73.84 11.96L73.94 12.09L74.46 12.32L77.21 12.3L78.01 12.75L78.18 13.2L77.78 13.53L76.41 13.71L75.94 13.58L75.17 13.08L74.32 12.88L73.1 13.11L70.88 14.14L69.81 14.39L68.56 13.91L68.23 13.18L68.34 12.54L68.99 11.74L69.07 11.39L68.92 11.11L69.17 10.68L69 10.2L68.72 9.79999H68.57L68.47 9.97998L68.54 10.53L68.69 10.63L68.56 10.91L68.26 11.11L67.84 10.98L67.46 11.56L66.81 11.86L66.68 12.39L66.21 12.5L64.84 13.88L63.92 14.26L63.1 13.66H62.8L62.53 13.89L61.8 13.94L61.48 14.54L60.98 14.79H60.63L59.56 15.42L58.94 15.19L58.76 14.99V14.69L58.11 14.89L57.96 15.17L57.44 15.2L57.14 14.95H56.84L56.37 15.08L53.97 16.44L51.6 17.24L50.3 17.32L48.65 16.77L47.65 16.82L46.68 17.83L45.01 18.23L44.01 17.88L43.69 17.48L43.04 17.35L42.67 17.6L40.75 16.87L39.96 16.39L39.66 15.89L39.89 15.59L39.94 15.21L39.81 14.98L39.98 14.13L40.31 14.08L40.53 13.85L40.45 13.45L41.22 13.3L41.07 12.75L40.42 11.77L40.69 11.54L40.27 10.54L40.94 9.12997L41.41 8.99997L41.51 8.79999L41.29 7.96997L41.76 8.29999L43.34 8.04999L45.66 6.46997L46.33 5.58997L46.83 5.43997H47.13L48.1 6.03998L48.33 5.98999L51.28 7.18997L51.48 6.70996L51.93 6.30997L52.55 6.07999L53 6.22998L54.17 6.09998L54.42 6.37997L54.82 6.39996L55.29 6.87997L55.91 6.82999L56.23 7.77997L56.08 8.02997L55.46 8.20996L55.38 8.38998L55.56 8.63998L56.03 8.86996L56.93 8.78998L56.61 7.48999L57.01 7.35999L57.38 8.30997L57.93 8.32999L57.98 8.77997L57.18 8.85999L57.5 9.23999L57.4 9.83997L57.72 11.05L58.02 11.5L59.52 11.2L60.82 11.75H61.17L62.64 10.54L64.01 10.24L64.68 10.32L65.05 10.67L66.62 10.04L66.42 9.28998L66.04 9.18997L65.91 8.83997L65.34 8.68997L65.19 8.93997L64.84 8.35999L64.22 7.97998L63.92 7.47998L63.55 7.57999L63.05 6.84998L61.38 7.04999L58.46 5.18997L57.66 4.15997L56.74 3.32999L56.57 2.97998L56.89 1.97998L58.04 1.14996L58.74 1.19998L60.44 0.399963L60.99 0.779968Z" fill="black"/>
</svg>
