<svg width="289" height="203" viewBox="0 0 289 203" fill="none" xmlns="http://www.w3.org/2000/svg">
<path d="M159.93 118.32L160.69 119.22L155.69 116.98L155.53 115.83L156.04 116.02L157.28 116.97L159.93 118.32ZM101.46 80.72L100.23 80.76L96.62 79.69L93.59 78.12L93.26 77.7L93.84 77.16L97.37 75.9L98.79 75.18L104.2 74.13L104.28 74.65L105.61 76.62L105.67 79.19L104.73 79.81L101.46 80.72ZM96.95 66.05L95.24 66.6L93.66 66.06L93.72 65.73L94.09 65.39L95.89 64.89L97.44 65.41L96.95 66.05ZM113.7 60.57L114.29 61.34L115.38 61.19L116.04 60.93L116.73 61.97L116.68 63.88L116.1 66.55L115.38 68.19L115.17 68.45L114.77 68.57L113.27 68.29L111.23 66.6L110.88 65.6L110.13 64.54L110.48 64L110.21 63.27L109.83 62.63L109.27 62.42L109.2 62.2L109.27 61.95L109.63 61.75L113.02 60.64L113.7 60.57ZM114.01 58.84L113.56 59.61L111.92 60.31L109.7 60.78L108.24 60.93L106.4 60.83L105.81 60.93L105.26 61.21L105.02 61.13L105.9 60.12L106.56 59.6L110.73 59.48L112.06 59.18L112.69 58.48H113.48L114.01 58.84ZM108.63 54.55L106.19 54.28L106.03 53.31L106.45 53L108.77 52.31L109.57 52.59L110.14 53.04L110.16 53.3L109.71 54.05L108.63 54.55ZM159.98 58.2L163.02 58.25L163.1 57.69L167.01 57.79L169.25 59.6L167.84 61.86L169.53 65.05L170.88 66.24L172.19 68.63L171.4 69.5L171.16 72.01L168.86 74.08L169.45 77.62L169.84 78.48L169.63 80.5L170.09 85.1L171.18 86.97L171.71 87.15L172.86 88.29L175.33 94.42L175.88 94.44L176.42 93.98L175.52 90.41L175.47 89.23L175.72 88.65L176.66 87.69L177.19 87.8L178.42 88.58L178.68 89.49L178.78 93.81L176.3 96.08L174.75 96.89V98.03L174.51 98.84L172.88 99.81L171.9 101.03L170.76 103.55L172.15 103.96L174.11 104.93L180.56 106.8L183.58 108.02L186.44 108.91L187.66 109.48H188.15L189.05 109.89L186.76 112.73L185.7 114.36L185.05 115.74L183.99 116.55L182.35 118.92L181.19 118.43L178.51 116.18L178.43 115.96L179.16 113.14L179.59 112.92L182.09 113.23L183.13 113.68L183.45 113.65L184.1 113.17L184.07 113L182.91 112.8L178.97 112.55L178.01 113.29L177.67 114.19L176.36 114.47L175.42 113.12L174.82 112.53L173.66 112.25L173.21 113.88L172.57 114.21L171 113.33L170.49 112.89L170.14 112.17L170.2 111.64L170.61 111.34L170.66 111.06L170.37 110.44L169.78 109.85L169.53 109.74L167.79 110.65L166.04 109.71L164.44 106.93L163.88 107.21L163.81 107.37L163.95 108.35L163.51 108.45L162.28 107.67L161.18 105.5L161.04 104.94L161.12 104.72L162.03 104.14L162.14 103.9L162.19 102.84L161.94 101.56L162.38 100.11L163.59 99.08L164.93 98.22L164.96 96.93L164.38 96.14L162.69 97.67L161.44 99.15L161.12 101.79L161.16 103.87L160.51 104L159.45 104.72L159.84 105.09L160.25 106L160.18 106.58L158.5 107.88L156.96 109.41L156.89 109.71L157.09 110.61L157.69 111.13L157.86 111.77L155.47 114.28L154.17 115.34L153.52 115.4L150.9 115.1L150.56 115.29L149.91 116.05L148.55 115.71L147.43 114.2L146.88 112.93L147.08 112.77L146.92 112.16L145.76 109.17L146.32 107.7L148.15 107.04L148.68 106.63L148.8 106.36L148.03 104.92L147.76 104.84L147.47 104.99L147 104.61L146.63 103.21L146.98 102.36L146.93 102.07L146.54 101.57L146.02 101.44L145.42 101.68L145.4 102.58L145.25 102.73L145.02 102.79L144.23 102.42L143.07 100.86L142.99 100.01L142.37 98.83L140.79 97.59L138.2 95.98L137.46 95.77H136.02L134.12 96.26L131.98 93.16L132.16 92.95L135.12 91.55L136.32 91.3L138.23 91.36L141.57 91.67L142.63 91.96L143.83 92.71L144.24 93.24L145.22 93.69L147.29 92.2L150.34 88.18L151.85 87.31L152.75 87.03L154.27 86.82L155.37 87.35L156.69 88.62L158.77 89.38L159.48 89.34L160.47 88.91L161.23 89L161.74 89.73L161.64 90.64L161.75 92L162 91.66L162.32 89.14L162.22 88.53L162.46 88.48L162.82 88.65L163.9 90.86L164.12 90.99L164.19 88.97L163.9 88.17L163.51 87.93L164.53 86.96L165.81 86.35L166.52 85.31L166.57 83.69L166.37 83.27L165.97 84.32L164.5 84.81L164.19 84.78L163.63 84.06L163.75 83.85L165.78 83.06L166.36 82.58L166.16 81.43L165.15 81.6L161.17 83.72L159.39 83.87L157.58 83.75L156.92 83.4L155.14 83.09L153.47 83.31L149.36 84.59L148.27 84.52L146.83 83.9L146.23 84.07L144.62 84.94L143.74 84.51L143.55 84.29L143.34 83.5L142.93 82.97L142.63 82.9L140.58 83.42L139.49 84.1L138.53 84.32L137.86 84.24L135.39 82.23L134.55 81.91L133.41 81.09L132.21 79.06L131.51 77.48L131.44 76.36L132.2 75.53L131.95 74.6L130.67 73.47L127.91 72.43L127.58 72.05L127.6 71.78L125.62 70.86L120.14 69.03L120.31 69.43L121.13 69.97L121.17 70.35L120.39 71L119.01 71.5L118.49 70.65L117.34 70.2L116.27 70.26L114.79 69.36L115.62 68.19L116.03 67.16L116.45 66.62L118.51 66.2L119.72 64.1L120.36 61.03L119.83 59.39L124.29 57.87L124.66 57.92L124.72 58.13L125.4 58.35L128.81 57.72L130.51 57.17L131.29 55.95L134.54 53.26L135.77 52.49L137.37 51.84L140.21 51.16L145.04 51.55L146.88 52.49L151.99 54.47L153 54.56L156.48 57.6L157.44 57.89L159.98 58.2ZM113.32 45.58L116.17 46.39L117.85 46.55L120.62 48.13L120.85 48.73L121 49.95L120.56 50.9L119.85 51.91L118.36 51.08L117.26 50.98L116.03 51.45L115.04 51.5L114.51 51.18L113.27 49.57L111.81 48.99L110.41 46.92L110.04 46.63L108.75 46.78L108.97 47.61L110.72 49.46L112.41 50.24L113.42 50.4L114.01 50.76L114.45 51.5L113.98 52.26L112.81 52.81L111.27 53.02L110.7 52.82L110.4 52.42L109.9 50.46L108.32 50.81L107.52 51.54L106.99 49.62L105.54 49.98L104.35 49.84L102.34 49.16L101.92 48.88L102.27 48.66L102.69 48.87L104.8 49.05L105.55 48.64L105.07 47.82L104 47.85L104.11 48.47L103.26 48.28L102.91 47.64L103.04 47.08L104.36 46.76H105.82L109.47 46.17L110.22 45.88L110.58 46.14L111.42 46.07L111.13 45.8L111.69 45.46L112.4 45.39L113.32 45.58ZM90.44 48.92L90.12 49.07L89.26 48.03L85.89 44.7L85.86 44.5L86.11 44.47L86.69 44.85L90.23 47.7L90.62 48.38L90.66 48.69L90.44 48.92Z" fill="black"/>
<path d="M81.11 187.8L79.55 187.73L78.08 187.01L77.92 186.68L78.97 186.3L80.33 186.37L81.36 186.88L81.42 187.4L81.11 187.8ZM60.84 184.92L62.68 185.57L64.42 185.72L65.29 185.57L65.73 185.84L65.76 186.09L64.18 187.76L63.99 187.81L60.61 186.69L60.13 186.39L59.45 185.08L60.84 184.92ZM112.05 189.28L111.38 189.33L111.37 189.1L112.96 187.38L114.19 186.71L114.78 185.72L115.68 184.73L116.01 184.64L118.53 185.45L117.9 186.07L114.74 187.29L113.66 188.06L113.51 188.5L112.36 189.24L112.05 189.28ZM94.11 184.22L92.85 183.92L90.94 181.58L90.8 181.19L90.95 180.46L91.05 180.08L91.33 179.77L92.96 179.55L95.01 180.1L95.4 180.42L95.74 181.86L94.11 184.22ZM41.39 177.47L42.2 177.48L42.63 178.82L41.22 178.88L39.54 179.39L38.64 180.03L37.67 181.22L36.2 182L33.77 181.72L31.04 181.18L30.04 181.2L27.74 181.68L25.51 183.47L25.21 183.53L25.03 183.28L25.73 180.61L28.49 177.25L32.18 178.34L34.83 177.88L36.07 176.81L37.36 176.21L39.66 175.63L39.87 175.78L39.95 176.45L41.39 177.47ZM53.06 177.12L52.8 177.25L52.46 177.18L52.22 176.77L52.59 174.77L52.95 174.54L54.64 175.09L54.7 175.35L54.57 176.05L53.06 177.12ZM116.7 174.69L115.36 174.27L115.13 173.74L115.44 173.26L115.96 173.07L118.29 172.83L118.5 172.97L117.76 173.87L116.7 174.69ZM128.24 169.45L127.51 169.76L127.13 169.69L126.52 170.19L127.19 173.46V174.17L126.34 176.73L125.34 178.03L122.38 180.21L121.39 181.81L121.33 183.07L121.13 183.41L120.67 183.65L117.79 183.37L117.31 183.13L116.89 180.83L118.71 177.69L118.48 177.18L119.53 174.33L120.73 173.33L121.2 173.15L122.11 172.29L123.34 170.8L124.7 168.4L125.46 167.99L126.76 167.85L127.74 168.34L128.24 169.45ZM131.48 167.69L132.38 169.03L132.53 169.67L132.26 170.19L132.08 170.24L131.24 169.66L130.83 168.77L129.84 168.59L128.67 168.85L128.16 168.75L128.02 168.53L128.12 168.05L128.41 167.85L131.48 167.69ZM74.87 169.44L74.38 169.61L72.87 168.67L72.64 168.26L72.7 168.05L73.02 167.69L74.24 166.95L75.63 167.71L75.71 167.91L75.31 168.9L74.87 169.44ZM182.93 154.61L182.63 154.94L182 156.39L181.9 157.05L181.27 158.27L181.01 158.04L180.55 158.11L180.48 158.51L180.65 158.97L180.95 159.14V159.54H180.62L180.29 159.74L180.16 160.43L179.5 161.45L178.97 161.95H178.67L178.11 161.52L178.18 161.06L178.68 160.6L179.01 159.81L179.08 158.98L179.48 158.39L179.18 158.42L178.95 158.12L178.62 157.23L178.72 156.73L179.38 156.27L180.11 156.01L180.08 155.28L180.25 155.05L180.94 154.72L181.24 154.19L182.23 153.4L182.76 153.43L183.06 153.73L182.93 154.61ZM146.14 147.43L145.53 147.68L144.71 147.42L144.27 146.98L144.32 145.74L144.09 143.59L143.61 142.22L143.72 141.9L144.84 141.58L146.65 145.03V146.16L146.14 147.43ZM179.99 143.04L180.09 144.06L180.49 145.15L179.86 145.28V145.58L181.18 146.24L181.15 146.57L180.98 146.83L180.58 146.93L179.82 146.6L179.79 147.1L180.19 147.36L180.26 147.59L180.19 148.02L179.93 148.15L179.57 148.08L178.94 147.58L178.77 147.71V148.01L179.7 148.67L179.9 149.03L180.46 149.36L180.82 149.95L180.46 152.26L180.16 153.18L179.5 154.3L178.24 154.96L177.74 154.86L177.51 155.06L177.87 156.05L178.4 156.38L178.33 156.88L177.24 157.87L176.35 157.61L176.02 157.78L175.79 158.34L175.89 158.67L176.39 158.5L176.36 159L175.73 160.02L175.04 160.48L173.72 162L173.69 162.66L173.19 163.29L171.14 164.18L170.84 164.51L170.38 164.46L170.02 163.57L169.69 163.27H169L168.24 161.95V161.59L168.47 161.39L168.83 159.87L169.06 156.76L169.36 156L169.33 155.57L169.63 154.58L169.5 152.83L169.07 151.31L169.73 151.24L169.3 150.05L169.53 149.49V148.99L169.96 148.63L170.13 148.8V149.13L170.39 149.16L170.89 148.86H171.39L171.49 149.52L171.69 149.69L172.02 149.59L172.48 149.13L173.01 147.81V147.61L172.51 147.31L172.54 147.01L172.71 146.71L173.24 146.31L173.31 145.98L173.71 145.65L173.97 145.02L173.9 144.79L173.6 144.66L173.1 144.96L172.37 144.37L171.54 144.27L171.04 143.74L171.11 143.41L171.74 142.72L172.73 143.35L173.09 143.38L174.38 142.39L175.01 140.74L175.77 140.24L175.84 139.61L175.64 138.75L175.81 138.29L176.7 137.07L177.33 136.9L177.69 137.1L178.65 138.75L179.15 139.18L179.18 139.51L179.61 140.17L179.64 141.29L180.47 142.35L180.4 142.85L179.99 143.04ZM149.26 146.22L147.43 148.6L147.26 148.55L147.25 148.24L148.86 143.24L149.2 142.64L149.79 142.08L152.01 136.5L152.42 136.33L152.99 136.41L153.32 137.11L151.97 141.5L151.44 142.15L150.59 142.65L149.42 144.25L149.14 145.26L149.26 146.22ZM72.59 107.44L70.51 107.85L70.38 107.72L70.64 107.14L70.63 106.16L71.16 105.77L72.37 105.89L73.29 106.8L73.27 107L72.59 107.44ZM74.33 105.79L75.15 106.08L75.51 105.43L75.77 105.46L76.06 106.24V107.43L74.62 107.65L74.4 107.56L73.2 105.88L73.17 105.57L73.39 105.36L73.65 105.34L74.33 105.79ZM69.34 107.59L68.7 108.75L67.7 109.59L65.59 110.2L65.21 110.16L67.02 108.45L67.24 108L66.96 107.88L63.3 110.16L62.55 110.11L62.13 109.58L62.1 108.74L63 107.75L64.08 107.06L66.79 106.54L67.56 105.59L68.27 105.3L68.82 105.43L69.39 105.76L69.54 106L69.34 107.59ZM57.19 103.11L55.25 102.55L54.56 101.87L55.31 101.27L56.09 101.37L57.03 102.25L57.49 102.91L57.19 103.11ZM59.62 101.2L57.88 101.19L57.28 100.69L58.49 99.59L59.32 99.46L59.9 99.92L59.86 101.05L59.62 101.2ZM46.14 99.32L48.01 100.5L48.22 101.47L47.19 101.42L46.97 101.78L47.17 102.52L47.92 103.2L48.45 103L48.76 102.67L50.76 103.33L50.35 107.46L50.01 108.09L49.47 108.25L48.81 108.07L48.09 108.25L46.54 108.89L43.96 110.27L40.96 111.2L37.76 110.06L35.58 109.05L33.16 107.42L29.73 104.17L29.26 102.87L29.12 100L29.39 99.44L30.62 98.6L31.03 98.69L31.46 99.29L32.03 99.76L32.64 99.79L33.19 99.04L33.87 98.66L36.16 98.06L41.71 97.84L43.26 98.1L46.14 99.32ZM94.61 95.24L98.48 96.78L99.7 96.84L103.98 96.46L104.64 96.63L108.32 99.24L109.03 101.05V102.42L109.3 103.33L109.75 103.85L110.96 103.81L111.79 104.01L112.43 104.65L113.25 107.04L113.18 107.66L112.58 108.51L112.33 111.05L112.48 111.86L108.78 110.41L107.77 109.35L105.01 107.74L100.44 106.2L97.97 104.94L97.41 104.2L97.38 103.35L96.59 102.72L96.19 102.59L92.1 102.28L89.75 101.95L89.46 102.27L89.58 102.81L90.31 103.67L90.5 104.23L90.25 104.8L89.78 104.92L86.12 104.01L85.07 103.93L83.44 103.31L82.69 102.85L79.81 102.97L79.49 102.71L79.65 102.32L80.34 101.7L80.38 101.03L79.69 100.54L78.81 100.41L76.89 101.62L75.42 102.99L75.17 103.46L74.15 104.32L72.15 104.76L71.68 104.74L71.03 104.47L70.54 104.05L68.78 101.44L67.31 100.45L66.69 98.09L66 98.11L65.22 98.9L64.6 100.41L64.27 102.64L63.81 103.28L63.38 103.39L62.45 105.06L62.12 106.45L61.96 106.2L61.71 105.16L62.23 104.01L62.35 102.76L61.48 101.41L61.03 100.04L63.24 98.32L66.5 94.36L70.47 94.46L73.3 94.33L78.25 94.51L80.38 94.03L81.26 93.32L81.62 93.35L81.94 93.54L82.07 93.89L82.04 95.24L82.57 95.85L83.12 96.17L84.5 95.88L86.81 94.41L87.14 94.14L87.32 93.44L87.8 93.23L89.93 93.08L91.71 93.62L94.16 94.64L94.61 95.24Z" fill="black"/>
<path d="M30.15 87.79L29.64 87.87L29.11 87.57L28.64 86.98L28.29 86.26L28.04 84.61L27.15 83.32L26.53 80.84L26.97 79.75L27.22 79.35L27.58 79.12L28.17 79.2L28.96 79.89L28.98 80.32L28.45 81.79L28.42 82.4L30.46 86.87L30.15 87.79ZM19.18 76.29L22.95 76.61L24.26 76.44L24.8 76.12L28.74 76L34.97 76.53L34.72 76.91L33.31 77.51L28.61 78.04L19.72 78.59L17.66 77.62L17.53 77.4L17.52 76.57L18.15 75.84L18.74 75.75L18.92 76.13L19.18 76.29ZM10.87 74.48L11.84 74.82L13.69 74.32L16.67 75.03L17.15 76.01L17.18 77.68L16.8 77.55L14.41 77.47L12.61 77.74L12.16 77.97L12.02 78.55L11.64 78.67L9.12997 77.85L7.94998 78.12L6.31 79.09L4.26999 79.66L3.39999 79.84L1.35001 79.9L0.019989 77.6L0 76.53L0.699982 74.38L1.17999 73.83L3.51999 73.37L5.32999 73.36L10.87 74.48ZM61.46 69.77L65.45 72.09L65.98 72.54L66.27 73.05L66.3 73.48L65.94 74.24L65.1 74.7L64.57 74.76L58.47 74.28L57.33 74.94L55.67 75.19L53.73 74.3L53.08 73.77L52.81 73.33L53.09 72.29L53.02 71.79L53.24 70.74L53.61 70.01L53.91 69.67L54.23 69.92L57.14 68.12L58.75 68.43L61.46 69.77ZM56.88 66.86L54.82 67.05L54.15 66.6V66.42L55.01 65.63L55.71 65.39L57.51 66.11L56.88 66.86ZM51.75 58.9L51.05 59.14L49.03 58.68L48.9 58.49L48.92 58L49.5 56.16L49.74 55.92L50.16 55.82L50.61 55.92L51.26 57.14L51.75 58.9ZM56.13 50.77L58.07 53.28L57.76 54.23L57.06 54.9L56.68 55.71L56.74 56.19L57.47 57.33L58.01 57.64L58.64 57.26L59.87 57.08L60.97 57.57L61.74 58.59L61.68 59.1L60.34 60.2L59.28 60.49L57.92 59.91L56.71 58.44L54.59 59.34L54.15 59.19L53.81 58.59L53.2 55.92L51.48 54.1L51.25 53.09L51.78 51.12L52.65 50.9L53.37 51.54L54.56 51.28L55.44 50.57L56.13 50.77ZM49.41 54.34L48.26 54.27L48.1 53.83L48.08 50.31L48.73 49.84L50.33 49.67L50.73 50.13L51.11 51.8L50.65 53.8L49.41 54.34ZM61.31 14.2L61.78 14.37L62.11 14.28L62.53 14.4L63.49 15.27L63.76 15.77L64.19 19.11L63.37 22.09L61.96 24.56L60.69 25.61L57.53 27.77L57.14 28.36L57.19 29.38L57.61 30.09L59.29 31.28L59.98 31.57L60.84 31.44L62.1 30.49L62.3 28.22L63.09 26.89L64.2 26.04L65.08 25.93L65.86 26.07L66.43 25.78L66.92 24.75L66.77 24.28L66.44 24.01L66.01 23.96L65.8 23.14L66.8 21.55L70.02 19.32L71.19 18.83L73.03 18.32L74.39 18.12L75.41 18.15L75.8 18.23L76.06 18.47L75.59 26.29L75.01 26.96L71.23 29.17L68.69 29.91L67.2 31.39L67.19 31.83L67.61 32.68L68.69 33.61L69.56 34.11L73.69 35.6L74.44 35.57L75.19 35.73L75.51 38.21L75.34 39.09L76 39.57L77.87 40.07L78.65 40.71L79.18 41.73L78.29 41.07L77.62 40.82L72.93 39.72L71.36 38.4L69.75 38.39L68.37 38.59L67.23 38.29L66.64 37.95L66.3 37.46L64.8 37.2L62.79 37.02L62.16 37.4L61.9 37.73L61.43 40.06L61.91 40.44L62.21 42.81L61.52 43.94L61.56 45.29L64.17 52.13L65.16 53.98L65.92 54.99L67.23 57.22L70.49 60.46L68.42 60.35L67.91 60.18L67.53 59.82L67.66 59.47L65.93 58.15L64.44 57.54L63.9 57.1L62.54 54.1L61.1 51.7L58.68 50.34L57.73 48.88L58.37 44.05L58.15 41.81L57.6 39.35L56.95 38.99L56.12 38.11L55.36 35.79L55.29 34.84L55.68 32.88L56.41 32.12L56.95 31.04L56.87 30.52L55.02 29.97L54.82 29.67L55.08 28.69L54.61 27.05L53.21 27.31L53.08 26.92L53.19 24.33L55.35 20.42L55.48 19.42L55.33 19.04L56.08 15.28L58.22 12.09L61.99 8.06998L62.65 7.50999L64.5 7.49998L64.26 8.61999L62.65 11.06L62.23 11.56L61.76 11.71L61.07 12.26L60.98 13.82L61.31 14.2ZM72.16 10.02L70.24 10.11L68.33 10.58L67.79 9.16L67.47 6.64999L67.57 5.60999L68.6 3.68999L69.55 2.50999L71.05 1.05L73.27 0L73.52 0.0499954L75.4 2.62L75.55 3.41L74.27 7.16L73.38 8.75999L72.4 9.88L72.16 10.02Z" fill="black"/>
<path d="M251.85 190.33L249.34 190.19L246.53 189.7L246.17 189.52L245.96 188.95L246.04 188.74L248.77 186.35L250.48 185.87L250.71 185.92L250.98 186.8L252.26 189.51L252.28 189.85L251.85 190.33ZM246.96 187.6L244.36 189.73L243.09 190.3L241.71 190.58L241.24 190.53L240.85 190.21L240.2 190.03L234.24 189.63L231.39 190.32L230.88 190.67L230.38 190.73L230.14 190.31L230.2 189.79L231.82 185.56L234.89 179.63L236.85 176.67L237.38 176.1L240.36 174L242.8 173.04L247.58 172.15L249.7 172.26L250.49 172.48L250.86 172.81L251.94 174.62L252.53 175.24L253.85 175.49L254.47 176.47L253.51 179.17L252.33 181.06L251.79 183.79L251.22 184.52L250.07 185.58L248.08 186.02L246.96 187.6ZM247.4 161.09L248.01 161.59L249.31 161.83L250.13 163.04L249.14 163.66L248.39 163.38L247.23 161.85L247.1 161.34L247.4 161.09ZM207.01 74.27L209.87 74.84L215.83 75.28L217.42 75.95L217.51 76.11L217.08 76.57L213.86 77.12L211.32 77.95L205.71 77.45L201.69 76.49L200.8 75.84L199.77 75.39L197.22 74.62L196.2 74.42L195.07 74.5L192.98 74.16L191.9 72.88L192.83 72.6L194 72.98L205.08 73.77L207.01 74.27ZM251.48 78.94L252.68 78.95L254.64 79.61L260.89 82.47L267.35 85.83L269.14 86.09L271.69 85.78L272.97 85.17L273.96 85.23L274.13 85.77L274.82 86.62L276.73 87.5L277.65 87.33L277.75 87.06L279.41 87.09L282.08 87.48L283.65 88.04L283.99 88.3L284.11 88.71L283.86 89.34L283.39 89.83L283.28 90.18L283.74 90.56L285.41 90.09L287.89 89.99L288.5 90.04L288.56 90.16V154.27L287.88 154.34L287.21 156.31L287.61 156.82L287.54 157.16L286.62 158.91L286.09 159.44L286.02 160.25L286.23 162.12L286.78 163.32L287.59 164.15L288.14 164.2L288.57 163.97L288.59 202.76L287.5 202.08L286.33 201.76L285.73 201.34L284.27 199.49L281.7 197.1L279.88 194.13L275.13 190.07L272.06 187.82L270.91 186.51L270.73 186.22L270.85 185.54L272.23 184.39L273.48 182.1L273.72 181.17L272.09 181.88L271.81 183.05L271.86 184.1L270.57 184.84L269.71 185.15L266.19 185.14L264.6 185.33L263.02 186.24L261.1 186.7L260.2 186.75L259.5 186.67L258.63 186.12L257.63 184.72L255.31 185.6L253.4 187L252.8 188.29L252.3 188.35L251.23 186.3L251.03 185.43L252.2 183.82L252.32 181.66L252.52 181.44L253.72 180.87L253.96 180.05L253.92 179.01L254.81 176.78L255.47 176.08L255.49 175.57L255.05 175.13L253.97 174.73L252.72 173.86L252.09 172.41L251.48 171.66L249.77 170.53L248.16 169.71L248.01 169.31L248.22 169.17L252.72 169.34L253.76 169.97L254.72 170.19L256.89 169.97L257.7 168.65L256.89 169.01L256.64 169.35L254.58 169.54L251.21 168.51L249.5 167.73L246.61 165.18L246.3 164.78L246.28 164.23L246.89 163.74L247.69 163.72L248.64 164.05L249.37 164.07L250.47 163.36L252.27 163.14L253.55 163.58L254.67 164.7L255.69 165.34L256.2 165.48L257.06 165.29L256.06 165.06L255.36 164.69L254.12 163.57L253.59 163.27L252.74 162.94L251.79 162.82L248.32 161L248.06 159.91L248.72 159.72L248.23 159.06L244.85 155.82L244.09 154.81L243.58 153.67L243.26 152.57L243.31 151.72L242.83 150.28L241.63 148.06L241.65 146.04L240.17 145.63L239.41 144.97L239.82 144.37L242.59 143.02L242.41 142.87L241.94 142.86L240.33 143.11L239.34 143.68L237.99 144.06L237.74 143.91L237.42 142.11L237.78 138.85L237.64 138.35L237.14 139.23L235.62 138.66L232.67 136.72L232.18 136.13L230.67 135.15L229.73 134.9L229.15 134.54L229.07 134.34L229.47 133.98L228.17 133.97L226.28 133.12L224.47 131.81L223.85 131.07L222.85 131.51L219.27 130.5L216.14 130.09L215.73 129.67L212.83 128.33L208.13 125.83L206.37 125.85L202.51 124.29L202.04 123.87L201.42 122.95L200.66 122.64L198.46 122.53L197.13 122.69L191.96 121.57L190.3 121.71L188.62 122.09L187.66 121.75L183.96 119.64L182.33 118.95L183.97 116.58L185.03 115.77L185.68 114.39L186.74 112.76L189.03 109.92L188.13 109.51H187.64L186.42 108.94L183.56 108.05L180.54 106.83L174.09 104.96L172.13 103.99L170.74 103.58L171.88 101.06L172.86 99.84L174.49 98.87L174.73 98.06V96.92L176.28 96.11L178.76 93.84L179.37 96.33L179.84 96.69L180.55 96.54L181.22 96.06L181.31 95.56L181.62 95.19L182.07 95.23L182.19 95.88L182.01 97.09L181.52 97.54L181.35 98.97L182.46 101.12L184.51 102.63L186.64 103.18L190.37 103.61L192.59 103.19L193.54 102.72L194.21 102.08L194.47 101.48L194.44 101.08L195.08 100.3L195.57 99.96L196.94 99.56L197.86 98.83L197.83 98.57L197.41 98.25L197.81 97.74L200.29 96.67L200.8 95.88L201.12 93.15L202.35 91.69L202.75 91.64L205.06 90.56L206.31 89.55L206.74 88.8L207.83 85.95L207.88 85.29L207.69 84.5L208.08 84.01L208.99 83.38L210.26 83.28L211.13 83.33L211.19 83.62L211.37 83.74L212.33 83.98L213.47 84.08L214.96 83.95L216.42 83.12L219.07 81.95L220.38 81.54L221.18 81.65L222.48 81.43L223.26 80.91L223.3 80.62L222.66 78.82L222.03 78.53L221.12 77.49L221.31 76.26L222.53 75.62L223.78 75.31L225.18 74.7L227.68 73.38L228.12 72.85L229.67 72.1L233.84 70.63L234.36 70.61L235.32 70.89L236.13 71.81L237.56 72.91L243.66 75.07L247.85 76.07L249.38 77.03L250.14 78.05L251.1 78.87L251.48 78.94ZM183.29 64.81L182.32 64.8L181.19 63.14L181.38 62.14L181.88 61.47L182.69 61.42L183.42 61.77L184.5 62.88L184.42 63.92L183.93 64.61L183.29 64.81ZM192.92 56.8L194.71 56.84L196.23 57.08L197.85 58.15L198.82 57.4L199.36 57.33L200.02 57.71L203.05 60.26L205.28 63.49L206.53 63.27L208.25 64.04L208.61 64.4L207.8 65.12L206.51 65.84L204.66 66.24L203.62 66.22L202.75 65.57L202.27 65.42L201.27 65.47L200.52 65.74L199.93 65.62L199.05 64.75L198.27 61.59L198.3 60.67L197.73 59.44L197.23 59.39L195.42 60.25L193.63 58.73L192.97 58.58L193.05 59.12L192.63 58.96L191.63 58.01L191.01 56.68L191.27 56.19L192.92 56.8Z" fill="black"/>
</svg>
