<svg width="142" height="205" viewBox="0 0 142 205" fill="none" xmlns="http://www.w3.org/2000/svg">
<path d="M13.91 92.46L14.02 93.36L13.8 93.92L13.81 94.87L14.06 95.76L14.22 97.15L14.31 97.4L14.69 97.32L14.72 97.83L14.17 99.04L14.22 99.59L14.03 99.97L12.48 100.16L12.29 100.53L12.84 100.34L12.95 100.58L12.38 100.91L11.73 100.99L11.74 101.25L12.23 101.88L12.55 102.09L12.9 102.03L13.28 102.59L13.92 102.52L14.49 102.06H14.85L15.61 102.5L16.18 103.05L16.1 103.32L15.55 103.88L15.84 104.73L16.88 105.71L16.8 106.34L17.19 106.47L17.63 107.23L17.3 107.63L17.19 108.17L17.59 108.44L18.21 108.35L18.76 108.59L19.07 108.47L19.12 111.23L19.26 111.57L18.9 111.78L19.14 112.67L18.12 113.13L18.38 114.03L18.25 114.36L17.53 114.45L17.4 114.81L16.93 115.24L15.16 116.52L15.12 117.82L16.64 118.55L16.93 118.87V119.72L17.2 120.25L17.36 120.44L18.28 120.61L18.84 120.94L19.04 121.3L19.14 122.08L18.91 122.67L17.66 123.59L17.45 124.32L16.73 125.11H16.23L15.18 125.53L14.43 125.24L14.1 125.99V127.01L13.9 127.89L14.17 128.22L14.27 128.84L13.97 129.54L14.47 130.71L15.06 131.37L15.01 131.75L13.96 131.71L13.29 131.96L13.08 132.54L12.83 132.75L11.95 133L11.74 132.71L11.36 132.75L10.99 133.04V133.46L11.7 134.13L11.78 135.05L12.29 136.22L12.63 138.09L10.24 137.17L9.22998 137.03L7.97 138.13L7.47 138.22L6.48999 138.07L5.06 138.36L3.53 139.04L3.06998 139.63L2.87997 139.54L1.47998 136.34L1.34998 135.57L1.31 130.97L1.56998 130.72L2.23999 127.83L2.14999 127.45L1.84998 127.16L0.899994 126.99L0.190002 127.32L0 125.79L0.379974 124.14L0.73999 123.44L1.10999 123.21L1.81 123.77H2.51999L4.25998 122.62L6.64999 120.26V119.26L6.28998 118.2L6.32999 117.39L6.56998 116.15L7.75 112.84L8.19998 112.23L8.66 111.98L9.38998 111.74L9.97 112.01L10.29 111.37L10.56 109.73L10.42 109.43L9.91 109.15L9.78998 108.91L9.31998 107.19L9.34 106.68L9.76999 105.61L9.31 103.41L9.20999 102.14L9.23999 101.89L9.89999 101.4L9.69998 100.45L9.47 100.13L9.50998 99.84L10.25 98.35L12 96.84L12.44 94.85L12.97 93.48L13.25 92.94L13.91 92.46Z" fill="black"/>
<path d="M39.53 125.6L41.16 126.02L41.74 126.28L42.19 126.82L42.58 126.96L43.28 126.39L44 126.18L44.4 126.26L44.99 127.61L44.68 128.19V128.52L44.85 128.82L45.94 129.37L47.14 129.53L47.58 129.29L48.69 128.15L50.2 127.57L52.85 128.65L54.83 129.21L55.47 128.88L56.21 129.02L57.25 128.97L57.69 129.2L58.2 129.88L59.28 130.09L59.44 130.42L59.33 131.3L59.76 131.48L60.2 132.09L60.75 131.99L61.17 133.03L61.7 133L61.87 133.15L61.76 133.36L61.89 133.79L61.01 135.01L61.2 135.78L62.52 136.18L62.87 136.54L63.38 136.74L64.09 137.9L63.94 138.31L63.58 138.46L61.76 136.64L61.15 136.28L60.4 136.27L61.12 137.56L60.7 138.82L59.52 139.29L59.49 139.68L60.32 141L61.98 142.2L64.19 143.42L64.14 143.65L64.7 144.36L64.8 144.86L65.26 145.16L66.83 145.02L67.44 145.12L67.54 145.52L67.04 145.88L66.88 146.85L67.54 147.19L67.65 147.55L67.32 147.98L67.89 149.28L68.06 149.41L70.51 149.23L70.4 148.81L69.56 148.2L69.37 147.78L69.58 147.67L70.21 147.71L70.9 148.2L71.58 149.77L71.75 150.84L71.62 153.6L70.42 154.56L69.63 154.07L67.95 152.6L67.65 152.65L67.49 152.8L67.7 153.21L68.86 154.22L69.22 154.77L69.3 155.2L69.02 155.54L68.66 155.69L68.36 155.28L67.8 155.54L67.14 154.22L66.38 153.72L65.06 154.48L64.3 154.73L63.48 154.63L60.74 155.39L59.99 155.25L58.66 155.99L57.73 156.16L57.11 157.32L56.76 158.73L57.09 159.81L57.95 160.6L57.97 160.92L56.72 162.22L55.04 162.26L53.51 161.56L51.45 161.34L50.89 161.61L50.48 161.51L50.28 161.1L49.82 160.8L48.25 160.19L47.74 159.69L47.54 159.18L46.98 158.62L46.78 158.17L47.03 156.35L47.2 156.21L47.78 154.07L47.69 152.65L48.1 151.49L48.61 151.24L49.27 149.82L49.21 148.41L48.96 147.85L47.64 147.34L45.25 146.99L44.8 146.64L43.68 145.02L43.22 144.82L43.02 144.46V143.96L42.51 143.86L41.9 143.96L40.88 142.6L37.75 139.88L37.13 139.09L36.7 138.89L36.47 138.21L36.44 137.39L36.8 136.47L38.41 134.28L39.11 133.93L39.72 132.39L39.67 130.07L39.82 129.52L40.17 129.07L40.19 127.89L40 127.81L40.13 127.43L39.86 127.58L39.62 127.4L39.5 126.61H39.37L39.23 127.05L38.66 126.92L38.79 127.21L39 127.26L38.96 127.49L38.65 127.46L38.56 126.75L38.27 126.54L38.25 126.33L38.72 126.48L39.19 125.74L39.53 125.6Z" fill="black"/>
<path d="M37.57 203.6L38.68 203.55L39.85 203.92L39.52 204.39L38.75 204.51L35.58 203.99L35.15 203.71L35.14 203.47L35.55 203.2L36.52 203.51L37.57 203.6ZM33.3 199.45L34.42 200L34.88 199.72L35.03 200.19L34.78 201L33.11 201.22L32.5 200.79L32.28 200.15L32.43 198.96L32.85 199.07L33.3 199.45ZM30.18 188.77L29.76 189.72L29.42 187.92L29.62 186.65L29.16 184.17L29.08 179.86L29.47 177.77L29.66 177.43L29.89 177.4L30.03 177.7L30.01 178.35L30.47 179.18L31.17 181.86L30.72 185.78L30.18 188.77ZM19.14 112.67L19.54 113.21L19.88 112.88L20.47 112.75L21.39 111.83L21.72 112L23.19 111.87L23.32 112.45L24.16 112.83H25.96L27.3 113.41L28.1 110.95V110.53L28.39 110.41L29.66 111.86L29.83 112.32L31.3 114.36L32.43 115.44L33.73 116.11L34.49 116.44H35.33L35.41 116.11L35.87 115.98L36.88 116.13L37.11 116.34L37.88 116.44L42.58 118.44L44.3 118.73L45.26 119.31L46.12 119.24L46.8 119.36L48.07 120.34L48.69 120.55L49.52 120.61L50.19 121.61L50.64 121.55L51.28 122.05L52.54 124.6L51.92 124.77L51.65 125.04L50.88 126.53L50.47 126.76L50.22 127.52L48.7 128.1L47.6 129.24L47.16 129.48L45.96 129.33L44.87 128.78L44.7 128.47V128.14L45.01 127.57L44.41 126.22L44.02 126.14L43.3 126.34L42.6 126.91L42.21 126.77L41.76 126.24L41.18 125.97L39.54 125.55L39.96 125.09L39.19 123.98L35.51 123.01L34.82 122.96L33.18 123.57L31.35 124.66L27.92 127.15L24.96 128.99L26.1 131.99L27.43 132.96L28.01 133.2L28.53 134.08L28.38 134.93L28.3 138.43L28.87 139.76L29.19 141.99L29.06 142.53L27.9 144.39L27.56 145.4L27.38 148.75L28.15 149.81L27.64 153.55L28.31 155.38L28.77 158.58L28.23 160.4L27.33 161.3L26.81 161.62L26.8 163.99L26.07 166.78L28.11 170.25L29.48 174.84L29.35 175.04L28.52 174.76L27.51 173.16L27.15 172.99L25.28 173.51L23.95 174.19L23.12 174.43L20.21 173.85L18.91 174.94L18.66 175.69L17.74 176.3L15.81 176.25L15.5 176.03L15.26 175.5L15.31 175.22L14.98 174.84L12.22 173.88L10.32 171.06L10.27 169.96L10.73 167.29L11.11 166.49L12.31 164.93L13.18 162.75L13.26 161.98L12.88 161.03L12.69 159.63L14.48 156.68L14.97 152.57L15.02 150.22L14.53 146.5L13.47 144.79L11.94 141.8L12.49 140.38L13.11 139.52L12.65 138.13L12.31 136.26L11.81 135.09L11.73 134.17L11.02 133.5V133.08L11.4 132.79L11.78 132.75L11.99 133.04L12.87 132.79L13.12 132.58L13.33 132L14 131.75L15.05 131.79L15.09 131.41L14.5 130.74L14 129.57L14.29 128.87L14.19 128.25L13.93 127.92L14.13 127.04V126.02L14.45 125.27L15.2 125.56L16.25 125.14H16.75L17.46 124.35L17.67 123.62L18.92 122.7L19.15 122.11L19.05 121.32L18.85 120.96L18.29 120.63L17.37 120.47L17.21 120.27L16.95 119.75V118.9L16.65 118.57L15.13 117.84L15.17 116.54L16.95 115.26L17.41 114.83L17.54 114.47L18.26 114.37L18.39 114.04L18.12 113.15L19.14 112.67Z" fill="black"/>
<path d="M84.31 170.57L83.14 170.48L82.49 169.25L82.41 168.45L83.72 168.6L84.21 169L84.38 169.36L84.31 170.57ZM56.4 172.3L55.4 172.36L53.72 170.34L52.74 168.78L52.81 167.97L53.66 165.72L54.51 165.15L55.54 165.36L55.74 165.53L57.1 168.13L56.99 171.46L56.82 172.07L56.4 172.3ZM68.49 157.87L69.09 161.86L69.3 162.24L69.22 163.25L66.99 165.18L66.19 166.92L66.26 167.39L66.73 167.76L67.17 168.78L66.93 170.1L66.22 171.31L65.28 171.57L63.65 170.99L61.18 170.79L60.71 170.61L60.52 169.68L61.36 166.67L61.62 166.06L62.49 165.54L62.64 165.2L62.51 163.74L61.5 161.42L62.24 159.81L62.62 159.6L63.65 159.55L64.79 159.23L66.22 158.11L67.85 157.32L68.49 157.87ZM77.04 158.91L77.08 161.05L76.88 161.9L76.27 161.24L76.42 160.22L75.69 159.12L75.29 159.33L75.45 161.4L75.09 161.65L74.48 161.4L74.33 161.15L74.38 160.74L74.74 160.23L74.69 159.88L74.55 159.73L74.13 159.95L73.59 161.29L73.16 163.21L72.98 165.98L73.71 166.6L74.08 166.52L77.01 168.83L77.04 169.2L75.8 170.79L74.19 171.49L73.85 171.4L73.28 170.95L71.61 171.71L71.16 172.14L70.93 172.83L71.61 172.88L71.84 173.21L71.63 173.79L70.36 175.8L69.92 176.07L67.36 175.95L66.46 174.44L65.85 172.87L68.72 168.51L69.52 166.36L70.77 160.86L70.61 158.06L70.96 156.76L71.83 155.01L73.87 153.57L74.33 153.44L74.69 153.57L74.39 154.09L74.63 154.85L75.64 155.41L76.64 156.81L77.04 158.91ZM74.74 147.24L75.1 147.3L76.58 146.95L77.3 147.64L77.65 148.36L77.56 149.08L75.99 151.14L75.74 151.27L74.38 151.19L73.5 150.3L72.62 149.1L72.44 148.63L72.42 147.9L73.36 146.86L74.02 146.72L74.74 147.24ZM76.9 98.28L77.38 99.27L76.68 100.41L77.53 101.99L77.97 101.92L78.38 100.93L78.86 100.56L79.04 100.08L79.63 99.42L80.44 99.05L82.95 100.23L82.51 102.99L81.84 103.39L81.25 104.24L80.73 104.28L79.55 103.73L79.29 103.14L78.62 102.48L78.1 102.7L77.84 103.18L77.66 103.77L77.55 105.46L77.37 105.75H77.04L76.56 106.08L76.04 105.82H75.6L75.27 105.67L75.2 105.27L75.38 105.01L75.75 104.97L76.56 104.05L76.26 102.98L76 100.81L75.81 100.48L75.4 100.74L74.22 102.06L73.96 103.13L73.22 104.05L73.18 104.34L72 105.41L71.59 105.59L71.04 105.48L70.34 103.86L69.79 103.64L69.61 103.31V102.46L70.09 100.62L71.09 99.41L71.35 98.9L71.68 98.5L72.12 98.46L72.86 98.9L73.23 98.64L75.19 98.05L75.82 98.75L76.26 97.87H76.56L76.9 98.28ZM42.95 56.91L43.37 56.97L45.4 56.66L46.34 55.84H46.64L46.96 56.06V56.48L46.76 56.77L46.17 56.79L45.93 56.94L46.14 57.05L46.31 57.75L46.9 58.59L47.82 59.55L48.39 59.81L49.05 59.98L54.79 59.2L54.98 59.31L55.56 60.5L55.88 60.63L56.23 60.55L57.1 59.83L57.58 59.85L59.41 60.59L57.15 61.44L56.89 61.41L56.37 62.01H55.99L55.86 62.66L55.56 62.93L55.14 62.76L54.65 62.24L54.17 61.44L53.32 61.58L52.53 62.19L51.42 62.48L49.35 63.44H47.9L47.42 63.86L46.09 63.81L45.2 63.3L44.85 63.71L44.83 64.67L44.31 64.77L43.34 64.39L42.28 64.77L41.93 65.11L41.87 66.17L41.55 66.34L41.81 66.77L42.39 67.09L42.88 67.87L43.95 68.21L44.64 68.24L44.81 69.7L44.52 70.2L43.15 69.79L41.42 70.23L40.8 71.05L38.8 70.81L37.27 71.16L36.68 70.97L36.26 70.52L34.34 69.94L33.53 69.42L30.14 69.23L29 69.88L27.32 70.46L25.62 72.17L23.5 75.27L23.85 75.6L23.31 76.43L23.11 78.54L22.52 79.17L22.03 79.1L22.1 80.44L21.64 81.44L21.59 82.8L21.96 83.36L22.01 84.21L22.62 85.67L22.35 86.52L22.22 88.73L22.51 89.45L23.72 91.25L26.1 93.89L26.29 94.35L26.77 94.63L27.13 94.6L27.89 94.08L28.22 94.01L28.8 94.44L29.03 95L30.13 95.11L31.57 97.45L31.12 98.96L31.19 99.55L31.47 100.01L31.99 100.23L33.02 102.39L33.53 102.45L34.35 102.02L34.6 101.46L35.11 101.24L35.79 101.25V101.97L35.99 102.31L36.5 102.49L37.68 102.33L40.11 102.63L40.54 102.34L41.49 101.1L42.57 98.93L44.79 96.15L45.18 96.03L45.47 95.56L46.33 94.89L46.99 93.7L47.61 93.35L48.76 93.06L48.97 92.13L49.47 91.98L49.81 91.96L50.14 92.25L49.81 93.73L50.06 94.1H50.31L51.44 94.75L53.62 95L54.53 95.39L55.85 94.51L56.6 94.37L57.29 94.65L57.78 94.67L58.29 94.16L58.68 92.19L60.18 91.61L61.15 92.04L63.83 91.04L67.56 91.57L69.26 91.56L71.87 91.3L72.57 90.94L72.5 90.68L71.06 90.17L69.07 89.97L68.6 89.67L68.63 89.4L70.11 88.77L71.63 88.56L73.45 88.59L73.95 88.44L74.3 87.79L74.53 87.78L77.19 87.89L78.73 88.48L80.42 89.39L81.17 91.31L81.03 92.55L80.24 93.47L79.9 95.41L79.4 96.09L79.08 96.3L77.93 96.12L77.54 95.92L76.28 94.46L75.95 93.56L74.49 93.22L70.18 93.85L69.78 94.39L69.67 95.11L69.18 96.03L67.88 97.45L66.88 99.18L65.7 100.12L63.63 102.34L62.51 103.76L58.79 105.84L56.17 106.18L55.16 106.84L53.16 107.23L52.5 107.73L51.53 110.12L50.68 110.98L50.2 111.24L49.12 111.43L48.01 111.37L47.68 110.77L46.41 109.47L44.46 108.63L43.95 108.89L43.78 109.89L44.65 112.41L45.03 112.11L46.11 112.05L47.02 113.05L48.55 115.28L49.4 115.62L50.31 115.46L51.09 115.69L53.2 117.86L55.47 121.73L56.25 124.27L58.28 125.92L61.33 128.06L61.35 128.74L60.63 129.85L60.61 130.22L62.52 131.93L62.77 132.08L63.32 131.83L64.25 132.51L63.16 133.8L62.18 133.53L61.85 133.85L61.73 133.42L61.84 133.22L61.67 133.07L61.14 133.09L60.72 132.05L60.17 132.15L59.74 131.54L59.31 131.36L59.42 130.48L59.26 130.16L58.18 129.95L57.67 129.26L57.24 129.04L56.19 129.09L55.45 128.95L54.8 129.28L52.82 128.73L50.17 127.65L50.42 126.89L50.83 126.66L51.6 125.17L51.87 124.9L52.49 124.73L51.23 122.18L50.59 121.68L50.14 121.74L49.47 120.74L48.64 120.68L48.02 120.47L46.75 119.49L46.07 119.37L45.21 119.44L44.25 118.86L42.53 118.57L37.83 116.57L37.06 116.47L36.83 116.26L35.82 116.11L35.36 116.24L35.28 116.57H34.44L33.68 116.24L32.38 115.57L31.25 114.49L29.78 112.45L29.61 111.99L28.34 110.54L28.05 110.66V111.08L27.25 113.54L25.91 112.96H24.11L23.27 112.58L23.14 112L21.67 112.13L21.34 111.96L20.42 112.88L19.83 113.01L19.49 113.34L19.09 112.8L18.85 111.91L19.21 111.7L19.06 111.36L19.01 108.61L18.7 108.72L18.14 108.48L17.52 108.57L17.12 108.3L17.23 107.76L17.56 107.36L17.12 106.59L16.73 106.47L16.81 105.84L15.77 104.86L15.49 104.01L16.04 103.45L16.12 103.18L15.55 102.63L14.79 102.19H14.43L13.86 102.65L13.23 102.73L12.85 102.16L12.5 102.22L12.18 102.01L11.69 101.38V101.12L12.34 101.04L12.91 100.71L12.8 100.46L12.25 100.66L12.44 100.28L13.99 100.09L14.18 99.71L14.13 99.16L14.68 97.95L14.65 97.45L14.27 97.53L14.18 97.28L14.03 95.89L13.77 94.99V94.05L13.99 93.49L13.88 92.59L15.8 91.03L15.95 90.04L16.56 89.46L16.87 89.44L17.77 91.37L17.98 92.34L18.55 93.24L18.76 93.27L19.05 92.74L19.12 92.22L18.82 90.4L18 89.33L17.16 86.52L17.3 83.95H17.46L17.61 83.2L18.25 81.55L17.92 80.36L16.56 80.78L16.24 80.63L15.53 80.14L14.55 78.32L15.65 78.51L15.57 77.93L16.43 78.37L16.94 78.78L16.89 79.19L17.4 79.53L17.6 80.06L18.31 80.23L18.99 79.45L19.38 78.45L19.34 76.82L19.01 76.21L17.67 74.83L17.55 74.46L17.97 74.19L18.79 74.48L19.7 74.51L19.77 74.25L19.48 73.28L18.89 72.57L18.86 72.34L19.38 71.53L19.42 70.88L19.86 70.2L20.51 69.78L21.46 69.67L22.01 69.27L22.15 68.49L21.79 66.84L21.81 66.33L22 65.98L22.74 65.36H23.49L25.24 64.39L25.52 63.89L25.56 62.38L25.79 61.66L26.41 61.21L27.01 61.2L27.33 61.41L27.41 61.91L27.19 63.05L27.32 63.45L28.71 64.38L31.39 64.87L31.86 63.7L31.99 62.93L32.62 61.91L33.32 61.18L34.44 60.79L35.26 59.92L35.76 57.65L35.58 56.25L35.78 55.48L37.89 55.16L40.37 55.47L41.21 55.81L42.95 56.91Z" fill="black"/>
<path d="M59.42 60.6L60.01 60.8L62.42 60.75L64.09 60.93L67.5 61.92L67.74 62.27L70.7 64.1L71.81 63.41L72.66 62.19L75.21 61.82L75.42 62.64L75.96 63.03L76.82 63.26L77.52 63.95L77.48 64.42L77.75 65.27L78.37 65.81L79.58 66.7L81.61 67.05L82.15 67.63L82.46 68.48L82.31 69.56L82.38 70.57L81.57 72L81.29 72.98L79.15 73.01L77.65 72.61L76.37 71.43L75.56 70.23L74.53 69.34L74.02 69.72L72.64 69.86L64.21 69.55H62.39L59.33 69.86L56.96 69.81L56.45 69.94L55.85 70.46L54.22 70.78L52.47 70.84L50.99 69.17L48.06 68.85L47.82 68.97L47.62 69.65L47.33 69.9L44.56 70.22L44.84 69.72L44.67 68.25L43.98 68.22L42.91 67.88L42.41 67.1L41.84 66.79L41.58 66.36L41.89 66.19L41.95 65.12L42.29 64.78L43.35 64.4L44.32 64.78L44.84 64.68L44.86 63.72L45.21 63.31L46.1 63.82L47.43 63.87L47.91 63.46L49.36 63.45L51.43 62.5L52.54 62.2L53.33 61.59L54.18 61.45L54.67 62.25L55.16 62.77L55.58 62.94L55.88 62.67L56.01 62.02H56.38L56.9 61.42L57.16 61.45L59.42 60.6Z" fill="black"/>
<path d="M110.41 53.67L109.52 54.91L108.75 57.44L107.74 59.27L106.2 61.39L104.88 61.96L103.36 63.1L102.16 64.27L100.64 66.82L100.23 67.94L98.3 70.27L96.21 71.34L94.92 71.65L93.91 71.66L89.72 72.31L86.77 73.01L84.53 73.27L83.51 72.96L81.29 72.98L81.56 72L82.38 70.57L82.3 69.56L82.46 68.48L82.15 67.63L81.61 67.05L79.59 66.7L78.38 65.81L77.76 65.27L77.49 64.42L77.53 63.96L76.83 63.26L75.97 63.03L75.43 62.64L75.23 61.83L77.56 61.72L79.85 62.2L82.85 63.2L83.16 63.24L83.75 62.9L87.59 63.81L89.17 63.75L90.41 63.02L95.74 60.66L96.16 60.13L96.99 57.98L97.98 57.58L100.66 57.75L100.89 57.62L101.31 57.04L101.3 56.43L100.76 56.11L100.13 56.14L99.87 55.69L99.84 55.33L100.3 54.55L101.43 53.73L102.41 54.09L103.12 54.04L105.14 52.9L105.35 52.36L104.81 51.31L104.86 51.02L107.48 48.97L108.55 48.88L110.26 49.37L110.94 49.92L110.77 50.46L110.86 50.94L112.3 52.16L111.98 53.01L111.38 53.36L110.73 53.42L110.41 53.67ZM115.15 32.88L114.94 32.95L114.47 32.75L114.09 31.27L114.54 30.09L115.07 29.85L115.62 30.18L115.74 30.44L115.66 30.78L114.91 31.63L114.94 32.08L115.32 32.64L115.15 32.88ZM118.17 15.9L117.95 16.46L118.96 17.75L119.13 17.64L119.55 17.9L119.67 19.16L119.03 20.12L118.83 19.98L118.66 20.06L118.57 20.68L118.41 20.57L118.43 20.26L118.1 19.7L117.6 19.72L117.38 19.43L116.97 19.31L116.91 19.02L116.63 19.07L116.33 18.37L116.3 17.9L116.77 16.86L116.69 16.7H116.42L116.31 16.31L116.64 16.19L116.56 16.05L116.22 16.13L115.05 15.4L114.83 15.04L114.92 14.12L115.65 13.86L116.68 14.05L118.17 15.9ZM137.59 12.75L137.3 12.8L137.09 12.5L135.82 9.7L135.69 8.67L135.96 8.65L136.37 8.95L137.76 10.82L137.82 11.28L137.59 12.75ZM138.44 9.53L137.36 9.38L137.2 8.1L137.92 7.49L138.9 5.64V5.23L138.69 5.04L137.69 4.8L137.52 4.64L137.23 3.68L137.19 3.1L137.73 0.629997L138.08 0L139.35 0.23L140.13 0.93L141.09 4.55L140.31 5.72L139.03 8.95L138.44 9.53Z" fill="black"/>
</svg>
