<svg width="227" height="200" viewBox="0 0 227 200" fill="none" xmlns="http://www.w3.org/2000/svg">
<path d="M36.45 62.31L36.28 62.41L35.57 61.32L34.32 59.98L33.34 59.52L32.75 59.42L32.51 59.27L32.62 59.12L33.61 58.92L35.67 59.05L36.36 60.13L36.7 61.11L36.69 61.97L36.45 62.31ZM8.9 1.2L11.49 2.62L11.57 3.28L11.85 3.74L12.86 4.74L14.65 6.14L15.5 6.49L19.44 7.47L23.48 7.74L25.39 7.39L27.62 6.51H27.98L28.88 6.99L30.4 6.63L31.52 6.75L32.93 7.28L33.31 7.61L33.63 8.47L34.25 8.68L35.23 8.48L39.16 6.96L39.63 6.98L40.51 7.87L41.6 9.38L43.75 11.64L45.31 12.96L46.52 13.24L47.41 15.01L47.56 16.53L47.97 17.5L48.41 18.09L48.32 19.02L49.14 18.92L50.11 19.28L50.75 19.59L52.81 21.17L52.95 22.5L52.59 23.36L52.19 23.5L51.39 23.35L50.62 23.56L50.56 23.88L50.29 24L49.73 24.12L49.35 24.03L49.26 24.24L49.56 24.77L49.53 25.15L49.12 25.39L49.27 25.86L48.8 26.54L48.83 27.51L48.62 27.8L48.38 29.13L47.17 29.78L47.23 30.16L47.08 30.43L46.52 30.05L46.34 30.08L46.25 30.4L46.66 31.14L46.54 31.49L45.06 32.67L44.62 33.29L44.95 34.11L45.42 34.61V34.93L45.69 35.11L45.66 35.85L46.4 36.2L46.61 37.08L47.17 37.49L46.84 38.02L47.11 38.58L47.14 39.02L47.79 39.46L48.06 39.34L48.44 40.05L48.2 40.84L45.83 41.49L45.92 41.67L46.51 41.79L47.01 42.29L47.07 43.03L47.69 43.68L47.6 44.65L46.98 44.59L46.8 44.71L47.01 44.97L46.98 45.5L47.25 46.38V47.44L48.17 47.68L48.76 48.74L49.71 48.86L49.68 49.12L49.92 49.41L49.59 49.91L49.53 50.29L49.68 50.94L50.18 51.44L50.21 51.7L49.59 51.91L49.35 53.32L49.53 54.32L49.94 54.88L49.88 55.59L50.71 55.94L51.24 57.56L50.63 60.35L47.12 58.37H46.72L45.79 58.83L43.69 58.3L42.04 56L41.94 52L41.62 49.83L41.04 48.05L40.84 47.84L40.04 47.83L38.47 47.21L38 46.99L37.34 46.36L36.1 44.63L35.64 42.67L35.17 41.9L33.64 41.38L32.06 38.86L30.83 36.54L29.43 35.76L28.96 35.24L28.66 34.11L27.06 32.99L24.42 32.84L23.09 33.06L22.41 32.92L21.89 32.62L20.21 30.98L18.35 28.21L16.65 26.4L15.89 26.16L14.58 25.15L13.6 24.71L12.43 23.67L10.47 21.31L7.63 18.67L5.33 16.79L3.46 13.96L1.05 9.27L1.39 8.6L1.33 8.3L0.16 6.43L0.56 4.31L0 3.03L0.17 1.46L1.03 1.47L3.2 0.0699997L3.6 0L6.47 0.440001L8.9 1.2Z" fill="black"/>
<path d="M148.02 179.78L148.67 179.73L148.72 180.24L149.15 180.27L149.53 180.75V181.29L149.1 181.69V181.9L149.45 181.93L150.2 182.63L150.5 182.28L150.66 181.39L151.17 181.77L152.57 181.61L152.81 181.4L153 181.45L153.08 181.69L153.99 181.96L154.99 181.42L155.12 181.04L155.5 180.96L155.96 181.23H156.36L156.66 181.04L157.06 181.42L157.41 181.31L158.14 180.37L158.17 180.02L158.06 179.67L157.39 179.05L157.34 178.22L156.8 177.9L157.07 177.12L157.72 176.48L157.42 173.77L157.69 172.94L157.96 172.86L158.04 172.48L158.84 171.92L159.35 171.33L159.97 171.38L160.59 170.87L161.8 170.39L162.47 169.83L162.87 170.34L163.09 170.39L165.3 170.5L166.78 170.26L166.86 169.91L167.99 169.35L168.61 169.11L169.23 169.14L169.61 168.63L170.23 168.2L170.55 167.24L170.85 166.92L171.23 166.87L170.93 166.52L171.36 166.09L171.63 165.02L171.85 165.15L172.01 165.07L172.12 164.56L172.66 164.29L173.33 164.53L174.03 163.89L174.25 163.41L173.98 162.79L174.38 162.47L174.49 161.91L174.84 161.45L175.06 161.58L175.36 162.65L175.68 162.41L176.22 162.3L176.54 162.38L176.65 163.1L177.43 163.05L177.62 163.32H178.21L178.08 164.12L178.21 164.28L178.61 164.12L178.96 164.39L178.91 164.85L179.15 165.04L179.47 164.85L179.58 164.93L179.69 165.25H179.31L179.77 165.63V165.87L180.07 166.19L179.67 166.73L179.62 167.02L179.86 167.07V166.8L180.1 166.93L180.56 166.88L180.64 166.93L180.34 167.22V167.46H180.99L181.02 167.7L181.29 167.81L181.18 168.27L181.37 168.4L182.12 168.48L182.42 168.35L182.47 168.08L182.69 168.03L183.2 168.3L183.49 168.85L183.3 171.55L184.76 173.96L184.81 174.29V175.54L184.47 176.37L184.49 176.72L184.98 177.2L184.38 178.42L184.02 180.29L184.2 181.15L184.69 181.77L184.8 182.15L184.76 182.37L184.27 182.63L184 183.87L184.15 187.48L184 188.01L183.51 188.34L183.38 188.87L183.47 191.04L183.3 192.65L183.51 193.38L182.93 195.51L183 196.69L182.64 197.74L181.85 198.86L181.58 198.97L181.42 198L179.76 197.78L179.41 197.51L179.21 197L179.23 196.49L179.41 196.15L179.32 195.92L178.74 195.37H178.21L178.01 195.13L176.63 194.36L175.8 193.58L175.53 192.87L174.37 191.14L174.04 191.07L173.69 191.22L173.53 191.53V193.3L173.4 193.57L172.67 193.32L172.07 193.73L172.46 194.22L172.47 194.54L172.79 194.53L172.31 194.87L172.51 195.09L172.52 195.44L172.95 195.75L172.86 195.87L172.23 195.88L171.86 196.28L172.12 196.74L172.87 196.66L172.36 197.19L171.79 197.29L170.11 196.37L168.43 195.67L165.41 193.76L164.67 193.18L163.88 192.22L163.32 192.24L162.28 191.93L161.42 192.33L160.96 192.73L161.37 192.99L161.5 193.57L162.51 194.78L162.88 195.03L163.17 195.56L163.15 195.91L162.99 196.02L164.17 197.79L164.06 198.08L164.5 199.25L164.41 199.45L161.93 199.58L161.56 199.37L161.48 199.14L161.79 198.98L161.61 198.25L159.49 196.32L159.08 195.6L158.24 194.98L157.06 194.43L157.39 193.97L156.45 192.82L153.49 190.73L152.01 189.02L151.89 187.99L151.57 187.69L150.26 187.4L150.22 186.98L150.75 186.43L150.59 185.94L150.19 185.47L149.95 185.24L149.59 185.26L149.12 184.64L148.12 183.89H147.81L147.79 184.09L147.61 184.13L147.43 184.02L147.5 183.31L146.72 182.65L146.01 182.69L145.37 182.14L144.84 182.01L145.02 181.48L145.34 181.43L145.91 180.89L146.34 180.81L146.85 180.41L146.98 179.9L147.79 179.95L147.9 179.84L148.02 179.78Z" fill="black"/>
<path d="M118.29 144.86L118.5 145.45L119.35 145.99L119.49 146.7L120.37 147.23L120.5 147.51L120.94 147.66L121.24 148.85L121.64 149.49L122.26 149.63L122.73 150.07L123.88 149.67L124.85 149.89L125.48 150.47L125.77 151.21L125.66 152.43L125.89 152.58L125.69 153.08L127.36 154.6L127.99 154.7L128.24 154.95L129.03 154.39L129.89 154.36L130.79 153.8L131.04 153.91L131.07 154.25L131.36 154.72L131.63 154.6L132.19 154.86L132.75 154.61L132.59 154.72L132.66 155.28L132.87 155.48L133.69 155.16L134.48 155.25L134.69 155.7L134.51 156.05L134.55 156.88L134.4 157.81L134.37 157.95L134.04 158.04L133.72 158.76L133 159.5L132.83 159.45L132.47 158.81L131.94 158.25L131.41 157.95L131.25 157.99L131.18 159.44L130.69 159.75L130.06 160.51L129.94 161.65L128.61 162.12L128.38 162.48L127.91 162.66L128.58 162.86L128.98 163.26L129.15 163.66L130.04 164.17L130.89 165.25L131.57 165.64L132.33 165.84L132.94 165.55L133.34 165.71L133.6 166.22L133.81 166.34L135.07 166.4L136.01 166.26L136.3 166.5L136.7 166.55L137.2 167.92L137.66 168.59L137.67 170.22L139.58 170.53L140.07 171.09L140.8 171.53L141.53 171.54L142.1 171.75L142.5 171.66L142.84 172.27L143.39 172.57L144.37 172.21L144.93 172.39L145.24 173.04L145.25 173.61L144.68 174.15L144.42 174.67L145.51 175.71L144.8 176.33L145.58 176.37L146.22 176.87L146.52 177.29L146.7 178.17L146.31 178.66L146.67 178.57L147.29 178.86L147.69 178.88L148.05 179.48L147.97 179.81L147.89 179.86L147.78 179.97L146.97 179.92L146.84 180.43L146.33 180.83L145.9 180.91L145.33 181.44L145.01 181.5L144.83 182.03L144.03 181.93L143.5 181.36L143.03 181.13L142.18 180.93L141.88 181.13L141.57 181L141.5 180.76L141.72 180.6L141.46 180.21L140.95 179.83L140.63 179.85L140.35 180.1L139.95 179.79L139.9 179.61L140.14 179.27L138.55 177.53L135.41 175.45L132.77 174.48L132.83 174.23L132.23 173.41L131.24 172.69L131.1 172.35L127.53 169.66L126.76 168.93L122.21 165.65L122.03 165.43L122.06 164.37L122.48 164.26L122.52 163.99L121.65 162.26L121.39 160.65L119.17 158.85L117.15 157.63L115.91 157.14L115.97 156.82L110.39 152.79L108.92 150.91L109.01 150.67L108.79 150.16L108.42 149.9L108.23 149.17L107.9 148.95L106.7 147.17L105.5 144.27L102.29 142.47L101.16 140.88L100.31 140.08L101.92 138.97L102.34 138.53L103.43 138.09L104.17 137.53L104.97 136.56L104.98 136.54L109.69 139.5L109.36 141.47L109.53 141.59L109.81 141.11L110.25 141.03L110.54 141.23L111.1 141.07L111.22 140.78L111.59 140.82L112.03 141.51L113.49 143.08L113.89 143.24L114.09 143.6L114.42 143.68L114.9 144.16L115.59 144.36L116.93 144.2L117.77 144.72L118.24 144.84L118.29 144.86Z" fill="black"/>
<path d="M201.84 149.31L201.2 149.49L200.63 149.32L198.94 148.35L199.26 147.58L200.41 147.07L202.11 147.8L202.24 148.09L201.84 149.31ZM218.12 140.9L222.48 142.11L225.57 144.62L226.09 146.38L224.57 149.01L224.44 150.94L222.82 151.68L222.36 152.81L220.76 153.18L220.58 152.89L220.48 151.74L218.76 149.79L218.39 149.93L217.93 150.4L218.27 150.82L218.2 151.58L217.81 151.84L214.86 152.79L214.3 152.55L213.73 149.04L214.29 147.39L214.35 145.09L214.71 144.66L214.68 143.71L214.95 141.77L215.23 141.4L215.97 141.29L217.02 141.36L218.12 140.9ZM187.99 127.78L188.81 129.11L189.3 130.51L189.29 132.32L189.66 134.25L190.58 137.06L191.09 138.14L191.87 139.13L192.6 139.82L193.1 140.03L197.08 140.76L199.94 141.88L199.26 142.27L198.21 143.47L196.94 146.74L196.82 147.57L196.95 148.01L197.73 148.47L198.04 148.4L199.23 148.95V150.18L198.82 150.61L195.39 150.68L194.09 148.6L191.27 147.33L188.93 146.66L188.02 146.21L186.35 146.04L185.94 145.74L185.01 144.19L184.7 142.85V142.26L185.35 140.76L185.27 139.87L184.66 139.35L183.92 139.14L183.33 138.4L182.97 134.88L182.82 134.55L182.04 133.99L177.42 133.47L176.31 133.8L175.04 133.91L171.49 133.03L171.23 132.18L171.58 130.87L172.19 130.42L174.07 129.74L175.78 128.56L176.01 128.2L176.06 127.74L175.82 127.27L174.92 126.72L175.08 125.81L175.91 124.96L176.98 124.28L179.08 123.62L179.57 123.74L180.31 125.49L180.46 127.16L181.38 127.9L182.62 128.19L183.11 128.15L181.37 123.94L181.98 123.62L184.45 122.95L184.86 123.04L186.87 124.4L187.16 124.82L186.89 125.65L187.03 126.22L187.99 127.78Z" fill="black"/>
<path d="M160.19 103.19L160.31 103.46L161.07 103.68L161.19 104.12L161.78 105.05L162.2 105.37L162.13 105.61L161.1 106.44L160.71 107.25L160.56 108.33L160.44 108.43L160.02 108.33L159.36 107.45H159.16L158.67 107.65L158.52 108.92L158.03 109.12L157.81 108.83L157.69 107.83L157.32 106.61L156.68 106.32L156.14 105.71L156.36 104.85L156.61 104.53L156.59 104.19L157.21 104.12L157.33 103.97L157.4 103.19L157.62 103.95L157.18 104.37L157.6 105.01L157.77 104.86L157.75 104.15L157.87 104.1L158.12 104.37L158.74 104.42L159.23 104.1V103.51L159.4 103.31L160.02 103.11L160.19 103.19ZM165.45 100.82L165.6 100.92L165.97 100.82L165.95 99.92L166.2 99.72L167.38 101.31L168.32 102.07L169.08 102.14L169.15 102.58L168.85 102.63L167.69 102.14L167.4 102.41L167.84 102.92L167.72 103.16L166.81 102.7L166.42 102.82L165.51 102.16L165.56 101.94L165.41 101.82L165.04 101.87L164.74 101.33L163.93 100.89L163.04 101.04L162.15 101.65L161.61 101.55L160.95 102.06L160.58 101.91L160.43 101.47L159.72 101.62L159.23 101.38L159.18 101.16L159.2 100.52L159.89 100.01L159.99 99.79L160.58 99.57L160.41 97.3L161.22 96.93L162.25 97.44L162.89 98L163.43 98.81L163.68 98.83L163.93 99.32L164.55 99.81L164.57 100.23L164.77 100.52L165.45 100.82ZM158.53 94.81L158.7 95.03L158.77 94.59L159.02 94.71L159.29 94.64L161.21 96.69L160.77 96.84L160.62 96.74L160.23 97.11L159.74 96.82L158.46 95.4L157.55 93.84L157.77 93.89L158.53 94.81ZM160.94 93.27L162.69 95.42L163.45 96.2L164.02 96.52L164.12 96.79L163.95 97.08L163.29 96.76L162.67 96.15L161.73 95.54L160.84 94.32L160.1 93.71L160.08 93.2L160.7 93.35L160.75 93.15L160.94 93.27ZM158.93 91.68L159.5 92.07L159.45 92.17L159.01 92.1L158.94 92.25L159.19 92.32L159.29 92.59L159.04 92.66L158.42 92.24L158.49 92.51L158.29 92.58L158.04 92.97L157.74 92.9L157.27 92.07L157.05 92.14L156.98 91.5L157.05 91.33L157.52 91.75L157.69 91.7L157.76 91.26L157.32 91.04L157.1 90.72L157.42 90.77L158.93 91.68ZM156.54 83.77L156.34 84.16L156.36 84.6L157.06 85.13L156.73 85.19L156.26 85.47L157.19 85.65L157.26 85.33L157.65 85.62L157.45 85.91L156.81 85.76V86.69L156.69 86.79L156.12 86.33L154.82 84.13L154.84 83.96L155.33 83.84L155.62 83.81L156.26 83.61L156.54 83.77ZM150.53 84.19L150.43 84.36L149.96 83.72L148.9 82.82L148.68 82.45L148.61 81.89L149.59 82.28L150.25 82.89L150.37 83.31L150.79 83.82L150.69 84.11L150.53 84.19ZM149.03 83.94L148.81 84.43L148.64 84.01L148.27 83.96L147.43 83.4L146.96 82.62V82.2L147.23 82.18L147.55 81.76L148.68 83.03L149.03 83.94ZM142.85 82.05L142.96 82.69L144.1 84.01L143.9 84.36L142.92 83.61L143.33 84.33L143.16 85.12L143.47 85.49L143.08 86.46L142.91 86.63L142.56 86.67L142.32 86.3L142.17 86.43L141.6 86.25L141.29 85.61L140.68 84.91L140.5 83.11L140.83 82.63L140.87 81.9L141.41 82.03L141.63 82.34L141.52 81.79L141.65 81.35L141.54 81.22L142.09 80.8L142.59 80.87L142.76 81.14L142.85 82.05ZM153.91 81.04L154.23 81.14L154.38 80.7L154.8 80.65L155.12 81.04L154.97 81.55L154.67 81.62L154.77 82.13L155.19 82.28L155.56 82.21L156.35 82.55V82.75L156.03 83.12L155.07 83.77L154.72 83.8L154.35 82.6L153.69 82.28L153.44 82.38L153.42 81.43L153.22 81.26L152.88 81.58L152.61 81.34L152.78 80.68L153.27 80.58L153.86 80.85L153.91 81.04ZM148.44 80.74H148.24L147.53 79.96V79.64L147.95 79.3L148.44 79.79V80.74ZM149.62 78.81L149.57 79.08L149.89 79.45L150.14 79.67L150.41 79.94L151.64 80.6L151.69 81.09L151.39 81.02L151.27 81.19L151.15 81.39L151.25 81.78L151.1 81.93H150.88L150.39 81.32L149.65 81.08L148.99 80.57V80.01L149.19 79.79L148.55 79.18L148.67 78.89L149.01 79.06L149.38 78.82V78.33L149.55 78.43L149.62 78.81ZM141.59 77.69L141.65 77.86L141.52 77.93L141.17 77.82L141.11 78.57L141.37 79.17L141.72 79.23L142.22 80.35L141.35 80.31L141.26 80.09L140.67 80.02L139.95 79.49L139.93 78.72L140.11 78.59L140.24 78.11L140.94 77.91L141.27 77.34L141.59 77.69ZM154.37 77.66L154.42 78.15L154.2 78.37V79.57L153.46 79.62L153.29 80.06L153.49 80.5L152.65 80.28L152.4 80.5L151.91 80.35L151.76 80.11L151 80.03L150.29 79.57L149.97 78.54L150.02 78.27L150.42 78.21L150.34 78.76L150.71 78.74L150.64 78.03L150.47 77.96L150.45 77.69L151.66 77.81L151.83 77L152.2 76.93L152.77 77.64L153.11 77.74L153.28 77.5L153.03 77.33V76.99L153.6 76.75L154.04 77.12L154.37 77.66ZM161.83 77.12L161.98 77.78L162.72 78.22L163.19 79.42L162.94 80.64L163.01 81.03L163.21 81.23V81.65L162.94 81.72V81.96L163.19 82.08L163.81 82.01L163.69 82.52L162.93 83.55L162.36 83.31L161.4 83.33L160.83 83.13L160.07 82.47L159.82 82.57L159.13 82.4L159.15 82.23L159.84 82.06L159.37 81.64L159.47 81.37L159.35 81.2L158.91 80.83L159.13 80.49L159.7 80.54L159.5 80.1L159.92 79.59L159.48 79.17L158.69 79.59L158.71 80.15L158.54 80.3H158.24L158.29 79.93L157.82 79.76L157.65 80.13L157.43 80.25L156.25 80.18L155.88 79.86L155.61 79.25L155.49 78.81L156.01 78.05L157.51 77.81L157.24 77.05L157.63 76.88L158.34 77.03L158.44 76.83L158.83 76.68L159.96 77.14L160.58 77.16L161.17 76.79L161.37 76.28L161.79 76.16L161.94 76.26L161.83 77.12Z" fill="black"/>
<path d="M90.64 150.11L90.61 150.71L90.88 151.24L90.81 151.44L89.81 151.57L89.34 151.8L90.71 154.46L90.74 154.69L90.34 154.96L90.04 154.79L89.74 154.13L89.54 154.16L89.11 153.83L89.31 153.66L89.11 153.33L88.34 153.06L88.51 152.36L88.31 151.9L88.38 151.3L87.78 150.5L87.18 150.57L86.51 149.77L85.84 148.54L85.81 148.31L86.11 147.71L85.64 145.79L85.71 145.49L86.74 145.12L88.11 146.85L89.01 147.38L90.21 148.91L90.71 149.28L90.64 150.11ZM85.14 145.69L85.11 146.09H84.11L84.04 146.26L83.51 145.8L83.34 146.3L83.11 146.43L82.68 146.06L82.81 145.73L82.44 145.33L82.74 144.37V143.44L82.37 142.64L82.4 142.08L81.93 141.78L82.2 141.45L82.1 140.65L82.33 140.32L82.83 140.42L83.56 141.45L84.59 142.08L84.89 142.51L85.59 142.81L86.06 143.87L86.43 144.27L86.26 145.03L85.63 145.26L85.14 145.69ZM77.66 134.3L78.33 135.66L78.83 136.19L78.9 136.56L79.5 136.89L79.93 137.59L80.26 138.32V138.55L80.09 138.68L79.89 138.61L79.92 138.25L79.72 137.95L79.49 138.15H79.12L78.89 137.65H78.09L77.12 136.82L76.62 136.62L75.75 136.72L75.48 135.89L75.21 135.76L74.48 134.53L74.51 134.3L74.74 134.13L75.14 134.36L75.21 134.23L74.91 133.83L74.78 132.93L74.95 132.57L75.48 132.14H76.08L77.41 133.27L77.66 134.3ZM64.16 113.73L64.49 114.72L64.29 114.79L64.09 114.29L63.96 114.39L64.36 115.68L65.36 116.48L65.46 117.24L66.09 118L66.12 118.4L66.55 119.1L66.42 119.4L66.99 120.06L67.02 120.69L68.05 121.68L68.18 122.01L68.28 122.71L68.01 122.48L67.68 122.51L68.08 123.04L68.81 123.31L68.91 123.58L68.81 124.01L69.21 125L69.88 124.77L70.35 125.43L70.45 126.89L70.12 127.39L69.52 126.23L69.39 126.26L69.59 127.25L69.86 127.81L69.43 128.21L69.06 127.91L68.29 127.88L67.86 128.01L67.79 128.31L67.22 128.41L63.12 126.19L62.92 125.63L62.32 125.1L62.52 125V124.77L61.89 123.54L59.22 119.6L58.99 118.94L58.59 118.71L58.42 118.41L58.32 117.98L58.69 117.58L59.49 115.43L59.46 114.37L60.09 113.71L60.49 113.61L60.92 113.81L62.05 113.71L62.85 113.41L63.52 112.91L63.75 112.94L64.16 113.73ZM80.68 81.79L81.07 82.14L81.74 82.02L82.06 82.73L83.36 83.2L83.64 83.55L85.77 84.26L85.57 84.11L86.63 84.54L87.1 85.27L86.27 86.56L86.18 87.5L87.45 90.14V91.29L87.6 91.73H87.87L88.79 91.26L89.17 91.41L89.55 91.67L90.32 93.4L93.16 94.19L94.25 94.22L94.49 93.84L95.58 92.9L96.23 92.67L96.58 92.76L96.76 93L97.14 94L96.87 94.85V95.33L97.25 96.27L97.16 97.12L96.57 98.15L96.24 97.68L96.03 97.71L95.56 98.09L95.53 98.44L95.8 99.32L95.62 99.5L95.65 99.74L96.18 100.65L96.06 100.94L96.18 101.44L96.51 101.94L97.04 102.23L97.1 102.85L97.31 103.17L97.78 103.2L98.34 103.64L98.61 103.14L98.46 103.05L98.55 102.9L99.41 102.64L99.79 102.7L100.59 103.29L100.56 103.97L100.38 104.35L101.09 105.88L101.39 106.03L101.63 105.97L101.98 106.38L103.1 106.85L103.22 107.26L103.87 107.52L104.31 108.08L106.02 108.69L106.11 108.78L105.93 109.1L106.31 109.39L106.84 109.51L106.93 110.07L108.38 110.95L108.62 111.3L109.06 111.33L110.18 112.01L110.83 112.89L111.18 113.07L111.15 113.36L112.42 113.71L112.92 114.03H113.81L114.05 114.18L114.08 115.18L114.23 115.3L114.11 116.06L114.64 116.5L114.99 116.24L115.11 116.33L114.81 117.18L113.98 118.21L113.36 118.36L113.03 118.6L112.41 118.57L111.79 119.19L111.85 119.75L112.2 120.57V120.8L111.79 121.27V121.48L112.2 121.83V122.06L111.58 123.17L109.57 124.4L108.39 126.19L107.39 126.45L107.01 126.1L106.39 126.28L105.83 126.25L105.3 126.51L104.24 126.48L103.68 126.83L103 126.12L102.85 126.15L102.67 126.5L102.17 126.15L101.99 126.18L102.2 129.82L102.35 130.23L102.82 130.73L102.97 131.23L103.32 131.64L104.03 131.96L104.41 132.69L104.97 134.37L105.15 136.02L104.91 136.55L104.11 137.52L103.37 138.08L102.28 138.52L101.87 138.96L100.26 140.07L99.98 139.53L97.98 137.32L97.58 135.73L96.74 134.56L96.78 134.1L97.52 133.43L97.82 132.84L97.83 131.66L97.38 129.99L95.39 127.13L93.95 125.37L93.05 122.99L92.29 122.21L92.65 121.65L92.7 121.05L92.27 120.07L91.87 119.8L91.12 119.7L90.32 118.95L89.92 119.24L89.54 119.13L89.67 118.51L90.11 118.58L89.82 117.91L89.44 117.8L88.89 116.96L88.87 116.67L89.2 116.65L88.87 115.92L89.17 115.57V115.25L88.62 113.7L88.36 112.31L88.08 111.77L87.64 111.15L84.81 108.34L84.09 106.93L83.43 106.06L81.13 104.17V103.94L80.64 103.23L79.51 102.55L79.13 101.71V101.18L78.44 100.01L78.22 99.87L78.44 99.21L78.3 98.85L78.49 98.53L77.91 97.66L77.01 97.05L76.43 96.43L75.08 95.7L72.8 94.75L72.11 94.6L71.69 93.67L71.33 93.32L70.53 93.22L69.42 93.63L68.24 93.21L69.17 91.82L69.92 91.47L70.71 91.39L71.34 90.61L72.21 89L72.68 88.88L73.9 88.1L74.96 88.53L76.42 88.02L76.93 88.69L77.01 89.08L77.64 89.55L78.47 89.12L78.75 89.08L79.26 89.2L79.38 89.4L80.01 89.44L80.72 89.32L81.23 89.01L81.9 88.19V87.52L81.23 87.01L81.15 85.84L80.52 85.6H79.89L79.61 84.82V84.51L79.89 84.2L79.81 82.12L80.4 81.77L80.68 81.79Z" fill="black"/>
<path d="M160.35 125.9L159.07 125.38L158.53 125.49L158.21 125.65L158.05 125.92L158.15 126.67L157.83 127.1L156.81 127.37L155.84 127.26L154.92 127.69L153.57 128.01L152.49 127.74H151.74L151.24 127.92L150.23 127.4L149.78 127.32L149.06 127.68L148.77 128.2L147.11 128.28L144.93 129.09L143.84 130.05V130.86L143.64 131.62L143.72 131.94L143.52 132.34V133.67L144.08 134.15L143.39 134.63L142.3 134.91L142.22 135.32L142.42 136.88L142.22 137.09L142.34 137.85L142.18 137.89L141.98 137.53L141.45 137.41L141.09 136.76L140.28 136.32L140.12 135.88L139.47 135.32L139.39 134.55L139.07 134.19L138.58 134.11L138.3 134.35L138.14 134.79L137.81 134.91L137.61 135.2L137.37 135.8L138.06 136.48L138.22 137.21L136.68 137.81L135.55 137.45L135.47 137.21L135.27 137.17L134.98 137.69L133.08 137.37L132.36 137.09L131.79 137.93L132.4 138.93L131.91 139.3L130.86 141.07L130.41 141.43L130.13 141.47L129.85 141.31L128.92 142.07L128.15 142.39L127.95 142.59V142.91L127.34 143.56L126.86 143.36L126.45 143.44L125.85 143.88L125.76 143.72H125L124.31 143.56L123.74 143L123.22 142.71L123.02 142.91H122.73L121.88 142.39L121.32 142.63L121.24 143.36L120.83 143.8L120.02 143.92L119.82 144.12L119.21 144.28L118.81 145.01L118.24 144.84L117.77 144.72L116.93 144.2L115.59 144.36L114.9 144.16L114.42 143.68L114.09 143.6L113.89 143.24L113.49 143.08L112.03 141.51L111.59 140.82L111.22 140.78L111.1 141.07L110.54 141.23L110.25 141.03L109.81 141.11L109.53 141.59L109.36 141.47L109.69 139.5L104.98 136.54L105.21 136.03L105.03 134.38L104.47 132.71L104.08 131.97L103.37 131.65L103.02 131.24L102.87 130.74L102.4 130.24L102.25 129.83L102.04 126.18L102.22 126.15L102.72 126.51L102.9 126.15L103.05 126.12L103.73 126.83L104.29 126.48L105.35 126.51L105.89 126.24L106.45 126.27L107.07 126.09L107.45 126.45L108.46 126.18L109.64 124.39L111.65 123.16L112.27 122.04V121.81L111.86 121.46V121.25L112.27 120.78L111.86 119.16L112.48 118.55L113.1 118.58L113.43 118.34L114.05 118.19L114.87 117.17L115.17 116.31L115.05 116.23L114.7 116.49L114.17 116.05L114.28 115.29L114.14 115.17L114.11 114.17L114.08 114.15L114.68 114.25L114.72 113.94L115.52 113.76L115.7 113.14L116.29 112.85L116.53 113.06L116.64 112.71L117.11 112.44L117.51 112.5L117.96 112.83L118.37 112.67L119.3 113.12L119.67 112.79L120.06 112.83L120.47 113.18V113.49L120.67 113.63L121.06 113.59L121.92 113.1L122.49 113.06L122.79 113.82L123.79 114.33L123.75 114.97L124.97 115.09L125.44 115.85L126.21 115.87L127.01 116.2L127.68 116.11L128.29 116.53L128.58 116.48L129.09 115.87L129.78 115.79L130.31 114.93L130.78 114.49L130.88 114.13L132.98 112.63L133.83 111.66L134.69 110.31L135.87 110.39L136.72 110.17L140.33 110.8L140.72 111.11L141.57 110.64L142.75 110.53L143.17 110.96L143.96 111.32L144.85 112.42L145.75 113.15L146.75 113.57L147.38 114.09L148.48 114.35L149.01 114.72L149.85 114.35L149.82 114.46L151.04 114.2L153.69 114.95L155.6 115.69L157.81 114.94L158.21 115.01L158.96 116.75L158.65 118.19L158.9 119.01L159.61 120.18L159.73 121.24L159.43 123.19L159.87 125.05L160.35 125.9Z" fill="black"/>
<path d="M137.72 88.58L137.13 88.41L136.82 87.61L137.29 85.88L137.81 85.34L138.32 85.22L139.13 85.89L139.51 86.45L139.64 87.84L139.24 88.2L137.72 88.58ZM128.02 80.22L128.41 80.28L129.58 79.88L130.37 79.94L133.21 81.59L135.03 82.96L135.24 83.28L135.42 84.05L135.17 85.1L134.62 85.4L133.39 84.17L132.33 83.68L128.84 83.58L127.15 84.03L126.62 84L125.52 83.45L124.24 82.22L124.77 81.42L125.63 81.3L125.82 81.14V80.4L125.3 79.27L125.35 78.28L125.64 77.86L126.25 77.75L126.82 78.01L127.86 79.35L127.69 79.82L128.02 80.22ZM135.16 79.47L137.38 81.98L137.44 82.5L137.09 82.89L136.47 83.04L135.98 82.94L133.54 81.23L130.38 79.61L129.79 79.52L129.19 79.71L128.59 79.18L129.54 77.53L130.05 77.33H130.76L132.22 77.76L133.76 78.48L135.16 79.47ZM124.1 81.41H123.68L122.15 79.97L121.79 79.62L121.36 78.81L120.71 75.33L120.75 73.41L120.86 73.19L121.69 73.01L122.21 73.14L125.17 75.79L125.45 76.25L125.47 76.58L124.91 78.29L124.97 79.36L125.32 80.48L125.26 80.76L124.1 81.41ZM125.79 72.43L125.96 75.31L125.72 75.66L125.2 75.42L122.56 72.9L121.75 72.64L119.77 72.48L118.95 72.12L117.99 71.19L117.11 69.7L117.38 69.48L118.19 69.44L120.04 70.19L122.97 70.59L124.75 71.06L125.5 71.49L125.79 72.43ZM110.33 67.93L109.54 67.9L108.44 67.59L108.06 67.38L107.67 66.88L106.74 64.39L106.82 63.07L107.01 62.38L107.56 61.86L111.03 60.87L111.68 61.05L112.02 61.36L113.28 63.06L113.33 63.95L112.57 64.92L112.58 66.27L112.34 66.74L111.06 67.73L110.33 67.93ZM93.41 60.86L94.23 60.73L95.18 61.32L95.93 61.47L96.44 61.08L95.3 60.37L94.98 59.74L94.9 58.96L95.1 58.57L96.05 58.02L98.45 57.75L100.91 58.06L100.79 58.57L101.14 59.34L104.59 61.65L105.33 62.44L105.59 63.25L105.61 64.59L106.33 66.7L107.01 67.79L109.35 68.88L110.1 68.94L111.82 68.52L113.03 68.85L117.54 72.63L119.56 73.7L120.65 76.76L120.46 78.49L120.86 79.86L121.29 80.49L124.58 83.59L125.27 84.09L126.65 84.72L127.17 84.79L129.57 84.57L132.18 84.73L132.87 84.99L133.35 85.36L135.91 88.44L136.09 88.97L135.94 89.64L127.1 94.27L126.39 93.9L125.66 93.08L124.66 93.09L126.56 94.43L127.38 94.67L128.62 93.55L132.86 92.77L137.33 90.25L137.6 90.05L138.32 88.91L140.58 88.07L141.14 88.13L142.3 88.69L147.3 92.45L147.56 93.01L148.54 97.34L147.91 97.57L144.94 97.75L144.66 98.14L144.55 99.05L141.89 100.88L142.06 101.16L142.38 101.11L143.06 100.54L143.74 100.38L144.32 100.43L144.37 100.59L144 101.06L145.63 101.27L145.68 101.48L147.31 102L148.2 103.31L147.57 103.21L146.68 103.37L145 104.1L144.79 104.31L144.95 104.57L144.65 105.23L142.02 106.98L141.64 109.12L141.74 109.54L142.74 110.52L141.56 110.64L140.72 111.11L140.33 110.8L136.72 110.18L135.88 110.39L134.7 110.31L133.84 111.66L133 112.64L130.9 114.14L130.8 114.49L130.33 114.94L129.8 115.8L129.11 115.88L128.6 116.48L128.31 116.54L127.7 116.11L127.03 116.21L126.22 115.88L125.45 115.86L124.98 115.1L123.76 114.98L123.8 114.34L122.8 113.83L122.51 113.07L121.94 113.11L121.08 113.6L120.69 113.64L120.49 113.5V113.19L120.08 112.84L119.69 112.8L119.32 113.13L118.4 112.68L117.99 112.84L117.54 112.51L117.15 112.45L116.68 112.72L116.56 113.07L116.32 112.86L115.73 113.15L115.55 113.77L114.74 113.95L114.7 114.26L114.1 114.16L113.89 114.03H113L112.5 113.71L111.23 113.36L111.26 113.07L110.91 112.89L110.26 112.01L109.14 111.33L108.7 111.3L108.46 110.95L107.01 110.07L106.92 109.51L106.39 109.39L106.01 109.1L106.19 108.78L106.1 108.69L104.39 108.08L103.95 107.52L103.3 107.26L103.18 106.85L102.06 106.38L101.71 105.97L101.47 106.03L101.17 105.88L100.46 104.35L100.64 103.97L100.67 103.29L99.87 102.7L99.44 102.63L98.58 102.89L98.49 103.04L98.64 103.13L98.37 103.63L97.81 103.19L97.34 103.16L97.13 102.84L97.07 102.22L96.54 101.93L96.21 101.43L96.09 101.08L96.21 100.64L95.68 99.73L95.65 99.49L95.83 99.31L95.56 98.43L95.59 98.08L96.06 97.7L96.27 97.67L96.6 98.14L97.19 97.11L97.28 96.26L96.9 95.32V94.84L97.17 93.99L96.79 92.99L96.61 92.75L96.26 92.66L95.61 92.89L94.52 93.83L94.28 94.21L93.19 94.18L90.35 93.39L89.58 91.66L89.2 91.4L88.82 91.25L87.9 91.72H87.63L87.48 91.28V90.13L86.21 87.49L86.3 86.55L87.13 85.26L86.66 84.53L85.6 84.1L84.73 83.08L85.01 82.88L84.89 82.65L85.01 81.75L84.58 81.79L84.15 81.32V81.09L84.9 81.05L85.14 80.78L85.3 80.15L84.95 79.13L84.56 78.97L84.6 78.54L85.15 78.23L85.78 78.15L85.7 77.84L85.11 77.41L84.83 76.9L84.63 75.31L84.12 74.37L83.88 74.41L83.64 74.17L83.6 73.78L83.99 73.51L86.99 73.35V73L87.46 72.88L88.05 73L88.33 72.84L88.37 72.45H89.16L89.99 71.74L90.11 71.27L89.87 71.04L89.95 70.65L90.38 69.94L90.46 69.47L90.3 69.16L90.42 68.77L90.34 68.46L89.75 68.34L89.79 67.91L90.06 67.63L89.82 66.85L87.93 66.5L87.65 66.19V65.8L88.12 64.55L88.36 61.57L88.87 59.85L88.71 58.91L88 57.34L87.84 56.01L87.88 55.34L88.23 54.09L89.05 56.59L89.62 57.79L90.96 59.18L92.49 60.37L93.41 60.86Z" fill="black"/>
<path d="M147.97 179.81L148.05 179.48L147.69 178.88L147.29 178.86L146.67 178.57L146.31 178.66L146.7 178.17L146.52 177.29L146.22 176.87L145.58 176.37L144.8 176.33L145.51 175.71L144.42 174.67L144.68 174.15L145.25 173.61L145.24 173.04L144.93 172.39L144.37 172.21L143.39 172.57L142.84 172.27L142.5 171.66L142.1 171.75L141.53 171.54L140.8 171.53L140.07 171.09L139.58 170.53L137.67 170.22L137.66 168.59L137.2 167.92L136.7 166.55L136.3 166.5L136.01 166.26L135.07 166.4L133.81 166.34L133.6 166.22L133.34 165.71L132.94 165.55L132.33 165.84L131.57 165.64L130.89 165.25L130.04 164.17L129.15 163.66L128.98 163.26L128.58 162.86L127.91 162.66L128.38 162.48L128.61 162.12L129.94 161.65L130.06 160.51L130.69 159.75L131.18 159.44L131.25 157.99L131.41 157.95L131.94 158.25L132.47 158.81L132.83 159.45L133 159.5L133.72 158.76L134.04 158.04L134.37 157.95L134.4 157.81L134.55 156.88L134.51 156.05L134.69 155.7L134.48 155.25L133.69 155.16L132.87 155.48L132.66 155.28L132.59 154.72L132.75 154.61L132.19 154.86L131.63 154.6L131.36 154.72L131.07 154.25L131.04 153.91L130.79 153.8L129.89 154.36L129.03 154.39L128.24 154.95L127.99 154.7L127.36 154.6L125.69 153.08L125.89 152.58L125.66 152.43L125.77 151.21L125.48 150.47L124.85 149.89L123.88 149.67L122.73 150.07L122.26 149.63L121.64 149.49L121.24 148.85L120.94 147.66L120.5 147.51L120.37 147.23L119.49 146.7L119.35 145.99L118.5 145.45L118.29 144.86L118.81 145.01L119.21 144.28L119.82 144.12L120.02 143.92L120.83 143.8L121.24 143.36L121.32 142.63L121.88 142.39L122.73 142.91H123.02L123.22 142.71L123.74 143L124.31 143.56L125 143.72H125.76L125.85 143.88L126.45 143.44L126.86 143.36L127.34 143.56L127.95 142.91V142.59L128.15 142.39L128.92 142.07L129.85 141.31L130.13 141.47L130.41 141.43L130.86 141.07L131.91 139.3L132.4 138.93L131.79 137.93L132.36 137.09L133.08 137.37L134.98 137.69L135.27 137.17L135.47 137.21L135.55 137.45L136.68 137.81L138.22 137.21L138.06 136.48L137.37 135.8L137.61 135.2L137.81 134.91L138.14 134.79L138.3 134.35L138.58 134.11L139.07 134.19L139.39 134.55L139.47 135.32L140.12 135.88L140.28 136.32L141.09 136.76L141.45 137.41L141.98 137.53L142.18 137.89L142.34 137.85L142.22 137.09L142.42 136.88L142.22 135.32L142.3 134.91L143.39 134.63L144.08 134.15L143.52 133.67V132.34L143.72 131.94L143.64 131.62L143.84 130.86V130.05L144.93 129.09L147.11 128.28L148.77 128.2L149.06 127.68L149.78 127.32L150.23 127.4L151.24 127.92L151.74 127.74H152.49L153.57 128.01L154.92 127.69L155.84 127.26L156.81 127.37L157.83 127.1L158.15 126.67L158.05 125.92L158.21 125.65L158.53 125.49L159.07 125.38L160.35 125.9L160.99 126.89L161.15 127.79L160.99 128.31L160.51 128.69L160.18 129.42V130.14L160.41 130.56L160.64 130.47L161.13 129.28L161.54 129.35L162.81 130.43L164.88 131.7L166.25 131.76L166.99 132.43L167.2 132.9L167.51 134.47L167.46 134.94L167.2 135.31L166.77 135.41L166.41 136.04L166.09 135.98L165.5 136.46L164.38 138.25L165.26 138.4L165.53 138.25L166.56 136.78L167.61 136.55L168.05 137.35L169.18 137.41L169.67 137.79L171.2 138.18L172.68 137.35L175.09 138.19L178.15 138.53L179.78 138.51L180.06 139.11L179.6 140.84L179.87 142.27L180.03 142.65L180.76 143.29L181.45 143.49L182.26 143.46L182.6 143.62L182.81 144.24L182.62 146.24L183.25 147.53L183.96 148.15L184.98 148.24L185.72 148.04L186.02 148.1L186.82 148.44L187.26 148.84L187.41 149.81L187.28 151.06L188.06 152.63V153.03L187.75 153.45L186.05 154.33L184.94 155.49L183.76 158L183.42 159.12L183.27 160.25L183.51 161.15L183.96 161.62L185.26 162.35L185.67 163.32L185.46 164.17L184.56 165.57L183.95 166.85L183.73 168.5L183.45 168.86L183.15 168.31L182.64 168.04L182.43 168.09L182.37 168.36L182.08 168.5L181.32 168.42L181.14 168.28L181.24 167.83L180.98 167.72L180.95 167.48H180.3V167.24L180.6 166.94L180.52 166.89L180.06 166.94L179.82 166.81V167.08L179.58 167.02L179.63 166.73L180.03 166.19L179.74 165.87V165.63L179.28 165.25H179.66L179.55 164.93L179.44 164.85L179.12 165.04L178.88 164.85L178.93 164.4L178.58 164.13L178.39 164.29L178.04 164.13L178.18 163.32H177.58L177.4 163.06L176.62 163.11L176.51 162.39L176.19 162.31L175.65 162.41L175.32 162.65L175.03 161.58L174.81 161.45L174.46 161.9L174.35 162.47L173.95 162.79L174.22 163.4L174.01 163.89L173.31 164.53L172.63 164.29L172.09 164.56L171.99 165.07L171.83 165.15L171.61 165.01L171.34 166.08L170.91 166.51L171.21 166.86L170.83 166.91L170.53 167.24L170.21 168.2L169.59 168.63L169.22 169.14L168.6 169.11L167.98 169.35L166.85 169.92L166.77 170.26L165.29 170.51L163.08 170.4L162.86 170.35L162.46 169.84L161.79 170.4L160.58 170.88L159.96 171.39L159.34 171.34L158.83 171.93L158.03 172.49L157.95 172.87L157.68 172.95L157.41 173.78L157.71 176.48L157.06 177.13L156.79 177.9L157.33 178.23L157.39 179.06L158.06 179.67L158.17 180.02L158.14 180.37L157.41 181.31L157.06 181.42L156.66 181.04L156.36 181.23H155.96L155.5 180.96L155.13 181.04L154.99 181.42L153.99 181.95L153.08 181.69L153 181.44L152.81 181.39L152.57 181.61L151.17 181.77L150.66 181.39L150.5 182.28L150.2 182.63L149.45 181.93L149.1 181.9V181.69L149.53 181.28V180.75L149.15 180.26L148.72 180.24L148.67 179.73L148.02 179.78L147.97 179.81Z" fill="black"/>
<path d="M55.34 101.56L55.76 101.6L56.47 102.42L56.99 103.33L57.03 103.84L56.7 104.2L56.89 104.43L56.74 105.23L56.85 105.69L56.64 106.01L56.39 106.1L56.75 106.86L56.69 107.07L56.48 107.18L56.1 107.24L56.33 106.61L56.23 106.48L55.94 106.73L55.61 106.58L55.38 106.66L55.19 107.08L55.4 107.38L55.3 107.63L55.01 107.23L54.4 106.81L53 106.33L53.59 106.08L53.63 106.31L53.97 106.29L54.18 105.45L54.51 105.22L54.45 104.06L54.66 103.22L55.08 102.86L55.52 102.67L55.69 102.25L55.17 101.53L55.34 101.56ZM54.8 97.31L54.9 97.54L55.22 97.31V97.8L56.33 99.09L56.44 99.66L56.31 100.02L56.58 100.55L56.54 100.87L57.52 101.59L57.94 102.14L57.86 103.05L57.48 103.07L57.42 103.3L57.69 103.91L57.58 104.1L57.08 102.92L56.79 102.69L55.8 101.11L55.55 101V100.6L54.44 99.23V99.08L54.12 98.13L53.16 97.66L54.15 97.2L54.8 97.31ZM58.71 94.31L59.73 94.41L60.24 94.28L60.53 94.6L61.79 94.35L62.83 95.34L62.7 95.77L62.79 95.9L62.38 95.98L62.18 95.77L61.56 95.67L61.03 96.09L60.65 96.14L60.23 95.96L59.36 96.09L58.46 95.75L57.57 95.74L57.25 95.53L57.14 94.86L57.93 94.32L58.59 94.21L58.71 94.31ZM39.79 72.85L40.12 73.61L42.58 76.96L44.35 77.58L46.46 79.45L46.92 80.63L46.22 82.24L46.06 86.26L45.78 86.76L44.75 87.86L42.82 87.37L42.48 86.96L42.64 86.65L41.31 83.26L39.25 81.12L38.3 81.07L37.83 80.86L37.5 79.89L36.69 78.34L35.05 75.64L32.7 73.35L33.45 73.04L34.59 73.1L35.08 72.97L36.47 71.73L37.58 71.5L39.07 72.04L39.79 72.85ZM56.65 68.8L57.33 68.92L57.63 68.41L58.06 68.66L58.45 69.35L57.76 69.47L56.49 69.38L55.78 69.12L55.59 68.63L56.07 68L56.66 68.25V68.8H56.65ZM20.9 57.06L19.17 56.9L18.86 56.71L18.56 55.71L14.46 53.02L11.32 51.9L10.3 51.71L8.27998 49.78L8.09998 49.18L8.18998 48.89L9.80998 46.86L11.42 47.17L13.38 49.6L13.95 49.86L15.19 50.04L17.14 52.14L19.45 53.73L20.91 54.33L21.39 55.04L21.4 55.5L21.83 56.61L20.9 57.06ZM50.64 60.34L51.25 57.55L50.72 55.93L49.89 55.58L49.95 54.87L49.54 54.31L49.36 53.31L49.6 51.9L50.22 51.69L50.19 51.43L49.69 50.93L49.54 50.28L49.6 49.9L49.93 49.4L49.69 49.11L49.72 48.85L48.77 48.73L48.18 47.67L47.26 47.43V46.37L46.99 45.49L47.02 44.96L46.81 44.7L46.99 44.58L47.61 44.64L47.7 43.67L47.08 43.02L47.02 42.28L46.52 41.78L45.93 41.66L45.84 41.48L48.21 40.83L48.45 40.04L48.07 39.33L47.8 39.45L47.15 39.01L47.12 38.57L46.85 38.01L47.18 37.48L46.62 37.07L46.41 36.19L45.67 35.84L45.7 35.1L45.43 34.92V34.6L44.96 34.1L44.63 33.28L45.07 32.66L46.55 31.48L46.67 31.13L46.26 30.39L46.35 30.07L46.53 30.04L47.09 30.42L47.24 30.15L47.18 29.77L48.39 29.12L48.63 27.79L48.84 27.5L48.81 26.53L49.28 25.85L49.13 25.38L49.54 25.14L49.57 24.76L49.27 24.23L49.36 24.02L49.74 24.11L50.3 23.99L50.57 23.87L50.63 23.55L51.4 23.34L52.2 23.49L52.6 23.35L52.7 26.06L53.47 27.1L54.66 27.06L56.15 27.7L57.26 28.36L58.08 29.66L59.82 30.1L60.17 30.69L60.07 31.22L60.3 32.05L62.44 33.46L64.67 34.19L66.44 35.17L70.4 37.67L71.58 38.73L72.79 39.2L73.71 39.85L74.43 41.13L74.79 41.48L75.31 41.79L76.67 42.2L78.53 43.25L80.89 45.61L82.27 46.71L82.4 47.04L82.5 49.23L82.36 49.83L81.78 50.62L81.82 51.06L82.96 52.34L82.69 52.6L83.2 52.45L82.89 51.7L83.13 51.24L82.6 50.84L82.22 50.88L82.19 50.74L83.13 50.11L83.53 50.18L84.24 50.95L84.17 52.34L84.9 54.04L85.03 54.02L84.63 52.39V51.66L84.93 51.13L85.52 50.78L86.14 50.8L86.86 51.7L87.51 52.97L88.05 53.49L88.27 54.05L87.87 55.32L87.99 57.32L88.7 58.89L88.86 59.83L88.35 61.55L88.11 64.53L87.64 65.78V66.17L87.92 66.48L89.81 66.83L90.05 67.61L89.73 67.88L89.69 68.31L90.28 68.43L90.36 68.74L90.24 69.13L90.4 69.44L90.32 69.91L89.89 70.62L89.81 71.01L90.05 71.25L89.93 71.72L89.1 72.43H88.31L88.27 72.82L87.99 72.98L87.4 72.86L86.93 72.98V73.33L83.93 73.49L83.54 73.76L83.58 74.15L83.82 74.39L84.06 74.35L84.57 75.29L84.77 76.88L85.05 77.39L85.64 77.82L85.72 78.13L85.09 78.21L84.54 78.52L84.5 78.95L84.89 79.11L85.24 80.13L85.08 80.76L84.84 81.03L84.09 81.07V81.3L84.52 81.77L84.95 81.73L84.83 82.16L84.95 82.87L84.67 83.07L85.18 83.81L85.73 84.24L83.6 83.53L83.32 83.18L82.02 82.71L81.7 82L81.03 82.12L80.64 81.77L80.36 81.73L79.77 82.08L79.85 84.16L79.57 84.47V84.78L79.85 85.56H80.48L81.11 85.8L81.19 86.97L81.86 87.48V88.15L81.19 88.97L80.68 89.28L79.97 89.4L79.34 89.36L79.22 89.16L78.71 89.04L78.43 89.08L77.6 89.51L76.97 89.04L76.89 88.65L76.38 87.98L74.92 88.49L73.86 88.06L72.64 88.84L72.17 88.96L71.3 90.57L70.67 91.35L69.88 91.43L69.13 91.78L68.2 93.17L68 93.11L67.74 92.9L68.06 92.75V91.88L67.27 91.4L67.69 90.24L67.11 87.29L65.94 84.01L64.71 81.23L62.54 74.81L61.21 71.77L60.38 70.71L60.39 70.38L60.58 70.39L61.03 70.87L61.22 70.95L61.41 70.79L62.26 69.46L62.28 68.63L61.36 67.27L60.6 66.65L60.34 66.69L60.11 66.96L60.61 67.11L60.82 67.79L60.41 67.82L59.67 67.35L57.63 64.59L57.07 64.08L55.62 63.16L52.19 61.45L50.64 60.34Z" fill="black"/>
</svg>
